<mxfile host="app.diagrams.net" modified="2023-05-07T22:09:04.178Z" agent="Mozilla/5.0 (Windows NT 10.0; Win64; x64) AppleWebKit/537.36 (KHTML, like Gecko) Chrome/112.0.0.0 Safari/537.36" etag="TM3AkblsN6RDtbB-jgsJ" version="21.2.3" type="device">
  <diagram id="0GHzYMeiVK6s2sSF5XBP" name="PÃ¡gina-1">
    <mxGraphModel dx="2501" dy="711" grid="1" gridSize="10" guides="1" tooltips="1" connect="1" arrows="1" fold="1" page="1" pageScale="1" pageWidth="827" pageHeight="1169" math="0" shadow="0">
      <root>
        <mxCell id="0" />
        <mxCell id="1" parent="0" />
        <mxCell id="aHOeP1wYHEaDq_rcjLdr-2" value="&#xa;DataRequest&lt;T extends Dto&gt;" style="swimlane;fontStyle=3;childLayout=stackLayout;horizontal=1;startSize=26;fillColor=none;horizontalStack=0;resizeParent=1;resizeParentMax=0;resizeLast=0;collapsible=1;marginBottom=0;" parent="1" vertex="1">
          <mxGeometry x="-490" y="170" width="210" height="78" as="geometry" />
        </mxCell>
        <mxCell id="aHOeP1wYHEaDq_rcjLdr-3" value="+ getData(): T" style="text;strokeColor=none;fillColor=none;align=left;verticalAlign=top;spacingLeft=4;spacingRight=4;overflow=hidden;rotatable=0;points=[[0,0.5],[1,0.5]];portConstraint=eastwest;" parent="aHOeP1wYHEaDq_rcjLdr-2" vertex="1">
          <mxGeometry y="26" width="210" height="26" as="geometry" />
        </mxCell>
        <mxCell id="aHOeP1wYHEaDq_rcjLdr-4" value="+ getDataType(): DataType" style="text;strokeColor=none;fillColor=none;align=left;verticalAlign=top;spacingLeft=4;spacingRight=4;overflow=hidden;rotatable=0;points=[[0,0.5],[1,0.5]];portConstraint=eastwest;" parent="aHOeP1wYHEaDq_rcjLdr-2" vertex="1">
          <mxGeometry y="52" width="210" height="26" as="geometry" />
        </mxCell>
        <mxCell id="aHOeP1wYHEaDq_rcjLdr-6" value="&lt;&lt;Enum&gt;&gt;&#xa;DataType&#xa;" style="swimlane;fontStyle=1;align=center;verticalAlign=top;childLayout=stackLayout;horizontal=1;startSize=40;horizontalStack=0;resizeParent=1;resizeParentMax=0;resizeLast=0;collapsible=1;marginBottom=0;" parent="1" vertex="1">
          <mxGeometry x="-480" y="350" width="210" height="100" as="geometry" />
        </mxCell>
        <mxCell id="aHOeP1wYHEaDq_rcjLdr-9" value="+ PESSOA&#xa;+ ENDERECO&#xa;+ELETRODOMESTICO" style="text;strokeColor=none;fillColor=none;align=left;verticalAlign=top;spacingLeft=4;spacingRight=4;overflow=hidden;rotatable=0;points=[[0,0.5],[1,0.5]];portConstraint=eastwest;" parent="aHOeP1wYHEaDq_rcjLdr-6" vertex="1">
          <mxGeometry y="40" width="210" height="60" as="geometry" />
        </mxCell>
        <mxCell id="aHOeP1wYHEaDq_rcjLdr-16" value="DataRequest&lt;PessoaDto&gt;" style="swimlane;fontStyle=1;align=center;verticalAlign=top;childLayout=stackLayout;horizontal=1;startSize=30;horizontalStack=0;resizeParent=1;resizeParentMax=0;resizeLast=0;collapsible=1;marginBottom=0;" parent="1" vertex="1">
          <mxGeometry x="-170" y="70" width="320" height="70" as="geometry" />
        </mxCell>
        <mxCell id="aHOeP1wYHEaDq_rcjLdr-17" value="- data: T&#xa;- dataType: DataType" style="text;strokeColor=none;fillColor=none;align=left;verticalAlign=top;spacingLeft=4;spacingRight=4;overflow=hidden;rotatable=0;points=[[0,0.5],[1,0.5]];portConstraint=eastwest;" parent="aHOeP1wYHEaDq_rcjLdr-16" vertex="1">
          <mxGeometry y="30" width="320" height="40" as="geometry" />
        </mxCell>
        <mxCell id="aHOeP1wYHEaDq_rcjLdr-20" value="DataRequest&lt;EletrodomesticoDto&gt;" style="swimlane;fontStyle=1;align=center;verticalAlign=top;childLayout=stackLayout;horizontal=1;startSize=30;horizontalStack=0;resizeParent=1;resizeParentMax=0;resizeLast=0;collapsible=1;marginBottom=0;" parent="1" vertex="1">
          <mxGeometry x="-170" y="270" width="320" height="70" as="geometry" />
        </mxCell>
        <mxCell id="aHOeP1wYHEaDq_rcjLdr-21" value="- data: T&#xa;- dataType: DataType" style="text;strokeColor=none;fillColor=none;align=left;verticalAlign=top;spacingLeft=4;spacingRight=4;overflow=hidden;rotatable=0;points=[[0,0.5],[1,0.5]];portConstraint=eastwest;" parent="aHOeP1wYHEaDq_rcjLdr-20" vertex="1">
          <mxGeometry y="30" width="320" height="40" as="geometry" />
        </mxCell>
        <mxCell id="aHOeP1wYHEaDq_rcjLdr-22" value="DataRequest&lt;EnderecoDto&gt;" style="swimlane;fontStyle=1;align=center;verticalAlign=top;childLayout=stackLayout;horizontal=1;startSize=30;horizontalStack=0;resizeParent=1;resizeParentMax=0;resizeLast=0;collapsible=1;marginBottom=0;" parent="1" vertex="1">
          <mxGeometry x="-170" y="170" width="320" height="70" as="geometry" />
        </mxCell>
        <mxCell id="aHOeP1wYHEaDq_rcjLdr-23" value="- data: T&#xa;- dataType: DataType" style="text;strokeColor=none;fillColor=none;align=left;verticalAlign=top;spacingLeft=4;spacingRight=4;overflow=hidden;rotatable=0;points=[[0,0.5],[1,0.5]];portConstraint=eastwest;" parent="aHOeP1wYHEaDq_rcjLdr-22" vertex="1">
          <mxGeometry y="30" width="320" height="40" as="geometry" />
        </mxCell>
        <mxCell id="aHOeP1wYHEaDq_rcjLdr-24" value="PessoaController" style="swimlane;fontStyle=1;align=center;verticalAlign=top;childLayout=stackLayout;horizontal=1;startSize=30;horizontalStack=0;resizeParent=1;resizeParentMax=0;resizeLast=0;collapsible=1;marginBottom=0;" parent="1" vertex="1">
          <mxGeometry x="260" y="70" width="400" height="70" as="geometry" />
        </mxCell>
        <mxCell id="aHOeP1wYHEaDq_rcjLdr-25" value="+ savePessoa(DataRequest&lt;PessoaDto&gt;): DataResponse" style="text;strokeColor=none;fillColor=none;align=left;verticalAlign=top;spacingLeft=4;spacingRight=4;overflow=hidden;rotatable=0;points=[[0,0.5],[1,0.5]];portConstraint=eastwest;" parent="aHOeP1wYHEaDq_rcjLdr-24" vertex="1">
          <mxGeometry y="30" width="400" height="40" as="geometry" />
        </mxCell>
        <mxCell id="aHOeP1wYHEaDq_rcjLdr-26" value="EletrodomesticoController" style="swimlane;fontStyle=1;align=center;verticalAlign=top;childLayout=stackLayout;horizontal=1;startSize=30;horizontalStack=0;resizeParent=1;resizeParentMax=0;resizeLast=0;collapsible=1;marginBottom=0;" parent="1" vertex="1">
          <mxGeometry x="255" y="270" width="410" height="70" as="geometry" />
        </mxCell>
        <mxCell id="aHOeP1wYHEaDq_rcjLdr-27" value="+ saveEletrodomestico(DataRequest&lt;Eletrodomestico&gt;): DataResponse" style="text;strokeColor=none;fillColor=none;align=left;verticalAlign=top;spacingLeft=4;spacingRight=4;overflow=hidden;rotatable=0;points=[[0,0.5],[1,0.5]];portConstraint=eastwest;" parent="aHOeP1wYHEaDq_rcjLdr-26" vertex="1">
          <mxGeometry y="30" width="410" height="40" as="geometry" />
        </mxCell>
        <mxCell id="aHOeP1wYHEaDq_rcjLdr-28" value="EnderecoController" style="swimlane;fontStyle=1;align=center;verticalAlign=top;childLayout=stackLayout;horizontal=1;startSize=30;horizontalStack=0;resizeParent=1;resizeParentMax=0;resizeLast=0;collapsible=1;marginBottom=0;" parent="1" vertex="1">
          <mxGeometry x="260" y="170" width="400" height="70" as="geometry" />
        </mxCell>
        <mxCell id="aHOeP1wYHEaDq_rcjLdr-29" value="+ saveEndereco(DataRequest&lt;Endereco&gt;): DataResponse" style="text;strokeColor=none;fillColor=none;align=left;verticalAlign=top;spacingLeft=4;spacingRight=4;overflow=hidden;rotatable=0;points=[[0,0.5],[1,0.5]];portConstraint=eastwest;" parent="aHOeP1wYHEaDq_rcjLdr-28" vertex="1">
          <mxGeometry y="30" width="400" height="40" as="geometry" />
        </mxCell>
        <mxCell id="aHOeP1wYHEaDq_rcjLdr-31" value="DataService" style="swimlane;fontStyle=1;align=center;verticalAlign=top;childLayout=stackLayout;horizontal=1;startSize=30;horizontalStack=0;resizeParent=1;resizeParentMax=0;resizeLast=0;collapsible=1;marginBottom=0;" parent="1" vertex="1">
          <mxGeometry x="850" y="170" width="360" height="70" as="geometry" />
        </mxCell>
        <mxCell id="aHOeP1wYHEaDq_rcjLdr-32" value="+ saveData(DataRequest&lt;T&gt;): DataResponse&lt;T&gt;" style="text;strokeColor=none;fillColor=none;align=left;verticalAlign=top;spacingLeft=4;spacingRight=4;overflow=hidden;rotatable=0;points=[[0,0.5],[1,0.5]];portConstraint=eastwest;" parent="aHOeP1wYHEaDq_rcjLdr-31" vertex="1">
          <mxGeometry y="30" width="360" height="40" as="geometry" />
        </mxCell>
        <mxCell id="aHOeP1wYHEaDq_rcjLdr-33" value="" style="endArrow=block;dashed=1;endFill=0;endSize=12;html=1;rounded=0;entryX=1;entryY=0.5;entryDx=0;entryDy=0;exitX=0;exitY=0.5;exitDx=0;exitDy=0;" parent="1" source="aHOeP1wYHEaDq_rcjLdr-21" target="aHOeP1wYHEaDq_rcjLdr-4" edge="1">
          <mxGeometry width="160" relative="1" as="geometry">
            <mxPoint x="-270" y="450" as="sourcePoint" />
            <mxPoint x="-110" y="450" as="targetPoint" />
          </mxGeometry>
        </mxCell>
        <mxCell id="aHOeP1wYHEaDq_rcjLdr-34" value="" style="endArrow=block;dashed=1;endFill=0;endSize=12;html=1;rounded=0;entryX=1;entryY=-0.077;entryDx=0;entryDy=0;exitX=0;exitY=0.5;exitDx=0;exitDy=0;entryPerimeter=0;" parent="1" source="aHOeP1wYHEaDq_rcjLdr-23" target="aHOeP1wYHEaDq_rcjLdr-4" edge="1">
          <mxGeometry width="160" relative="1" as="geometry">
            <mxPoint x="-140" y="330" as="sourcePoint" />
            <mxPoint x="-260" y="149" as="targetPoint" />
          </mxGeometry>
        </mxCell>
        <mxCell id="aHOeP1wYHEaDq_rcjLdr-35" value="" style="endArrow=block;dashed=1;endFill=0;endSize=12;html=1;rounded=0;entryX=1;entryY=0.5;entryDx=0;entryDy=0;exitX=0;exitY=0.5;exitDx=0;exitDy=0;" parent="1" source="aHOeP1wYHEaDq_rcjLdr-17" target="aHOeP1wYHEaDq_rcjLdr-3" edge="1">
          <mxGeometry width="160" relative="1" as="geometry">
            <mxPoint x="-130" y="340" as="sourcePoint" />
            <mxPoint x="-250" y="159" as="targetPoint" />
          </mxGeometry>
        </mxCell>
        <mxCell id="aHOeP1wYHEaDq_rcjLdr-36" value="Use" style="endArrow=open;endSize=12;dashed=1;html=1;rounded=0;entryX=1;entryY=0.5;entryDx=0;entryDy=0;exitX=0;exitY=0.5;exitDx=0;exitDy=0;" parent="1" source="aHOeP1wYHEaDq_rcjLdr-27" target="aHOeP1wYHEaDq_rcjLdr-21" edge="1">
          <mxGeometry width="160" relative="1" as="geometry">
            <mxPoint x="240" y="370" as="sourcePoint" />
            <mxPoint x="400" y="370" as="targetPoint" />
          </mxGeometry>
        </mxCell>
        <mxCell id="aHOeP1wYHEaDq_rcjLdr-37" value="Use" style="endArrow=open;endSize=12;dashed=1;html=1;rounded=0;entryX=1;entryY=0.5;entryDx=0;entryDy=0;exitX=0;exitY=0.5;exitDx=0;exitDy=0;" parent="1" source="aHOeP1wYHEaDq_rcjLdr-29" target="aHOeP1wYHEaDq_rcjLdr-23" edge="1">
          <mxGeometry width="160" relative="1" as="geometry">
            <mxPoint x="270" y="208.5" as="sourcePoint" />
            <mxPoint x="140" y="208.5" as="targetPoint" />
          </mxGeometry>
        </mxCell>
        <mxCell id="aHOeP1wYHEaDq_rcjLdr-38" value="Use" style="endArrow=open;endSize=12;dashed=1;html=1;rounded=0;entryX=1;entryY=0.5;entryDx=0;entryDy=0;exitX=0;exitY=0.5;exitDx=0;exitDy=0;" parent="1" source="aHOeP1wYHEaDq_rcjLdr-25" target="aHOeP1wYHEaDq_rcjLdr-17" edge="1">
          <mxGeometry width="160" relative="1" as="geometry">
            <mxPoint x="280" y="110" as="sourcePoint" />
            <mxPoint x="130" y="110" as="targetPoint" />
          </mxGeometry>
        </mxCell>
        <mxCell id="aHOeP1wYHEaDq_rcjLdr-39" value="" style="endArrow=diamondThin;endFill=1;endSize=24;html=1;rounded=0;entryX=1;entryY=0.5;entryDx=0;entryDy=0;exitX=0;exitY=0.5;exitDx=0;exitDy=0;" parent="1" source="aHOeP1wYHEaDq_rcjLdr-32" target="aHOeP1wYHEaDq_rcjLdr-27" edge="1">
          <mxGeometry width="160" relative="1" as="geometry">
            <mxPoint x="640" y="370" as="sourcePoint" />
            <mxPoint x="800" y="370" as="targetPoint" />
          </mxGeometry>
        </mxCell>
        <mxCell id="aHOeP1wYHEaDq_rcjLdr-40" value="" style="endArrow=diamondThin;endFill=1;endSize=24;html=1;rounded=0;entryX=1;entryY=0.5;entryDx=0;entryDy=0;exitX=0;exitY=0.5;exitDx=0;exitDy=0;" parent="1" source="aHOeP1wYHEaDq_rcjLdr-32" target="aHOeP1wYHEaDq_rcjLdr-29" edge="1">
          <mxGeometry width="160" relative="1" as="geometry">
            <mxPoint x="810" y="230" as="sourcePoint" />
            <mxPoint x="670" y="330" as="targetPoint" />
          </mxGeometry>
        </mxCell>
        <mxCell id="aHOeP1wYHEaDq_rcjLdr-41" value="" style="endArrow=diamondThin;endFill=1;endSize=24;html=1;rounded=0;entryX=1;entryY=0.5;entryDx=0;entryDy=0;exitX=0;exitY=0.5;exitDx=0;exitDy=0;" parent="1" source="aHOeP1wYHEaDq_rcjLdr-32" target="aHOeP1wYHEaDq_rcjLdr-25" edge="1">
          <mxGeometry width="160" relative="1" as="geometry">
            <mxPoint x="810" y="230" as="sourcePoint" />
            <mxPoint x="650" y="230" as="targetPoint" />
          </mxGeometry>
        </mxCell>
        <mxCell id="aHOeP1wYHEaDq_rcjLdr-42" value="DomainFactory" style="swimlane;fontStyle=1;align=center;verticalAlign=top;childLayout=stackLayout;horizontal=1;startSize=30;horizontalStack=0;resizeParent=1;resizeParentMax=0;resizeLast=0;collapsible=1;marginBottom=0;" parent="1" vertex="1">
          <mxGeometry x="1061" y="360" width="360" height="70" as="geometry" />
        </mxCell>
        <mxCell id="aHOeP1wYHEaDq_rcjLdr-43" value="+ getDomain(DataType): JpaRepository" style="text;strokeColor=none;fillColor=none;align=left;verticalAlign=top;spacingLeft=4;spacingRight=4;overflow=hidden;rotatable=0;points=[[0,0.5],[1,0.5]];portConstraint=eastwest;" parent="aHOeP1wYHEaDq_rcjLdr-42" vertex="1">
          <mxGeometry y="30" width="360" height="40" as="geometry" />
        </mxCell>
        <mxCell id="aHOeP1wYHEaDq_rcjLdr-44" value="EntityFactory" style="swimlane;fontStyle=1;align=center;verticalAlign=top;childLayout=stackLayout;horizontal=1;startSize=30;horizontalStack=0;resizeParent=1;resizeParentMax=0;resizeLast=0;collapsible=1;marginBottom=0;" parent="1" vertex="1">
          <mxGeometry x="670" y="360" width="360" height="70" as="geometry" />
        </mxCell>
        <mxCell id="aHOeP1wYHEaDq_rcjLdr-45" value="+ buildEntity(DataRequest): BaseEntity" style="text;strokeColor=none;fillColor=none;align=left;verticalAlign=top;spacingLeft=4;spacingRight=4;overflow=hidden;rotatable=0;points=[[0,0.5],[1,0.5]];portConstraint=eastwest;" parent="aHOeP1wYHEaDq_rcjLdr-44" vertex="1">
          <mxGeometry y="30" width="360" height="40" as="geometry" />
        </mxCell>
        <mxCell id="aHOeP1wYHEaDq_rcjLdr-46" value="1" style="endArrow=open;html=1;endSize=12;startArrow=diamondThin;startSize=14;startFill=1;edgeStyle=orthogonalEdgeStyle;align=left;verticalAlign=bottom;rounded=0;entryX=0.5;entryY=0;entryDx=0;entryDy=0;" parent="1" target="aHOeP1wYHEaDq_rcjLdr-44" edge="1">
          <mxGeometry x="-1" y="3" relative="1" as="geometry">
            <mxPoint x="1020" y="240" as="sourcePoint" />
            <mxPoint x="1070" y="330" as="targetPoint" />
          </mxGeometry>
        </mxCell>
        <mxCell id="aHOeP1wYHEaDq_rcjLdr-47" value="1" style="endArrow=open;html=1;endSize=12;startArrow=diamondThin;startSize=14;startFill=1;edgeStyle=orthogonalEdgeStyle;align=left;verticalAlign=bottom;rounded=0;exitX=0.469;exitY=1;exitDx=0;exitDy=0;exitPerimeter=0;entryX=0.5;entryY=0;entryDx=0;entryDy=0;" parent="1" source="aHOeP1wYHEaDq_rcjLdr-32" target="aHOeP1wYHEaDq_rcjLdr-42" edge="1">
          <mxGeometry x="-1" y="3" relative="1" as="geometry">
            <mxPoint x="1031.7200000000003" y="249.31999999999994" as="sourcePoint" />
            <mxPoint x="860" y="370" as="targetPoint" />
          </mxGeometry>
        </mxCell>
        <mxCell id="aHOeP1wYHEaDq_rcjLdr-54" value="" style="group" parent="1" vertex="1" connectable="0">
          <mxGeometry x="1310" y="1040" width="514" height="257.56999999999994" as="geometry" />
        </mxCell>
        <mxCell id="aHOeP1wYHEaDq_rcjLdr-53" value="" style="group" parent="aHOeP1wYHEaDq_rcjLdr-54" vertex="1" connectable="0">
          <mxGeometry y="10" width="514" height="247.57" as="geometry" />
        </mxCell>
        <mxCell id="aHOeP1wYHEaDq_rcjLdr-51" value="" style="shape=image;verticalLabelPosition=bottom;labelBackgroundColor=default;verticalAlign=top;aspect=fixed;imageAspect=0;image=data:image/png,iVBORw0KGgoAAAANSUhEUgAABH4AAAH8CAYAAACn9WhtAAAAAXNSR0IArs4c6QAAAARnQU1BAACxjwv8YQUAAAAJcEhZcwAADsMAAA7DAcdvqGQAAP+lSURBVHhe7N0NXFRV/j/wj6KDKIPIyIPDgyAigqIghEJSJolpuro+pVam7qbtmj1arfx+rrr+/vorrW3Tfptum5Vpbj6spumKmhSGSqIoBaKipDyJgsigyCj5P+feOzAgGFrpiJ/3q9u999wz9+HMDHK/fM+5zfw6db8GatIuX76Its6u2hqRbbtQelZbIiIiIiIiop+ruTYnIiIiIiIiIqImhoEfIiIiIiIiIqImioEfIiIiIiIiIqImioEfIiIiIiIiIqImioEfIiIiIiIiIqImioEfIiIiIiIiIqImioEfIiIiIiIiIqImioEfIiIiIiIiIqImioEfIiIiIiIiIqImqplfp+7XtOXr3NfKDh90sNfWbsz0IzDrbCV2XqrSSshWXL58EW2dXbW1xgnXAUsN2spPKBefoDmlQOJlrYDoZ7hQelZbIiIiIiIiop/rF8n4mVxQifyrP+I3+hZaya/vf1/phxOv3Fww4/dPReLE/3bE77X128WxVQu8MaEr3poYhHZtWmqlTcPUYiC/ChjioBXcTR5fiKQDG7DscW2diIiIiIiIqIn5RTJ+Qk5ewnKPVsrypMIbpX20xsr/jUQUTmL+n37A+1ppDVck/F83uO1LQehHl7Syu98jYa544gEjii6YMW/NcZy/eEXbcnv8mhk/EQXAMhd1eUqJOv9pL2P9gUHopK0pTAfx1oOv4GNt1WLO+h0Y7qutoBwpbw7HlJXaqo0aPCgWERE9sXr1Bhw9dkIpu0+sDx0ah02bEvDt/kNKWWPMfG06ykwmvPt/H2olqlvZX5eAThg7djj2i/pbtu7USq837Y8T4e7uik8+WVd9/o3lOToeb/4uEl3dHJV1U9ExJP1zLuLXFCrrjcGMHyIiIiIiol/OL5LxI4NDgfbNkVf1o1ZyI5dQBj+MGaitWvn9U37orC03Fa5OOvTvbkBhaaVW0rTI4FAXHZDfmLdemLBsA9IOxODcmw8jtJfVtMuAl+pk3yhBH2ytqfPmMSBA29hEjRs7XAn2WCx4fXF10EeWy+2/FhmwemvRHBgMLrh69ea7bHo+tRCrZ/avDvpIercADJ75HrOqiIiIiIiI7pBfJPDT7FozfHnpKj4pu6qV3Nj3mWfRuUfdDBRXjOl9EXv21c70Ubp0/Z82WXXTkuVpT7VWlpUuXK+4WtWNxMogZVMtlnoW9e57YLfruoPJeglKoEpmJNW8xnL8hjRr1gyjojxQfvkqfjhboZU2Lc2uqWP7rLqoFdzI4wvxdEQJNvQajimQ3ax2IE1M69d/gPWYrAR2gqYsxAStunTi8JvakrDyFUyZoy0LMjAkXy+npGWjtVKZTbQBy5Z9oJZv/Egc5wNYvUwJPin1la5e1ttGY9lXDe3TUt50u4bJLKCXZsxRMoJuXhimjQiDXlurzRGRY+IRqa0RERERERHR7fOLBH5k967/PmvGkcpGpn2knMQeg1+t4IyS7XOyCLu0dZUreuF7dPpjophSsAd+eLahYItfN/Q6LOslYv4+IOqpnxrLp4F9byvCcSd3PFR9bqKe31kc2CYWB7oBG9VjdFp8Eujdvd4Ak8X9gc7o7qPH+r2FuNrIprnbyO5dcmDno43ovTZnZBjOfj4Zc2Qg5eUAZGpZP4fho1ZY+Qp2FodhuBaJmXP4FDr9pv5Aiwze1GQDLUVm4FSsr47gOCKy/ffKtphhm5Fp8kGP6m2j0TcQyPxqjbZuIYM+UxGUtVTb51ZkVpcPAj6vyToKerl2IOlmycyaP896CS88PwV/e3uekmUjy2Q2T58+4fDo4FZdZsnykXNZLrf/Ze4rcPcQn0Urlmwdub/X/3eW0hVMkq+VZXKS3bx+Pf3R1VtbrI93ZwzWFomIiIiIiOj2uUOPc7+EXeKuOmqIJfumtRJo2bO57tgeZxG30FImX3ODcX9Ofo84GZwR3k85gzInx5/oNtbQvs/iwMnWcNViETLYIwNSf5LL22qOgcyz+L5MW65HF2MbjI8xIvH7Ynx3ulwrvZeNhtFwCodlxGRON3TKSaoeq+fEuVM4d8yybNVWc7QsoJfrZtq8jOERQMo6SzbQGuzOKoer0ZKhU97wtscjEYRj2F13nCCl/CD+McUSEHoTU+TynEGIFOUbLJGelSnINLnA+DOzfpzbOuHKFTOef2EWsk/koGePYHy6egP27k1FYUGRknljPQ6P7PIly+X2P89eiDOFRdqWmjGF3lv6sbK/tLR0PBz7gFIeGhqCbdsSlfJjx04oxyUiIiIiIqJ7x88O/Mined2K9z86ieN+bvhfuTLQD1HFJ/G4mmJRi9I9S+taFd/7xl2rqmVeQs1tccMa2vefDlu6orXGyofaWAWk5ODUan3ZnSzqBvfQXT3bwNmxJX7b2wOrXgxFTFA7eLSzx18nBSE60FmrdXcr+BlP7jedO6UtAZ3aa6NDC53a14wPo1j5CmKqM2121M7qUQJC6vRShCP07S3Ruto+/uoYEBipdCFTso52XT+INAIM0BcXXl8u6cPwUnVXr6mI1Dui/c8ca6j0Qhm2b/9aWT558jRa6loqgy/firZt9TAY2mHatElKZo/MCnJo3Qo+PkacOnW6OoCUmnpYOa7UUIbQrfsSR05ri/U5fRxbtEUiIiIiIiK6fW4Y+Pn2chW+vHTju/u/n7/VJ1SdxWf72uCRp1zrBFdqyMBMvNtJrTuW7ML1yz3p64b7lt29ZFAqyBXdcEbJTrI8kcx1l9bVS3YPu0HGz870EsR/crR6+vb4BZwtrcTCDSdx4OQNXmgjUs3q2D03ssykLTTKGuQX12TK6LVAjBxnp4cBWiDlZfTw1bKC6pIBoM9PoVOPl7WCU9igdMmymkZYjQdkTWbpIAB9H7/B/iWDR63xharlWA0wrU0jGtqHcPbsObRoYacEZG4XmQ0ks3osk8wKsrOz07ZezzKej6z72p/m3dSTxup3EPGfHUT9H4lypHw2HynaGhEREREREd0+P5nx8/yZSkwuqH965HQFNpTfetqH7JKF3t0QVR1cqa2zW2uUFVlGDZbdwRqZ8WOtnsGapRvvW3b3ckWvIY5Kly71sfNt4Op0CWctiSoyKHSDjJ+Ll68i5+yl6unylR9RdQ3IP38Zl813x4A/M84DU4vrn35TBGy6yfGq5xwuQaQcvHnOZGwo1rJopgAbdpWg029kNo182pccA0gajWXraw/0PKeHJaPnTRzO8cHw9ZYg0E+R3b3EWzayG1xzvq9/fJ453+OEPgxPWw3ovEwuy3LfQVaZRj/twgU1/BEZGabMJdn1quLS5V8gwHI9eTznds5KFo81mUnk6dmhOpsnPLzHr9vVa+UrGLvgSxwpqumuJx/nvmXBMzb/CH4iIiIiIqKmqsHAT1f75ohwUKdrza7VO3Vo2ay6jv5WOo1l/oD/nASO7/pBC67U9qeF36Oot6U7Vne4Fv9yGT8/tW+lu5dfG3yfUjP2T9zGi4iarnX1esoRRTeRuPP3//yAlz7MxPmLt5ohdft0aQn0slena83qnzxa1NRxFOuNUh3w+QAYoWXPPPgKPpZj+SiZNMOtAgRrMOWwfMS7pYuV9mh3LatnzoilSDEMqt72U0/bUrp7+frgrPVTwmp5EyN6bcXZiKna/gahfb4c70eUv3kQrkpgSpu+qh2QquvosRPYtCkBPj7e1QMry65X69Z/odVo2PHjJ5UgjmVwZ2s5P5yud3Bnmb0jx/UZOLBf9fGm/XGiUp6XV4AnnhillAUEdKru6vVryVszH2MfGV6dGRXzyB8Qv6ZQ20pERERERES3WzO/Tt2vacu1LPdopQR0GktmAMmuYbZMdu96Ft8h9KNfLoB0N7h8+SLaOtd9fH7DlrmoAZ3GkhlAsmtYo8nHqL9c99HfsuuWJduH7mUXSq/v9klERERERES3psHAT9NTM0ZP9ZO57hE3G/ghupMY+CEiIiIiIvrl3EoHrbuM5UlckYgqtnocOxERERERERFRE3cPZfzcu5jxQ3cTZvwQERERERH9cu6BjB8iIiIiIiIionsTAz9ERERERERERE0UAz9ERERERERERE0UAz9ERERERERERE0UAz9ERERERERERE0UAz9ERERERERERE0UAz9ERERERERERE0UAz9ERERERERERE1Us67Bkde0ZSIiIiIiIiIiakKY8UNERERERERE1EQx8ENERERERERE1EQx8EOwGzEDobNnwNlTKyAiIiIiIiKiJoGBn3tdxFwMnj4S4f1Govc4rYyIiIiIiIiImgTbH9zZzguuwY/A37M1ml/MQlrSNlzSNt1OXX8zHc8+EYOefi7Q26lllaWn8O3G9/Ds31LUgjrsRsxF9Ogo+LvqYSdfU2VGRclJHFwZj8yN+WqlO248Qt4bCkNpMvb9aTEqtFIiIiIiIiIiuvvZcODHHq08H0XXYC+0lnlJzcR0hwI/Ty/+BL+/3wP2l0pwIucHnDx5HvaenREU5AODvRknPp+DEXNqB38cXv0Uowb5QmcuRm5GOk4V2aN9j+7o4qGHuTARm8bNRKlWl4iIiIiIiIjo12C7gZ8WfREc2wttirNwNL0EHg9FwXCHAj9957yDZ+12Ys6sjTiilSmCH8fHf5+EHrpj+HjMH/DWaa3ccwZiPxoJX+QjedZIZO7RygW7QUOh27qpVmaNzAyKGRsFX5kZJNarLmQh6fWJyK5+3XhEb5qOIEexWJWFnU+tAmZMRXSIEQ7iBaX75mPdnzZBN3sdnuxnhCltMT57UdTR6F79FOMH+eJSdbkRQZ+sQ7T1mD6nNuGfT83XVqxFwe0v4lhhgTDI4wsVZ7Ouz1rqPx3hTw1FiKea3VRVno/0ldORutpWMpuIiIiIiIiI7j22O8bP1d3ISlyBb/dvw4VKrewO2T3nOYzVgj5dH4hBpLdajoyVWPJNIWAfgMgxWpkU5QuD1h2srqo6QR+ZGTR+ehz8HYpxNDEBaSdNsGsbiH7T5kKn1QFMOJW8B/nyhWIyzv8vxHY2I+eUSRQUI+erTUotc4VZmbd2NChzhedU9O7nC7uKdOxeZAkGdceFwwlIThDHO6W+pujENmVei+d4RK57C0NjAqErT0daQiIyTxbDzqU92jnptUrC2CUYGT8eoR7inPYnIDU9H1WORoROmAOjVoWIiIiIiIiIbj+bHty5qvK8tnTn9X3170j6dgdWvz0byzbuQNqX7+ClPkDK4QLI8Itn4Gi1orQ2GTkXxNzOiOj5ezDmoyUI+v1QJZunlkFvYbDsDnYhFZueGYfkubOROvlDZJaLbZ5dYIkvAZuQu70SLRzEomMgfM2bsGroOORX6YGSo8jeqtbCqWIlqGSnqwnKOE8bii7idfmJS5GfpxUiAflvzEbmgqXi3GV4yYQz6anqpmrh8J83FSEu4rUJs/HZuClIXTATyZOHYMVTU5C8Ikut5jkdsZPC4VyVg6Q5Q5D4p9lIe2469stjOfjCa4RajYiIiIiIiIhuPz7VqzH6xGPm2ADoL53C7i++xM6scsDZB139xbbVhTgrZvr2PkpV1SqkTJuNnftyYKoS23zCEf14PCZuW4eQYZYcGCP8R0TBGWbk7P4cFd3ioI+Tk0ENEFVVQry0Rj9fuMn5hVRse3oRKhAC0+EEJG1YUzNW0FXlvxoR8YiKNACFiUh8o25gRxoJb9ndqyIHuevVkmpPTkVvPx1Qsgd7FiRohZq8mu5bztMHwldUKz64CQV6yzV0h72y1YwqGcQiIiIiIiIiojuCgZ9GiPxtMGR85MgX8Xh21ny8nFWibriRvATk/GkcPnt4JFYs3aRmAOmMiBw2Ud2OkfD1k3MdfB+dizEzLdN4dJFj6ZwtgPXoOEY/NWCUs3M+ipWldBQvno2jK6wGENpTrGQfqYwwThoIo50J6etm1upeVm1UoNolrTCn1rEkQy9fyASj0qz/3GAQ6jj4B6jdygy9p1tdw1yEKwGlfBTUiRkRERERERER0e3DwE8j3OfhIv5fjrK8QrXgpuTDvHo+dibnqKuW/l6WoEtJujLWTt0pceNaqKPvSCPh5Sm7ZOUjf/0NBkvO0wZDcjHCMGgGooJ1qMhYh5S1anFd+l6+kJ3Cin64fnwfg4vaXaw070aRmwi4yaapyEFaPdeQvH7TdQElIiIiIiIiIrp9GPhpBFd9zTDLP6n/VBiru3NZRCGoh6+yVHRcC7L8qM5kQKlggRxvR5s+XqrMs1dbdc2KiIB7WzEv+QG51eP01CcHF7SuVb6yG5k5B/uWL1ULrmNEB0+ZrVPf+D41dG2sr0UsWz8JTFAuQ1eJ0o+trmGBuAa5/r466DQRERERERER3Rl27V0952jLNqY1WrtGwLmtN9ro3dHWwxn2P/6Iy5V6tNK3wZXy4prYya/MJ3YEooxA3rersekQEDloNIb665C3R6ynR+OxqQFodyYN710eheGvDkeP6N+iU/9otA4S5z9kPKKen4Cu7QHzyU3Y/PJn6jg8mc5oO6o3XMX1+T3SG7ouETCOmY6YKRPg0TYBJ1PUTlv638+F/6BQdHVtDXNJEcoDQ6FrnQRTtrK5jhB4jxf7dDDCVRzvXNJfsPfTXG2byuHJeAQ8+jBcYwaiS08j2lwrRklZNzjGRKD55WRc1FJ0TCGD0dNPD32nwfAIC0bLhx5D1LPT0TuyHQ5vSlYr4RLs+g9Gx3btYez3MByDesAwfCr6PD8V3XyLkLnjqFaPiIiIiIiIiO4EGw78uMM9/GF08vaEQQZ9ZFGLNnD2kOttUH48o/5xa34F54IexOPdO8CplR3OXA3D5Mci4Aw7XDiyEv9uEYcJj3ZEs+NfYvnb7+JYuQ/0nTrA3egNo78/vL3c0bIiB0d3vo//vLbMqvtWOk6faQfH4M7wcDfCQ9R1bQeUHNiAPR/thFmJ+4xHxNzx6OXZWnmFnZMR3v56nF36Gc7VDOZjJR0Oj/weHcV+mpfswX/++E9c1rao4tBz9lTc112cl78RbWS+V3M9XOV5+rdG0cfrUKztt+rrQzgTFAkvY3u4GH3h3aEdrpxNw4HNK1CcqY4yBBSI5Spc6xEIo4c73Hz9YXSxQ8UPX+Hrvy9FhaUaEREREREREd0RzboGR17TlqlBo7Hsy6mIdFbXKnO2YmflIMRUrMSSwljMfMQDR1Y+jLFvqtuJiIiIiIiIiGwBAz+N5R2G2AGh6Hrpe+xcnYIjjy9E0sthyuDIKD2It/q/go+VikREREREREREtoGBn5+h6wOPI7ZHCb7duBUpp7VCIiIiIiIiIiIbwcAPEREREREREVETxce5ExERERERERE1UQz8EBERERERERE1UezqRUT3pIkTRmhLN/bhx+u1JSIiIiIiorsPAz9EdE+SgZ/3V6/W1qx1QO8YI3KTUjFo7FgGfoiIiIiI6K7Grl5ERFLMNPzz3zvw3d5/4Z9/fgIDtGIiIiIiIqK7GQM/d8hIl1FY6DkKz9trBb8Qr9ZxeKfjKDzTUisgshWeI+E7ewGCnozSCmzLjKcfQ+8OOpRl78UX2/ciUysnIiIiIiK6mzHwc4eE+ffFkIhwhN4gQPM/972NzGFWU+xUTNK21c8Xr4YNxoDQvni++2Ct7A7rMKP2NQxbgOWO2jYSAuHQL1xbbtocpk5CbL9+iH7qOfhrZbbESQnC/oAdj7+K1974F/YppURERERERHc3Gw782KOV5wj07P8coh8R08Bp6NV7MJzt7bTtTd/B7N3YvF9Ox3BOK7uxHKzNPITM08ewOWuXVnaHnU/VrmE30kq0srvOeERv2oPf7aqZJm5LwNB35sIQqFW5JfEYtOtDjH95EgxayS3rPx3RnyZg4g7tHHd8hfGffYigET/rBH9RFVu3IS0rB0d3rkW2VmZ7dLD30haJiIiIiIiaABsN/NijTcCT6BXiBd2lHOQcOoBTZyqha9cZwfcPQ9tmWrUmbl3JWrySJ6dcXNDKfsrXJcsx4sC7eOVShVZyh13epV2DuNm/rJXdtYqRnZCA5MRUFFywh1tIHIa/8ym63OmeS1HxGPTaeAR52MN0KhWp4hzTMs7hqksgoqfOgX+wVu9O27MYqc+MQ9KCdVqBbTlxrlz8X4/2Meo6ERERERFRU2C7T/Vq0Q1urhdRVJCjFdjBOeQZBHva4WzqOzh2Viu+TSZ1WYBXg65gb9JetA3pjyDnFsDVCuRmbsSkE3uRq9WT3bNGGiuwd+dMTJL3kT9Vtj8DXsHh8GotCs1lyDzwAUacsVyzxTBsHvYQ/Msz8cbOpViulVpT96etSPm7EPTtRm3FmgOGtJ+A58OC1GMKlaVnsO/7tZh37lj1dTRaswC8GjAKowLcoRdNgqqrMJ35HmsPr8YblbWDT/W1g7U+bpMwL6gbXMWOlMQuua+8vXg7bS1WWX9K7cKxsMcwDPB0qql37iQS0lfgvy+WqXUEL/s4zAt7SOzXQZynKLgq6uXvx8qMjfhbnXO7MZnxMx1BjjlIemgcjiplRrj99UMMDdWj6tQmrHpqPsyyeNRcDBwTBTcXPXRaclpFYSq+fudZ5O5R19VMn6FiD/U4uQn/nDxfWwmH78J4hHdrD2cHnVpkNiE3cSm2WQVP9PM3Y0yUAeaMD7Fi2lKtVPCMgz7wO5i+zNcKBFHm/9pz6B1sgIM8v3r2Z/hrAoaL65Jyv4jC16YleHhYOGQzojwVG4Y+i+KIuRi6MA5uFenYOngKqo/gKa7tE3Ft1uWvforfDfJVNqus27GOwJEIem0qevvoYae8tyYUH9+DpL/ORnGWWkV2jzP+ZQ6ievvCWTaLqFOUvgk7XlyMm3lX6z7Va+K7WzAjXIdDHzyMx5epZb/nU72IiIiIiOguZ7tdva5+bxX0kapgvlypLDW/Y2fthD594+BVdgibv8uFqZkDvEJG4R3ljvhWOKBPWE8gby+2HytGZUsnBPV+EktbaZtvQnW3sIwzUFupfg90mIb/uT8IXi3KkPmdqP/dMZxt4Y7eHbyg3urfDF/8T8RUTApyh648B1+L4399ohhw74I+bW5+dOm94sQrKwqRmSmvJRVpxVeg9+mLV3uKNtfqiJ1jYcSTGOLjBHNRJrZbjmkIQJxnsFW9vlj4wGD0cW+Jczmyu9le7C24AJ1nBAa4uGt1fo58FC3aowQ27HxC4OuplkJ8ZCurinE6PRHJCYnIPFkMO49wDJzxFpy1KkA60mXmUEI6SuVqRQ7SlPUEJCZsU2qoUmGuMuNSYZa6fV86is16eMU9h9hpNWGjygr1Hdd5hsBo3bMrL6F20AdR6DL/v9AvxAAUysygPcjV9jdwRs04Q6Z98lg5SiDL0W8ZBo8Nh8PZVOTIrnpmsxrg2v85cvLE3CEQ/pNlgWZ4F/EOiUs6nlwTDFLaQl6faK8bRWY8xyP69RmI9tPDrJyfaL9TZug7d4e3p+V6ZcBtMQbF+KJ1uWyXRBw9aw+30PEYunC8VufWZJaaxP910Lup60RERERERE3BXTS4sxucXWWKShkuKHfLd4bp2GqMOLgCr2QvwnOHzoiSFgjyilM33rSryD24BAMyVuO5jHl477i4K25mQJjPzQ/2W90trKBEvTGvVxxeCPWC/bVibN/xZ4zIFvWz38WAnTMx5Ltd1z3FyM6uORwcHJSpXi7DMcTYAjizF8999TamiuNPzViAyC/+gudKajJvGu3CcgxJWYRx2V9g3dm9WHlgF9IuAfYGP6tHa4cjyFXOz+Crb5fiOcsxt/wZTx2rybxC6wA1o+niMXxwWLxfeasx6cA8hG79i2ijuhlVqlat7GFvr2XWNEZeFi4omUsGtLd099o/G4njxiHxxZk4mrgL6auXIr1QlLt0EJ9gi03IXTAbmQtyIC4PqCpGjrI+G9mrU5UaFvl/Goetk6cg9ePPkfPlWuxMSEcFdDB07qfVAMwfrEO6DMq0Dcegd7/CyE+XIXz6eOgswSiLJychwkeHquPrsOqJZ5G24CVse2Ydcqp08Ip6vDowZV69CJn7i5UAonNwCOzSFuOzp57FaXmt5ecgwyMyKJWVJUM7OnQIqQm4GIP9YCc+gae//VArEbYuVa4tc8F+XKjSyuqhnzoeQW2BiowPtfObieTJQ7DiqelIswSwIqait8xGKtmDTSMnIlXUSRq3SBk/Sh8WB/8619yyZUvl89uqVUPR1A7oHfswHn3qz/ivqA5ivQQn9qtbiIiIiIiImoK7JPBjh9b+v4GvE3ApOxGFN0pp+ZUVldYEF/aeL1Fvgp1ccGu5BleQe6EmCPHeORlIEjewbX+l0WVdAtBJxjWKjmHVFbVIVYHcejr8tWypg17fRplatJD9uGp73ugF+SCk3Pxd+FotUl0T+9MWb4bsmrW8zwL1yV+DpmHhI4MRqnVHq5GKtPyrYu6OIXGzsN4/Ds/o3OF1rQyZ1tdw6TCOy4GR2gTh1YdmYrnnQxjfUnyAqkQ9tUYtMjDg5KRH27ZO0OluIvhTl+yq9EECJsoBoOfPxZiZ8Qj30LbdNCP005Zg6JY9+N0nSzB+ptjfiBBcF4bLW4WUkROx4YtU5Jfr4OwRgtAR0/HkRwkYOHOkVgkw9PJVXltckAV9XJw6dctCsew2WSswZaUqC6mLVimLBUkJSE5KV5Yl89bvUCTmep8ILWg0Ef5+ou0qspC9Qim4CeHwDZBDXJtxOtWqu5qUZ5W11L+Lcp4VhfmoslxDXCWKC83ix4QR7nXGW2rZsoXy+XVyclQCe9d7AFP+9Ge8/oeH0anqB6xf8Ae88B9tExERERERURNwVwR+7NxHICSgNapKDuPo8fqzNe4oO50SAPnZLlVo2RS/EnsH9TyrKrBXKfh5XB3UYFDlFTVg9fNYumY5wHTa8iSwQ/UMCH0G/31wKZZ/dwam5gYEdR+M5wfNxPbYGVjY2jokkopJSSuw+WQxTK3d0SdiGGYN/gvSoqbi1ZvvhdZI4QiZpXZVqjqbrgyyLLs4Zd/q08yenIOho+TYOibkyu5XSncvtQvW9bJQvOhZbB0ehX8+Mx/bknJQYad244p5Uq3h3FbtzOcWE48xMoikTJbAlAHtRymba8s7imzZpUswvT8bme9vUlek/UuRdUrMXbrAXya9jYpAB/EW1Orm1WiB0CuP+a+UsbkGObuo1+AQPNLqGuYiNlgG6/Ro20nZfBOOI2n7Dnyx5yjO2XfEiFffxtuPaJuIiIiIiIiaAJsP/Ni5j0av0A5AyWGkf5uIS7Y4FHWV+Ybj6jSao/4Wxtm5CZUV6nk2a2k1Fk7Drlwxw2S6qExXr8osm9rOVqhl9s0b6Ap2Mxy7wV9m95QewusHZNcs2XXtMM5ef1jg2jG8kb0AkVtfwIAvVmPdyTLxei8MCR+FIVoVRVUqXjk8D5FfvIAR2zbi68KrsHcLwqRu13fNu3z5MsrKTLhwoQxmc8Od5WqJCIFBCVYU48xaOR8IL9nVqCoLyS9OQZrWfSu/noGsG8OSoVO6bzG2/Undl6UL1g1lbULun8dhR5o6Zk2HXmo+WukFNaxYmqEFkWpN65CuXMPNyMfR72Ug1gBjVDj04nz1dbt5NVoWTJZ2uj65rFppiXoN5lN76r2G1C+VzdWuXLmqfH7LysrFe1xfy6Xiwzf+gtde/D1eSyoQP3A6oFOEtomIiIiIiKgJsOHAjx1adlCDPs3PHcAhGwn6WAc5HjC4KYGaynM5UDvD1McB9jd6/Hz1O+CA59vLri7AueIMZf6LO38SJ2QXL4+gOlkvDvCq5xyrqn5ERUWFMtVn3Vm1Q5eX9zA8oCxp5KDX2uJNq6yAlmACtPSDl0xRqnNuD9gHVO8/9+pe/Hf6YbVrWTt39FFKJQcMsa95klTm5V2YmnlMzahy9qy3a54MDFRWNjLoIwcZfjxc6XZkPp6MbLVQZTajwnIRnuPR3kUu6GBXd8ydRjJX1OTPOAR0gIyP1YqNRE2H75PWozpLRugd1TBiVcU5ZV58JF/JFtK3RfWYQsr0sRyDZ+mtZZutTFeye9wCJiEkUHx+y9ORcdPdvKRUnP6hWMz18I2ZqhZZVA/sLKTlQNbSuehQ/LHVNYjzz/x4EYrqjM9z5coV5fMrA3s/JchZtlc5ztpgUiEREREREdGtsmvv6jlHW7YprX2eQGiIK1pcLkBOzgW0dPRGG702tTDj0uWLWs3bI8zwMO53bQkn9/sxCK7oYxiKyd1dYS9uQ5O//QibtcyULs4Pim0OaHvtR1y84IrHgidjuI+MXlxF7smd2KjFFfp7PoJgfUt4eUYj9poB/b1HYUgnR7Qw52Lrwc348ke1nsoVQ32C4dG6HTrauaCH04N43tkeq0plPxvVSJdRmOwSjDgXL3RxFfu5chW+VR0R5+QOJ1OONq7NMVy9eh/6exjg76MeN8IlDn+OHIVJ+ub4qvAY1BBB45RdvIDA9hHwd/NCnFtXhFV5YajfSPzPfYPQ58Je/Oti7QwLS9u4Ovoj+FpXTAjoCdeCw1Du1a8YMMgvAK5tPdDX3h3Bjv3x54ge8JCP9LZ3RJuz32FdxUWEtp2KxbGD8XtjGPraeaCPUwyeDw+Hrw6ozE3FWwVZShBoiOcr+J8HHsYzbt3Ru5kRfduL6wwNQLsWgOnEdjxXUiCP2kgh8B7fG666Klw1BsIhdhTCn/sj7vNrDZhzkPzXV1GsRJ6c0fY3MfAQbe41IAx2IYMRNmU4OslYYXM97F2KcPQr64eYa/XbtodHVA8gfCjCpz2J1rnrUCT2V9E5Ft2D28PJ2BttuwfCMGoGHoxwR8vmEN+H1jhzbBNM+UMR+tYfcX/f4Qh69GE4h/dAm/vV8+vhKRpPnN/ed9/AeRmdST2Dy/0fgq93FwSK47b0D4NxzFRE/24qQsIr8P22dOWsdGNnoEsvf/h4OcOuyozL/hFopU9E2XFlc22mbDTv/xg6ehvhKq7TlLEO+7X9VBs0FUGjfwPXGD94+HpD31Jrx5iHau33cqYBbYeEwM0jFAH9w9AyKAadnn4NsRMGw+5CIgqyTEB2JkpCByPQxxeBcQ/DoUsPGIZPxH3P/hG9o91xbEOS+KY1TmjPIBz47jttDXh47FSEGszIS1qJz7XYa6/u3ZF2qL5RoYiIiIiIiO4ONhv4cfLrB1fZjaalHu08PGGwmhwqjqLw/C08NepnsAR+zuWIu1SfMIR1cIR95Rns3bsSvzfVPGZs//kfEdG+M/w9A/GgX1d4Vx7CutMOCBGvvT7wcwZfH6xAoLi57GKwR4uyXGz+5l3MrKx763oK+865or+7F7w8ZGDHgJYow8W872C5xX68+xQMD/RRgz6ywMGALkaxbnTE+axkWHrAZJZ+i/PlndGtvTs6eortbuLmvvwM9h3fje2XSsReb8Y5bM0tgK/OB95uRnTx8kFHJx0qznyPhB8O45uq2tex/9xF9HD2h7+bu2gfIzxa2sF0Zje2KgNNZ+ObInGNHbzg4Sr25WKPkuwtmPf9RQR38IFd8RasKr+KwspjuHjJT5y/Bzp5+aKLhytcxFlnZ+7EG5lbqq/zqLgmpysdEehhhL84L3mdrc3FyExfh+knU28qwFUT+GkNF39/ePsa0cbuEs5lfIXtf3kWuWlaNRxFwel2aBsRDDdxDUbv9qgq2Ikv3k2DfWgwnC+nVQdXVJb6gTB6+qr7vVqKojPi8324CPg2BYWBMfDxdoebtz9cW5Xi+IZF2GsKhI9vC5xbsQ7FJlm3FBe9jDB4+8Kzo3p+TrpLKD72FRJmP4u86kPmovjbfJzvFAgvHz94B/jDo31rXC5Iwf7PVqH0pJrz4/y7ORgQ4Q4Zc4ODO7zFNbcu+yeOf6NsrsOE4i4Po1eAHN7ZhBPrXsXpuglrI2Zg2CPhYj8y6CMLtHasu19TCnKyW6N5gC+8RHt4irmroxnnj6fg8OZNqJCpPuIYF7el4JQxFB7+os3EPowe7dH8QhYOrFuGgkylUqPUDfw8MnYSgpwLkPLSv7FLK2Pgh4iIiIiI7nbNugZH2uKoOTZnUpcFeDXIAdkpL2DIzSSLEJFNmjhhBN5fvVpbA/7yr68xomM5Mjeuxocp3yNtZyoGjR2LDz9er9UgIiIiIiK6+9wVT/UiIvq1Ld2UinNVjgga9nu8/qcnMEArJyIiIiIiupsx8ENEJOR98iL63f97/HHOX7B4zV5tXCwiIiIiIqK7GwM/jZRZ+AX+9p938UaRVkBETdBRfP2fHVi67F/Yp5UQERERERHdzRj4aaS9ZbvxXuUxfF2lFRARERERERER2TgO7kxE9yQ5uHNjcHBnIiIiIiK6mzHw0wjR0ZFITk7R1oiIiIiIiIiI7g7s6kVERERERERE1EQx8ENERERERERE1EQx8ENERERERERE1EQx8ENERERERERE1ETZ7uDOzdqhbceH4dupA9ro1KKqsgKcztyG/PNlasFtwsGdiYiIiIiIiOhuZLMZP606DkO3ABf8eDYLxw99i5xTZfhR3wG+kWPg1UarREREREREREREDbLZwM/lnBVI3rEU6enbUFSwB/kZH+L7E5eAZq3RxlGrREREREREREREDbLhMX6qANkJrVlr2Nm7oaW+FzzcWgPmApw5p9YgIiIiIiIiIqKG2f7gzo4x6PnQWNx3f18Yrmbh+6/XoLRK20ZERERERERERA2y/cDPlRycPvQtjh3JgblNILo9NBFGjvFDRERERERERPSTbD/wczkLZwv24GzO5ziUnosqOyd4+/XQNhIRERERERERUUNsP/Bj7dJFVIqZXQt7dZ2IiIiIiIiIiBpku4Ef+25oq68d4LFr54bWYn7lcplaQEREREREREREDbLRwI8vvCJi0S369wgNHQi3Dn3hFTIRvbq1U57qdeJ4llaPiIiIiIiIiIgaYqOBnxzk7l2PY6fLAJdAdO7ZCz4ebWA+8z2+/2Y9iq9q1YiIiIiIiIiIqEHNugZHXtOWqQHR0ZFITk7R1oiIiIiIiIiI7g531+DORERERERERETUaAz8EBERERERERE1UQz8EBERERERERE1UQz8EBERERERERE1UQz8EBERERERERE1UQz8EBERERERERE1UQz8EBERERERERE1UQz8EBERERERERE1UQz8UNPQfyqCZs+FW5S2fruNnYHQmXPhPzZcKyAiIiIiIiK68+6KwE/Ldr2gb2WvrZFtC4RDVKC2fLtMRMyMiYjuF4d+I0ZqZbeXMWYowuPi4GtI1UqIiIiIiIiI7ry7IPDTGZ49+iKk76NwbqYVUW3eYZgw7x188eUWpB3YoU57NmDnJ/F4zFur0wDDwgT8btceMSUgeqxWeKumfYiJuz7EqCf6aQW3SzpOf5+D3PQEJLy9Tiu7ncbD10cn5vnI36CWEBEREREREdkC2w/8uPaAuwNw+fRhlF7Tyqia5yPTsfqThXjp0WA4XSrE4W++xJbtB3GkGDAE98fMjxZiQkPBn6gFiI7Qw2w2ixU92vqoxbfKrbMRdmJedHKpWnDbpCLnlXHY9txslOZpRbdTRAgMjmJe8gNy78TxiYiIiIiIiBrQrGtwpA2HU1rDNfz3CHAtQ07ih8i/rBXfZtHRkUhOTtHWbIz3aCxZEIkTn7yJt/5TqBVKHhg8bxHmP+qB4q/fROwLW7VyCyN8//EpYjufQ0qSGZExvshPGImtC/K17YB+/maMiTKgdM9srItPUAtf/RS/G+QLU9pifPbiKlEQjpBPlyDSQ91cS0U6tj49BfnVwRAj9NNmoO+AcBjbygwZoOpCFpJen4jsPWIl7i2MnBkF51Ob8M+n5ivbrRn+moDhofY4+sGDSFoBuIn1oaF6batQnooNQ59Fsbaq8IzHoE+GiiMLJXvwWfw38HptKnr76GFnB+SsH4mdi7Vr9oyD7/RJCA/zhbM8vSoTilI+xKZ4eZ0W8hri0e+RcLjJYE9FPtKygNBQIypEm6xS2oSIiIiIiIjINth2xk+rKBhdxfxsFgrvUNDH5p1eg2efeEUN+niHIfaBAG1DIbbM2orDlwBDtxgM1kqrTZ6D6M46mNLWIb1cLdK7WXfRMqKDp0HMTSg4oAV9BGNHJYSC4uOWAIcBxQcTkPxlFkrlakUO0hLEupzWb6oV9HFbuAxjRkWhfVU+MhMTkZlngl3bQPR7cQGU8I2TTskYMpXkKPV9303Ak1u+Qr8X5MaJCA4UtUpSkb5Croeg6sQe9TgZaqjHfCq9dtBH6pCDownp2rnpEPL6DES0zUdOoRmoykLOekvQZzwi35mL2N7i+k6K/SaKfVXp4RY1FTFPqlUkw1+WYfiocLhBu4YSvRL0kc5UtwkRERERERGRbbDpwE+bjp3RBlUoOpWCH+EFr/ufQ3TMQLTWtt8prVrZw95ezVi5kdtWT2b9bN6CtI0L8ebbf0fat1vwxaLRYsNKnJBxDYMHIpWKFkMR/mgIHMxZSFm0CjhnguzsVdtIeHuKWVU+8teqJTVj2eTgdPVYNgnIf2M2MktkZzHAfDIRqQvEupze36RWkSbPwcMRBqAwEWtHjkPy3JlIfm0PlLCLqy86yLm7o/LemooSgYipCAnWQ+egg30LUfhkNLwdgKK0lWoQB+koXqwep8istkm9Xcz2r0L2GZk7JniGwC1jMVaMXAWT2G/Vye+QrQSmjPCdI47nYkb+1j9h3TMvIXPuFGxIlGenQ4ce2oDRg95CvxgDdOWp2PTMSPUanliFoxVyI8f3ISIiIiIiIttju4Efu/vg5W0PVJxEwdkqtcwGzrZVq1ZwctKjbVsn6HQNB2tuZ72n505CXyNQnJaELV8cRB508OykDthzolSm87jA+LiyqnCYOREhLkBR8lLkyMBHmRmVYqZ38VW2K0YFwiDTb/KOQubfKKrHsilAQZ2xbG48vk84QvqHwAFmHN0yE0qcRMqTR7XSxl7Zh7ksH84yqyYvH0UwwSROwNgnEA5VWcj4oO5Ts+Lg6yNDTvnIT1RL6nIO8hUtIoNS27BF67ZVsC8BiZu1DJ1BMxDeWdQ4m4qUND30cXHqpDVz1RWT+L8R/iOi4CyW8pPmo8hy/RGBcHYQc47vQ0RERERERDbIZgM/Lb27wdACMJ3OgNneDS3tO8BBPtG9mZ1YbofmfMKXZhJiuuhk1AeLJ89F/KwU5F3SNtXHczqi+xlhV5GO9D1akMOgg0yqsabv5atk8JTm7VcLpP6+cBMz06n9kKGQGnHwvlHwxXMgvGT2UEUWspVuWpoRRrWLlwwkiZmzq9q1zFQwESE9DMjJLYCMqaDFDAQF6lCRkahl6FjxjICbi5hfKMBpq1OtEQ5vL3mUYmSsma9lNqlZSjkb1W5e+pguSkAHrlEYPnMuxlgm0U4Qryg6Lru6jYSvn6yUj5yVWvcwSWuTiuvahIiIiIiIiOjOs9nAj5OzkzLXd/kN7ntorJii4CqjE607o9tDI2G8Q/29Ll++jLIyEy5cKNOehlW/21avjw8MSv+oYjSmp5FhxlD4ykwWhxDEWgIcY2U2jtDWqAZAGj2+j8bz/hsHX6JqAjxWIRM4R2rBpWO7lKCJnRJ9KobJsx/8kY7MNKCFWD/v2h3edsXI2vqhrFDb8C5wFzNznjaOz3UGwigHni7Pwem641tr1Gs1I3+fNjZRrWkV0j4Qm0doGVDlBTXZPoKlTTi+DxEREREREdkimw38lOV8i2OHrKccNaPichFyDh1AyR0c7Pny5UpUVjYcpLG4LfX8HaGGyBpBjlEjn4J1IQuptYIbWtDETvlPqGd8H8+p8PeTESPr8X00wzuqwZdCbYDnhtjplC5Xiqh4RIUZxItykLZWHQvIua04t/JKGPsFwnR4E/J9DHAQr/CNCIRdyVFk1xO4MfzUI+Qnqxk5VeLcitSS61QpPQl1MOctVccmskwfy/Wl6ufO6puitpEQNQNBDbUJERERERERkQ2w2cDPldI9OFtgPRWo3XSqzqO04AAuacP+3PNWFuKsnNvZQ8ZqAEe0qo5MWJhhLg1Hl7FyjBozjn4ejzTrAMeCHCi9wxwNWsaPHjplH3roR8TB8PsFGPjeRHRRxrK5fnwfC53fQMTMnovQv36KoX+drpUKe3JQLN8vj2gMfe8tBP3vhxg5ZyiMOhMyl7+MbC1LSD5eHXZ+MLrk4+jaTdA764GK9mjnYz2oszBsOoJmzhXTAoR2ljlDJsBJrs+F1yC1iuzi5fbCXIQ/GKgEm0xV7cX2GTCEqFutnT6SA3l6vkOWYeBfFyBo9hIM/Owr/O6dGVp7CDnF6thEjiGIEdcgr3HMvJHw/Yk2ISIiIiIiIrqTbDbwQ42VgXz5DHNjMKaN7Y/H5sci0M4M6ByVJ3nplaeAleOc+1RE+ABVp7Zh3wfWHa5qU2NGHyI93YQqOyMip8/F4CG+OLUzVcl8uX58H+HdpUjKEvV1BnTpF4fQYAOuVphrsnvyFiF5TSqKynVwDoxCdO9A2JekI/HtiUhebTmX8Wgvu4s56GB3fA/S94tLEMtyve6gzr5DxiM6Lk5M/eArB5uGHl4xcj0KPm2UKsq4QuHDxLkoTyGDOK7YHu0Lu3RltRbzG3OQkJQDk50BXqH9EB0TAgNOInnl0ppg0/6l2LcnHxVV6jWE+gHpm2/QJkREREREREQ2oFnX4Mhr2jI1IDo6EsnJKdqa7Ymc9QEW/9YHcuxrGeRJWZ0B/9E+2PfmTnj94XH0MKcgfkA8tijbiYiIiIiIiOhewcBPI9h64Efq+sAwxPZwxJG9O7FzfwfM+ez/Ybh8RDnMOPHv/8KIeQfVikRERERERER0z2DgpxHuhsDPdbzDMHxYKFwP78Y/vj6mFRIRERERERHRvYSBn0a4KwM/RERERERERHTP4+DORERERERERERNFAM/RERERERERERNFAM/RERERERERERNFAM/RERERERERERNFAM/RERERERERERNFAM/dAO+eMZzLN5p3xNeWgndRfpPRdDsuXCL0taJ7gbew/DS67Mx/+lIrYCIiIiIiH4OBn6oYS7D8UxEHwy4fyRmtdbKbgc7Lwxo4aCt0K2ZiJgZExHdLw79RozUyupnFxUFO22ZVGyTOyf2+ccxYUAMBk95BjO1snoFRyI2wkNbIQXbhIiIiIjq0axrcOQ1bdnGeMErZgR82mirVkyZq5H+Q5G29uuLjo5EcnKKtnYPadYTC4MGwL8yFW9n78LXWvGvqsMMZEZ6ifd4BSKPpmqFt4MRXT5ahxgfbVVTVV6MnOTlSFywTiu5W4TDd+EMBNofxb7XZ6M0TyuuZTpid4yHrzkdWwdPQb5Wagv08zdjTJRBW6utdN98rPvTJm3tl2a7bXLPeGAqlkzpDaeTGzFz1kbU+9Gd8wHSfuMD0/6liJmyRiu0BS9j/YFB6KSt1XYKG3pNxhxt7Rdns21CRERERHea7Wf8XC5CzqFvccxqyjlz+4I+97Rrh/BKxiKMuF1BnztqKNxd5bwYRxMSkJyQiMyTxahyNMA/7jn0m6pUuoukIueVcdj2XENBH2FsINxlWkthjo0FOMLh6yeDPmbk75PvhfW0Dklrf62gj2CzbXIP+Xopnn1iMiY0FPS5K5Tg8BdfYov1tGYrtmhbiYiIiIhuJ9vP+EEW0pK24ZJWeifYfsbPMGwe9hD8T+/G3y4EYHJXd+hbAJWlOViX/DbmXdGqOU5FSmwQ9HL59C4EpZdheXgc+rjLblUV2LtzJiaV16mnsNpm0WIUtg/uC6/KY3hv27v4m1aMZuJchopzqTiGv21/F++Joj5ukzAvqBtcxUnZy5vqqqsw5e3F22lrscry6dMyfeqTve8FDCnUVhROeMZvmnqdOrF6tQK5xxIw7+jPCFCNWoIx08KhL9mDz0a+BJNSaETQJ+sQ7Qnkb43C1jeUQqD/dIQ/NRQhnnrYieupKs9H+srpSF1dEypQM1b0OLpxLap6D0UXD1FXlJemfYhNLy6FWa0mGKGfNgN9B4TD2FZejNjfhSwkvT4R2XuUVVXgSAS9OAlhfgY4qNVEvRzs+3gOMtdnqQWC218TMDS05p1DeSo2DH0WxdqqpJu9Dk/2M2pr1sw4umIckj6ouQ67EXMRMzYKvq7q+dd3rXj1U/xukK+yWLpnNjbsvx8PT+gHL3k9VVlIfEpcS4cFGLqwH9zqnk/EXFEep5RveuZZFCl3+lrWjfju73x4InKUinWJ9po/A5EhRjg76tRuWVUmFKWI9o1fpdSw5vDkAvQeGm51HbUzuWy/TW7EKsuk9CAWPLUbPd+chMGdHZWtJz5/GCMsaSbe/TFz7jMYHOICvTz5ynKc2LEc062CLBOWbcBLEUDKRzvhNGwQujrLcy5H3jcrMeWFNbWCMV2fno3543qjk6wjVJaews6/xyN+jfUXNgCPzZuJZx/2gd5eLak0FSJrxxrMn7cRR9Si6oyVGvVkyFxXp8aJf4vrnKetSMGP483/GY2+3o7qz516rhWPL0TSy2Hqz7rjWxG6pBzLXh2GSKO8nnKkvDkcU7Lj8cX/9YfnpQz8o+9zeFfWlbxFu28U7S7K3xXl/1AKLe/FjbN7Il9eiNmPdkN78QNM/Zlohunkbix5eT7+dVqtY9F1bDzmT+lb3cYwleDI1ysxR1yH0na/cJuo77/22RGvf6tsIWaODoOn7O5rOoi3HnwFH/e5mTZR9RXn+aY4T/tisY/JYh91rpOIiIiIfj13zRg/zVu0Q/Nm2grVz6svng9ogezv9iKt6CrsnX0xvs+TqB7h5fIhbNp/CNmXxXIbL3zaZxj6tCnD3lNlouASzJYAkVJvNzaLKa1EK6vrahLSzoh5Kz/0cVGLFK5+8BfvU2XeISXoI+2tFOsVhcjMlPtMRVrxFeh9+uLVnnE1g0afT1WOt/mEPBdRv+CQur4/AevOKUUaB0zqMgPP93CH7lIOvt4vrrWkJbyChmFRQLhW5+bpunVQbv5Mp/ZrQR8pDu2VaytGUbpSAIxdgpHx4xHqYUaOOLfU9HxUORoROmEOasIGRnTwlBkrOnQZMgpuZ8U1pxcrwR7n0JEIHaFUEoxwW7gMY0ZFoX1VPjITE5GZZ4Jd20D0e3FBTeDNczyiX5+B6EA9Kk/uqc5GMovj+gZ21CpJIag6IbcnIDlDDSOYT6XXCvpI9qdTlTrZF+SaGbl7LNk0q5BmFeBwePVTjJ8eB38HE7L3JSAtS2ZAiWudNL/WYN+6U2J/2vEuOfwGI//YD46FJ5EvLrjq5HfIlneU+024qtSwZoRxUj+4iXPI+c/8mgDH5BAY5U1p4Q8NBH2kVDg46FCRl440ce6paTkordLDLWoiIqvbV5JtvBnjJ/ervg5Z16QzwOCmBm4km2+TG8rAzi++xGF5OL0jHn1jKgZ7m3Ek/RTEVw/m6g90JOb8bQYeCxUf6vyD4jUpOGF2RKdHp2LxrDCtjoUjIp8aBs9zadjyzSnxnXCE5wOT8ObLVuPHPL4Q//hDDDrpzTjxzZfYub8QZmcfDH5pPuY8oNURIufPxsxHfaA3FyJl+5difxk4V+WBHg/1RaS3Vkk6kKRlx4jzaijSb6mTrv5gqsxJ0V6zERu2K0Wa0Vi2ZBJifR1hPinqbD+IPMu1zrEaNDpbvl47XruO+HjWaETqxXlmyf2bYS4Vs71bcUR+BFr7oOfjYm4xprMSbKs8uq9WgKMxUsquoLK0EFl71es9fMYMfef+eEm8d55aHcnzKdHGr/ZHJ2cz8vaLaxfXId+zrmGh6GRpu1+4TY58s1N5z+Vnp23ndzD3qTA4FR3EEfn5Ev9IKD+Ob6FNHu7hAyXuZwhAX6vPBxERERH9+mw/8GPvi24DnkOfh59En4HPITTkPrS6wwGgVq3sYW+v/fX1Bm57vatnsHnnPIz7YTXG7dmANHkz4xKAIZZxkq7uxby8wzgr7zZFeahdJt74cgEmFcpgSwXOyt/0JaXeWrwiJiVIVK8zWJcvIz8t4N++JuDyvJu8/a1AZt5utUC6sBxDUhZhXPYXWHd2L1Ye2KWcm73BDwO0Kri8SzneK+fUwI+59LC6nrcFy63vjls8ivFdnYDSQ5j31duYmiev9Z/4Wtyg6QNiMKuez8ZPt68Rvp3UsM2FonPQx8VBP2Iqwj+ZhC4OgCltFVK3io2e0xE7KRzOVTlImjMEiX+ajbTnpmO/vDl38IVXdcBhJLzl3VtVPlIXj8OG52aKeqKukgShRzvLH+cnz8HDEQagMBFrR45D8tyZSH5tj9rFyNUXHZRKwrihCGor2iRrLdY98xIyF4h6k4dg1VPjsHVBglZJSkfx4tli+2wUmdXrLTq5VJlbM30wX9Q5Bzv5R/2KLKTHq6/JXLC0JugVtQAPD/KFriIdW58ZiSRxranPrEK2zPrSGeEzSq0mmVcvwgUtTGUM9kX2++Owbn0JWotTOH24JvvmR/k/B8eagNagGYgK1qHq1DYkvVsTXNF3NkKevelsvvpeWKaoQLWCJvvFkdj2zLNIT/wG2VuXI0MLkrSw+qmmm/EmBoo2rspLwGfadaS9KM5v8kise/FDVGn1bL1NWrZsCQcHB/FZbqWVWNuKd2fNxwl5onYB6OFbiA2vjcHYBBlsLEeZJfnm6ScwyFecQNZGjB32Cl6eFY8RT2zEkSodOj0wGsO1ahZyrJixY+IRP30yXt4ud6JD196Wu3wPzBmpZsocWfMMRkyfj5enPIGZX5aIL7YPBk2siQbEdlaDRXlfz8CU1+aL/T2HR/s/gbHPvlk76+Pz5YgX1xE/6yDOWd6Yuix1Tqrph+ZzB7XXLMbHe5UiheecQYh0FgvyWuU1vPYKHp2VhGJxDZ0efgJPq9WAvWuwwHI8QzB62B3EW09MxpQsuf9ynPtCVjqIf30vr98R/vf1lwWKaT1k0NWMrD0r1YJadNA/2h+Draa+wdom6R+i7UdMxoTpH2DD1zuw+u87cVj+TDR2RqxWBeiPl8bJNjbj8D+ewaNT5irXMWLAZDz6h7nYYmm7X7hNUj5ajPi9aqDaEBIMnfwcjHgFR+Tny1SsdVe7+TbZcVgNJqH4GHY3/b7DRERERDbFhgM/4pblTC7OnjmNvO/k2D6HcVb8YtzaMwpdO9XfJeh2kDdeTk56tG3rBJ1Ovbmuzx2pV1mCDEvWDnYjW/61Gk5wrb6rtHYVmZkfY7nsaqVk26SKX+Vvzt6CY8gVr9d36KFlFfVFnw4tgEu5+ErJnFB52cdheZ8FyBy2AMsHTcPCRwYj9FafEubqCy+ZUVSSh0r7AAxRpqvILakQd8fu6FRnMPDGta9lfB9xrnFzMWammKZPRKiLCdkJi7DuRfVG3Xn6QMj75uKDm1CgtwQkuqt/xRaf1yr1vgsYFQiDTCXJS0XaRsvNu0EcX85NMOXKeThC+ofAQbzu6JaZEGevyrNE36xUVCoBCl3gKIz8YAm6PK49cSqvJjBQWxx8feSbno/8RLXkOj8xlo1xXDTcxLxoz1Lk/2TWyUh4ecqLMyN3+2y1y9PVLKQnrELqesvec2CS7WNnrwR15PV3GRsFZ3Hbmb56vnilhWV8H/G5Cp2ovhfaFDfUKrup/3REf5qAibv2YOJ8dXu0nyivEte8Vq0in2zWu7+vOJ44xsrZMFlfR31tZ7NtIgM/LaDXtxGfZUfxmdb6SzWgeP8azJE31ko2y07szlbLJ9ynZlzk5R1HT0tAosdx5Mn4rcEDoUqtGmfza7p1pXxfoAbA2nvgMaVkEDrJxsApHHnDElkSP3UO/qDUs/fuhsFqEXZqmUeej3yAnZ/Mx8zJMYj0LsSRjJrX/dKG+6nBphNZi2u6dX2dgWx5cq09xPWrRXUd+Y8WjFKyaJKQphYj5d/HlP0YOotzV0pGo6f8YXDpOJLqTffxQOy8eMy3ml4ao20SPB+ZimWbtyDtwCdY9rrcPgw96v5M7BODrrKNxTH2/d26rQqRdwvdpG6pTaqOYcs89XOQ9uWX2PJlhlou3Gyb7J4zGb17PYzQAezmRURERHS72XDgpwilR9fjWPoW5BfswdmCRBxL+R4XxZbWHoGo7+/e1IB6M6QKkXFGCzco2Ta7cNPPrbr6BfYViLmzF+LkHaVjN/iLmxfrbl4yGLTwgcHKOEKm01p3Lkt3s1sw0tFJmdt3GoyFj8ggkjqN7yTHKXJoIMj1E0aFoIN8eXkWUhP2IF9plmKkLR6ijAGjJh/EwT9ADUgYek+vFZAIl9k9Ffko0JJv9L18lUyI0rz9aoEiQu02ZglMeA6El/K6LGSvkNs1I4xq9kdJAWTTKt5dgE0JWSiu0MHZLxwxv38LE7etQ/jY+sakETwj4CaPdaEAp61PwYq+h69oLfEt+2GbWlDLePj6yVBEPnK2Wj9ZTVyXzIipFVwRIiLg3lbMS1Kxb5FW/8ulOLpgccMDS4+ahFAf1GRTVYuGmwzCya5vSlermmlfktbAg+Zi6GvjESTuY8+kJarb9+WogZKzBTVBm1ER6vtachRHax2jfrbbJjejHNl7tRcr2Sw1WR+ezuq4LZ79X7YKSLyMWOVj5AKjdZedhtiJ756y4ALHGwVvdS3RXltMEceZuzJFyUgyBEfisWdnY9n6DVg/b1itbk2/JFdl8K+G6KCTmS/XsQpiKVk0y7FBXRNt+bnatckYgMf6iPnjkQgSX9SGu3ldP7jzzgPaJjyOBf89WhlHyHTc0i2rnu5t/o5QftpVVdZknf0Mt9Qmp49jgRak2bBkPuKXWH0wb7pNiIiIiOhOuWvG+FFcLoMSL2je4o6d+OXLl1FWZsKFC2Uwm63/Jl/bnapXL8sAyr+4CryXK9NXDOjk7o4hbm7Q1+3mpQWDZNes1w+s0Lpvad3NbsG68rpjAFlPCVh3VtlcrTHtVj2+z/EEpC14CYeOy3oGBA6aqGxXacGUihxlTBnrgIQyrd+kBRws4/uYUHDAqhvW9C5K1y05vosybk1UTYCnOlAhOEdqQaNju6xu9rJQvGAiNgyOwj9fXIzUPHF+OiNCa52fleFd4C5m5rx0KElf1zHCy0c9xzPp9T0y3xdtZYygvABnrANHda/Bop+vkglTcWp/A8eTVuFc9XhRUQgZGQ69OQspi+oMxFw9vs93SFa6WtVMuco9pxH+I+LgJu5hc9ZPxNYXZ6rbxb7lbW3pyV01mTKdDEpbVpWcbMSNsw23iXDlylWYTBfFZ7lcfKbryQprhLxSNSWtOL12QEKdNmJLfT2W6qoS3z1loRzmhrpjSZaxYBSF2PJmPEb0H4zQYa/grX8fg8lOji3zOGY2kHnzc5XdsIm0sXtuykHsPC7fLA/4PeKBwfd1FJ+thrp5SeU4oXS3qpne/Vzb9Hgo/OTPxOIUvCm7XCnb6+nell0O9afdL+POtwkRERER3Sk2HPixQ8tW7bRljas3lD9KXtICQHeIvPGqrKw/iGDtttezzuxp9hCCtYGJT9QaHPmXlVt4DNnXAK8OgzFSBjzKc5Bg1c2rWmVFTfeCln7wkmkDtzJWU8kZnBPHs9frkJGvjkOkTl/gb/l1xgPS3Ljdasb3KT6u3nDnf52uBAocgvvB3yolQRmPRVeJ0o+tAxJLkSnX37c8Ylwb30e0+zlLBogcnDk2UHyiTTi6bZFWqLHTad18hKh4RIWJNjTnIM3yyHJPObaNuqhIW4UsZTAXoOKCdciohqGzUekKVt/4PqqRMMpeH+Z85K9XS+olzq2Ftmh9DRl1rsHop7bfGa39fordtKkIFcfP37kYOXWyXyzj+5Se+kYtuM5I+MouXcjB6cXa9Ys2Cuohn6BlQsFh6zGPVHY6JcRWw1M939pst02kK1euoKKiQnyWb/0n38ffFyhBG4P4IbrFOiix7AO8a53dorG3kw2i6hsmb+rF1/h0Bv6llGzEESUTxAddX62v3vc1jy5/oD8GWwYiPn0QH8+biyTltS4w9lJKf3H/yjqlzDsFTq/JKnogGP7y5C4V4tAXatHN2LL9uPhWy30+jtjO4odrg928Gqmysibo+0CA+tQsa3tTcFIZsLsbHv5DTRvLQIun9aDYjXSn20Q+1WvfgR1I274QE27h/ImIiIjo1tm1d/Vs6Imzd1Qr36cQEREJD4MnmjdzhmOHhxAQ5C5uCi/hVNoXuGD+1dJYruMt7uRPn26of4Yt6IrxXf3gonNFhFtXhFUFYHJYDIIcm6Pyh0RMy89W/3Lcog9mdeiOLh4ecBF3r+ZyA/q0vIbtFXUiQ0q9PhjqFAxfVx94ODRD5WUnhDkEo0+zYnxdKTvcWZxCsNPDCBb79BI3Lqbs/2BacXUnJXHHasAgvwC4tvVAX3t3BDv2x58jesBDRibsHdHm7HdYV2G1v6v+GOtvRLu2foi9ZsD9roMR72NEdmEGfpDbq44B1yJxv6eXmMIQ8aMHYt3j8FLoKDxtsEdGfpZar9HGI3hKKAwtc5A+fx2KZUwlww6tfhMDjzbtoXPYiuPfyMJLsOs/GB3btYex38NwDOoBw/Cp6PP8VHTzLULmjqPK3jBqAu7rbYQ9nNHhkd5o3n0gwqYMRycn0TZpy/Cfv6ar9S4Ew2NYMJydjOgY1UPcFY3Dg+Oi4aozIfP9P+Jwgjhm8EREL5yBfoMeg1dEGOxC+6HL5BfRt6cBduYc7F0yC8XKeEHCsOkIGvEoXGMGIqBnIJzFfsrOdIauz0NopU9E2XGtnqI3Ok0IgXNLJ7QLD0SzyN8i/JnBqFy3RcswcEZbef1O7vAaII4bMli7BjPyt/43vvqHdtCI8fB/ahKCevrCqaUJxYWd4dDTiPMp6fUmmdk9+BgCPdrBvbP4Hl/Yg4TnP6wTwA1H4O9HwdPRhJNb5uD0d1pxLWHwGivfL2e4PdgNV6PGoe/ToxCoBDntceVsmni/tM9fZQ94xfmjTdtABPQPQ8ughxEw7WX0HxsJ064NOK/GzzS22iaNMQjT5o1BiL8f3MV3sPJaR/QM9YBpd0ZNsFXadxZeA2PQtWNnxI6KQmiXnhj85CS8/MdJeKx3BRI2ZSgBz55DxyLKqIOTfxzi7gtE5NCn8dT9rqJ1S7D37/+FLVlyZ+U41ioEv+nTAZ5Bol6PToj87VS1XuUpbF70P0iUX8SQx7Hs9ecwYcIIDBWf8+4RffHY9KfRr6NOnOgpfPV/G5Fo+Qz/ZhLmPzEYsf07wqeTJ9q1rILZKwD39RfnrE/Ct8pxNU69MbqfJ5wNndAvNABRv52E157shhNrksRPJPlzSIdegyLg6dUVv4ntioCIR/DShN5wtzfjxNZ38Fqi1jJ9RmPm1DAEWB+vmyN2ptT6wqiOXUPkqBj4GDrC08UOVd9vxh82at/natF4bGoA2uECjiwV16aV1lLaCQNHdEP7dh0QHdMNXR8ahfinIuAu/wzTSo82zbPw7/2yy9lxHHKLwqgebvAMVd+Lnn2HYFr8NDz7m644n7gT31unBP1CbRL51HRMi+yEAJ+2aFF1BT5dwq5vf4tGtYlq8nPT0V3+5aa1Hnb5q7Gp/mpERERE9Cuw2cDP1dJMnK3wQDuPDnA1esHZWYdrpnycSFmLwovVIxjfFndN4OdiLvZfcMb9Ytm1VXOYTu/Gm4c2oTp3ovWjWNS3OzyUlAV7eBh90EXcnL6bX+c3eqVeOELEdg856Amaw8VV1BXrvpdz8A/rwA6u4ui17pjgJUejqMDBwyuwsVZyTTa+KXJF/w5e8HA1oouLuH3M3oJ5319EcAcf2BVvwapyqzSdq4eRXdoV/Tq4w1Ns93dpjaqKYuSeOYz9yp3zVaQVp+L8pQD06mCEv6eo094ZzS7m4MvD/8b7V26yG8yoSegTbYR9SSb2vb9N6yZ0FBW9fotgr9bQ691xZN1OcdQCFGdW4VqPQBg93OHm6w+juNGp+OErfP33pRCnqNA/8Uf08m6N0uPpuOgagoAA2aXLhNydi/H5f3+mVpJMySh0CIO7rzcMRm94e7XHtbPp+Ob9F3B4nZYHcLYIpa6d4eprhJu3L7z9feHapkrs+yskzH4WuZaRZwXfGX/Dg/f5K3XEV0Wwh1NHue6GK2krcLpmTFYhBYVtY+DbxR3OHmK/3u3xY2kuTudug/iKCUdRUOkDtyBxbq7eMIrjt67IwcFV/w+7/75H2YPiiXiMeCQETi3lij1c/PzRvjIFh7fVf0fX6pEn0dWjNezsTMj84Akcq3VOgufjCHk8GM7XcnD41Q0NdJFKxVkXee7t0cZFnJtzMxR+83/YccSATv7NcGrDmyiw3LPnJyL7x24wBniLz68RRn9vOFcV4GjiBny/LbNOIMZG26RRhmHmm3HoqmSM2KGdj5+4abfDsQ+345Cy3SIPickFaB0QgC5+HREQ6AcfVwdU5aXi35+sQcJxtSuYJfBTfOR7IKA3enZ0hP2lQqSs+iv+8HHNz0HToe041qoruvr5oVMXMRkdYS7KwIbX5+B/dmojnRel41ilF7oHesLT1w9BgR3hqRevPZWKf701HwsStXrSuOfw5tBQBHSRQRhZ4AB3sd8AMbUr+xj/so6iZO3EibZRiAnygqc8vru4jvIC5Gd8hQNFYntZBjaddED3ruI6O4l9+HeAk7kEhz9/By//z24lwKV4cBIWPBUBD+vjtbuA9/5l9Z5WOwmED0FsZ0e0ED8pMv79J/y7etwei0YEfspSseeq+BnXwwfuRk8EeNrj/KGN+N91F9G1hx/siuS1qu1i2vMFjiht7IlOnTop19HuSgmOfLMV/9qQZdWdTviF2iR2Wjwm9HFVM9tau9bf/tUa0yaqq93jMLiL7C9ZgkOfrMdOS8CPiIiIiH51zboGR96+1Jm7VHR0JJKTU7Q1WzQMm4c9BP/yTLyxcymWa6V0uxnR5aN1iPERN/HvxiHZerBfAsYuwZip4WiR8SFWTWuoG9o9xgbbZMKyDXgpwhEnPn8YI2zyzwJ30uP4ePck9EAG3u37HAcxVjSyTWZ9gLTf+iiPk390nNWTxYiIiIjoV3d3De5MZNO08X3qPuHpnhcI/fQlGD4pHPoLqdgxn0EftsldKHgQ5nw6Wnns+okdyxn0kW6iTaZ1luMUlWD3pwz6EBEREd1uDPwQ/VJGBcIgxy7KO1r7CU/3shFvYeSODzFmRDj0ZxOxbtqzKLrX7/rYJnedHnM+QNonL2N4oCOK09bgrTkHtS33rptrk/4IMuqA02n42PJ0MyIiIiK6bdjVqxFsv6tXEJ5x0SG3vBBp5jPg0Al3yKCJ8HLIR/GJ71CRVv28nntbXDzC+wNnvlqH3K31jQ57D7LxNol8ahJ6nvsBmSe/xO5bGnOoCfrNy1gyAMjc/jne/fyYVniPY5sQERER3TUY+GkE2w/8EBERERERERFdj129iIiIiIiIiIiaKAZ+iIiIiIiIiIiaKAZ+iIiIiIiIiIiaKAZ+iIiIiIiIiIiaKAZ+iIiIiIiIiIiaKAZ+iIiIiIiIiIiaKJt/nLtdu1h0DuqKdk52aH6tCpfPHUf2d9twoVKrcBvwce5EREREREREdDey6Yyf5q4j0CuyG9rZFaPwyLc49v1xmMpLUH4bgz5ERERERERERHcrGw78dIZPsBdaXsrC4d2rkXP6CEoKtuFY1reo0moQEREREREREVHDbDfw074H3B0AU+FFePR9DtEDnkTvAc/hvoh+aN1Mq0NERERERERERA2y2cBPKycX2Im5vlNPOJUexrFD3yInrxIt2/dASLceaiUiIiIiIiIiImqQzQZ+mmtZPZdOfIG09EScLdiDfDHPvwzYeQbCWd1MREREREREREQNsOnBnaWKshxtSTqOixfErFlbOLZRS4iIiIiIiIiIqH42G/i5cvWqMm/j5KvMVQbY6eS8EubLSgERERERERERETXAdgM/5wpwScxbufqjpVoEtOgCF9nH62IRyvloLyIiIiIiIiKiG7Ldrl4X9+B0YRXg1A2hEYPh5jUQgdG94NysCmePJClBISIiIiIiIiIiapgNj/FThuJD63EsrwzN23VG5+6BaNf8PPJTV+HYWYZ9iIiIiIiIiIh+SrOuwZHXtGVqQHR0JJKTU7Q1IiIiIiIiIqK7g80/1YuIiIiIiIiIiG4NAz9ERERERERERE0UAz9ERERERERERE0UAz9ERERERERERE0UAz9ERERERERERE0UAz9ERERERERERE0UAz9ERERERERERE0UAz9ERERERERERE0UAz/UNPSfiqDZc+EWpa3fbmNnIHTmXPiPDdcKiIiIiIiIiO48Bn7oFxYIh6hAbfl2mYiYGRMR3S8O/UaM1MpuL2PMUITHxcHXkKqVEBEREREREd15zboGR17Tlm2L+2hEh3XQVuq4mIW0pG24pK3+2qKjI5GcnKKt2SDvMEyYMgmP3d8Zns46tayyHMXZKVg2cz7+dVotqo9hYQKGR+jFkgmZS+OQvFotvyXTPsTEUYGoyvgQK6Yt1Qpvh3D4LpyBQPuj2Pf6bJTmacW3zXhEb5qOIMd8JD8xEpm3/fhERERERERE9bPdjJ8Lh3Hs0Le1p6NFqJLbLpXhslKJPB+ZjtWfLMRLjwbD6VIhDn/zJbZsP4gjxYAhuD9mfrQQE7y1ynVFLUB0hB5ms1ms6NHWRy2+VW6djbAT86KTtzPoI6Ui55Vx2PbcnQj6CBEhMDiKeckPyGXQh4iIiIiIiGyI7Wb81KNN4FT09GuBotT3cPysEgK6LWw648d7NJYsiMSJT97EW/8p1AolDwyetwjzH/VA8ddvIvaFrVq5hRG+//gUsZ3PISXJjMgYX+QnjMTWBfnadkA/fzPGRBlQumc21sUnqIWvforfDfKFKW0xPntxlSgIR8inSxDpoW6upSIdW5+egvzqYIgR+mkz0HdAOIxt1cykqgtZSHp9IrL3iJW4tzByZhScT23CP5+ar2y3ZvhrAoaH2uPoBw8iaQXgJtaHhspsJU15KjYMfRbF2qrCMx6DPhkqjiyU7MFn8d/A67Wp6O2jh50dkLN+JHYu1q7ZMw6+0ychPMwXSuJUlQlFKR9iU7y8Tgt5DfHo90g43GSwpyIfaVlAaKgRFaJNViltQkRERERERGQb7p4xfuzug5e3vbjRPomC2xj0sXmn1+DZJ15Rgz7eYYh9IEDbUIgts7bi8CXA0C0Gg7XSapPnILqzDqa0dUgvV4v0bv3UBYURHTwNYm5CwQEt6CMYOyohFBQftwQ4DCg+mIDkL7NQKlcrcpCWINbltH5TraCP28JlGDMqCu2r8pGZmIjMPBPs2gai34sLoIRvnHRKxpCpJEep7/tuAp7c8hX6vSA3TkRwoKhVkor0FXI9BFUn9qjHyVBDPeZT6bWDPlKHHBxNSNfOTYeQ12cgom0+cgrNQFUWctZbgj7jEfnOXMT2Ftd3Uuw3UeyrSg+3qKmIeVKtIhn+sgzDR4XDDdo1lOiVoI90prpNiIiIiIiIiGzDXRP4aendDYYWQOnxRFzUyu6UVq3sYW+vjaVzA7etnsz62bwFaRsX4s23/460b7fgi0WjxYaVOCHjGgYPRCoVLYYi/NEQOJizkLJoFXDOBNnZq7aR8PYUs6p85K9VS+RYNr4+8vg5OL1BLQESkP/GbGSWyM5igPlkIlIXiHU5vb9JrSJNnoOHIwxAYSLWjhyH5LkzkfzaHihhF1dfKKM5uTuitZiZihKBiKkICdZD56CDvXjf8WQ0vB2AorSVahAH6SherB6nyKy2Sb1dzPavQvYZKPuFZwjcMhZjxchVMIn9Vp38DtlKYMoI3znieC5m5G/9E9Y98xIy507BhkR5djp06KENGD3oLfSLMUBXnopNz4xUr+GJVThaITeKdqpuEyIiIiIiIiLbcHcEfpoFwrOjE3A1F/n5t2tI5/q1atUKTk56tG3rBJ2u4WDN7az39NxJ6GsEitOSsOWLg8iDDp6d1AF7TpTKdB4XGB9XVhUOMycixAUoSl6KHBn4KDOjUsz0Lr7KdsWoQBhk+k3eUcj8G0X1WDYFKKgzls2Nx/cJR0j/EDjAjKNbZkKJk0h58qhW2tgr+zCX5cNZZtXk5aMIJpjECRj7BMKhKgsZH9R9alYcfH1kyCkf+YlqSV3OQb6iRWRQahu2aN22CvYlIHGzlqEzaAbCO4saZ1ORkqaHPi5OnbRmrrpiEv83wn9EFJzFUn7SfBRZrj8iEM4OYs7xfYiIiIiIiMgG3RWBn+bGMBjFzfXl04dReteMSHS7TEJMF52M+mDx5LmIn5WCvBvFxjynI7qfEXYV6UjfowU5DDrIpBpr+l6+SgZPad5+tUDq7ws3MTOd2g8ZCqkRB+8bBV88B8JLZg9VZCFb6aalGWFUu3jJQJKYObuqXctMBRMR0sOAnNwCyJgKWsxAUKAOFRmJWoaOFc8IuLmI+YUCnLY61Rrh8PaSRylGxpr5WmaTmqWUs1Ht5qWP6aIEdOAaheEz52KMZRLtBPGKouOyq9tI+PrJSvnIWal1D5O0Nqm4rk2IiIiIiIiI7ry7IPDjBo+O8ta6DIU/HFeL7qDLly+jrMyECxfKtKdh1e+21evjA4PSP6oYjelpZJgxFL4yk8UhBLGWAMdYmY0jtDWqAZBGj++j8bz/xsGXqJoAj1XIBM6RWnDp2C4laGKnRJ+KYfLsB3+kIzMNaCHWz7t2h7ddMbK2figr1Da8C9zFzJynjeNznYEwyoGny3Nwuu741hr1Ws3I36eNTVRrWoW0D8TmEVoGVHlBTbaPYGkTju9DREREREREtsj2Az/t+8LbSczPZqHQRp7hfvlyJSorGw7SWNyWev6OkM3TKHKMGvkUrAtZSK0V3NCCJnbKf0I94/t4ToW/n4wYWY/voxneUQ2+FGoDPDfETqd0uVJExSMqzCBelIO0tepYQM5txbmVV8LYLxCmw5uQ72OAg3iFb0Qg7EqOIruewI3hpx4hP1nNyKkS51akllynShkrXAdz3lJ1bCLL9LFcX6pm8lh9U9Q2EqJmIKihNiEiIiIiIiKyATYe+GkN145e4ka7EvlH9+BHrZSsrCzEWTm3s4eM1QCOaFUdmbAww1waji5j5Rg1Zhz9PB5p1gGOBTlQeoc5GrSMHz10yj700I+Ig+H3CzDwvYnoooxlc/34PhY6v4GImT0XoX/9FEP/Ol0rFfbkoFgGVzyiMfS9txD0vx9i5JyhMOpMyFz+MrK1LCH5eHXY+cHoko+jazdB76wHKtqjnY/1oM7CsOkImjlXTAsQ2lnmDJkAJ7k+F16D1Cqyi5fbC3MR/mCgEmwyVbUX22fAEKJutXb6SA7k6fkOWYaBf12AoNlLMPCzr/C7d2Zo7SHkFKtjEzmGIEZcg7zGMfNGwvcn2oSIiIiIiIjoTrLtwE+rKBhdxbzsOPI4gEoDMpAvn2FuDMa0sf3x2PxYBNqZAZ2j8iQvvfIUsHKcc5+KCB+g6tQ27PvAusNVbWrM6EOkp5tQZWdE5PS5GDzEF6d2piqZL9eP7yO8uxRJWaK+zoAu/eIQGmzA1QpzTXZP3iIkr0lFUbkOzoFRiO4dCPuSdCS+PRHJqy3nMh7tZXcxBx3sju9B+n5xCWJZrtcd1Nl3yHhEx8WJqR985WDT0MMrRq5HwaeNUkUZVyh8mDgX5SlkEMcV26N9YZeurNZifmMOEpJyYLIzwCu0H6JjQmDASSSvXFoTbNq/FPv25KOiSr2GUD8gffMN2oSIiIiIiIjIBjTrGhxpu8Ml27VDm3Y90QYpKDp3557mFR0dieTkFG3N9kTO+gCLf+sDe2WtHCmrM+A/2gf73twJrz88jh7mFMQPiMcWZTsRERERERER3StsO/BjI2w98CN1fWAYYns44sjendi5vwPmfPb/MFw+ohxmnPj3f2HEvINqRSIiIiIiIiK6ZzDw0wh3Q+DnOt5hGD4sFK6Hd+MfXx/TComIiIiIiIjoXsLATyPclYEfIiIiIiIiIrrn2f7j3ImIiIiIiIiI6JYw8ENERERERERE1EQx8ENERERERERE1EQx8ENERERERERE1EQx8ENERERERERE1EQx8EM34ItnPMfinfY94aWV0K/IMw7GmQsQ9GSUVkCk8hw9FW++Ho+nH9AKiIiIiIiIGomBH2qYy3A8E9EHA+4fiVmttbLbwc4LA1o4aCtNQSAcogK15YYZX/svDIrrh+iRj8NZK6tXaBR0ntry3cozHA6hRm3lXhaAvgPCcOO3MwYv/W40Ygf0x7Rnp2tlDQiORGyEh7Zyt2pMmxARERERUWM16xoceU1btj0tusHY/T54uzrBzg740VyGc1k7cCIvFz9qVW6H6OhIJCenaGv3kGY9sTBoAPwrU/F29i58rRX/qjrMQGakF0yZKxB5NFUrvE1GLcGYaeHQa6vWKjI+xKppS7W1mzDtQ0wcFYgq8foVP/F63bQleChch1Mb5yBzY75Wai0O4evmItQlHymvjET6fq34lkxH7I7x8BXfq+tUZSHxqYnIztPWf2H6+ZsxJsqAosRnsWnubX6PbcrLWH9gEDqZDuKtB1/Bx1ppffo+Px/P3u+IE2vmI35NoVZax5wPkPYbH5j2L0XMlDVa4a3Qzktbq+0UNvSajDna2i+v8W1CRERERESNY7sZP816oPMDsfB1t8elvMM49l0Wzl9xglvICHTr6KZVol/VtUN4JWMRRtyuoM8dpu/lqwR9Kk7tQXJCgtW0CTs+uYWgj+DW2QgZWyk6+dOvN7/7LLZNntJA0EfwvB9uLmJ+oQCnf1bQR5gcAqM8sZL0OtcqptXrfrWgD2CEl49BzE04k34vB31uzu6/xWPsmOcaDvr8Kkpw+IsvscV6WrMVW7StRERERER0d7DdjJ/2I9A7wgs/5mzDt0ey1DK7vgge0AvO5w/j232JuKKW/upsP+NnGDYPewj+p3fjbxcCMLmrO/QtgMrSHKxLfhvzLA3lOBUpsUFqRsvpXQhKL8Py8Dj0cZfdqiqwd+dMTCqvU09htc2ixShsH9wXXpXH8N62d/E3rRjNxLkMFedScQx/2/4u3hNFfdwmYV5QN7iKk7KXwYaqqzDl7cXbaWuxyvLp0zJ96pO97wUMqXW/64Rn/Kap16kTq1crkHssAfOO/pwAlRFdPlqHGB8zjq54EEkfaMV1qNkqehxd+w7OhU9Fbx+9ko1WcXIT/j15vmgpKRwhny5BZH09birSsfXpKci3BFbGLsH4qeGo6dhmQua7cUheq61Kk5fhySdDIC+1rqLEl7Bp7h5lWTd7HZ7sZ4QpbTE+e3GVUibpZony/rXLLVk3pXtmY118glJ2nUHxiJnQD74ueui0g1ddyELS6xORrR7SShTc/jIV0WGBMDiqJRVns3BwZbwWyJqKmC0T0aW+HnyFiVg1bqbWdpIR+mkz0HdAOIxt1QNff9zxiN40HUHyWFVZ2PmUuK4Z4vghRjiI96N033ys+9MmGN/9CoOCdcjfGoWtb6ivlIzviPIQUZ7wErYuuO5i6uX5yHQseCEWPdzUC6wsPYWdf4+vFYyZsGwDXoowY/ffdkI3ehAijWpdU8ZGzHxiMXYrazfIqDm+FaFj3tRWgDnrd2C4r7Yi5YjtI2q2K7RMn/qc+PfDGDFPLoVh/saFGOxtxuF/DMaEvyubBQ9xjE/EMUT530X5P2SZ5fx+Irvn8XisfzISnuINV77Xgin/IP79xit4q+4XMXgY5s+ZhFg/rW5VOYqzUrBs/nz8K0NWaHybwLs/Zs59BoNDXKDX9pV3cCsWTFmqta/w+EIkvRym/gyTr19SjmWvDhPvh/w8lSPlzeGYsvJm2kTl+dRCfPxsGAxXRdu8JtrmXoiIExEREdFdz3YzfiovqoGdZi2UVUUz5b+abVSbV188H9AC2d/tRVrRVdg7+2J8nycxUtuMy4ewaf8hZF8Wy2288GmfYejTpgx7T5WJgkswWxpVqbcbm8WUVqKV1XU1CWlnxLyVH/rILBQLVz/4izepMu+QEvSR9laK9YpCZGbKfaYirfgK9D598WrPuJpBo8+nKsfbfEKei6hfcEhd35+AdeeUIo0DJnWZged7uEN3KQdf7xfXWtISXkHDsCggXKtzK0bCWxlUJB/5DQR9ZECig6fMVtGhy2+fQ7D5O+zbn6MELBz8+iFkhFJJMKD4YAKSv8xCqVytyEGaJZtm/aaaoI9gdzUHB5Vt6dV1c6yDPoJd2VHsF3XS88zKenGGtq+Eddj3RU3Qwlyhbq/Fcyp6RxnFxiykLLIEg8Lh66dm3RQcbiDoIznooTMXI0deS8IeHC00wa5tIPo9Ha9V0HiOR+S6tzA0JhC68nRxrYnIPFkMO5f2aOekhQ+DTTidJPazPx/KWZ6tyTRK3Li2VtDHbeEyjBkVhfZV+chMFPvK04774gKrYKQJp5L3IF++UEzG+f+F2M5m5JwyiQJxzl9tUmpVmsWHr66oBQgP0QEle7CnkUEfPPAyFs8ehh5uQN7+JGz55hTMeh8Mfmk+5vTR6lRzQd9nRyPIfAw7t2egWJyCPngYnn1Z24wM7FQyaMQ2uXrpFHZrGTX/EpO1tC+1TBtxvHquRHVAnI+sk65+WStzUtT1LzZiw3alSDiIDUdkgEoHv7DRapFiGLp6i9ml40iyCnA0SjZQfrUEJw/K4ych5XgJdMYwTJg1H8O1Kgrv0Vi2ZDoGd3aEOf+guHZR96QZjoHBiPSxREcb2yZhmPPmDDwW6gLdGfmaFBwp1cEzYjQWLBtdMy5QtmyDFJy4JJbbdcTHs0YjUl+IlCzZRmaYlS/bzbdJ7P0BMMhgk70PevRXy4iIiIiIbJ3tBn5Me/BDYRVadoxFaOhAGJx7wDeyF/QXc5Dx3bdapTujVSt72NvXl39R222vd/UMNu+ch3E/rMa4PRuQJm96XAIwpI26GVf3Yl7eYZy9KpZFeahdJt74cgEmFcpgSwXOWu4slXpr8YqYlCBRvc5gXb6M/LSAf/uagMvzbjKUUyFu1qv/9g5cWI4hKYswLvsLrDu7FysP7FLOzd7ghwFaFVzepRzvlXNq4Mdcelhdz9uC5fJ8LVo8ivFdnYDSQ5j31duYmiev9Z/4WtzI6QNiMEuJDNbWqPYdFaje0J0tQGlcHPSWqdagzFpwqKoYae+Pw7pnXkLmnzYhR8mEMsG0T86lBOS/MRuZ4h5TBirMJxORukCsy+l9NSBhUbV2kVp+zKx0CUNhDup29FLrfIMqB3kN+cheru1rwSIUWXf50ga+au0ogzoq52lDlSyb/J2LkVMdcIqGm6uYies4X2J1rXH9ag8avX4mdj41DkmLP0dO6n+QtuWoGpxSTtQiHP7zpiLERRwjYTY+GzdFXOtMJE8eghVPTUHyCi1bL2MVcsQ5516xVzKXir5fql3DbGSvturyNXkOHo4Q51+YiLUjxyF5rtjXa3vUNnH1RQelkrQJudsroYwB7hgIX/MmrBo6DvlVosVLjiJ7q1qrSvvstHaOUxdghO9kcf0ys+rTl9TrEVq2bAkHBwfxWWmlldT29MRYdLIHjqx+Bo9OmYv46ZMxds0xJQAQ8/ggrVYN08GlGDviFbz82nP4KF1NldNVR6224t1Z8xE/6wdckKvifUhR1udjwUcHlRoWG5ao5fF7i9WAWX0+X67WOakex3zuoLo+azE+3qsUKVL+fQzyI6D3C8NgtQj4Qzf4ifez8ug+XB/30UH/aH8Mtpr6BmubpL3zMWGIaAfRHh9vT8KGj5Zjt3yjDB4IVWsoBj8/GpHO4hjpKzF2mGiTWXMxZcwYjBgxAy//x5It1cg2eXw8YjuLT1BxChYMeU7sKx5jJ2/EEfHzRB8xDNMsQbi9a7Bg1kGcqxLLhmD0sDuIt56YjClZso3Kce4LpdZNt8nOb46hWO6z8hQO147RERERERHZLBt+qlcZijP3oKhC3LS5dkZAn34wOlXBlJ+Ni/IX7ztE3hg6OenRtq0TdJb+L/W4I/UqS5BRnQq1G9nKXa0TXGvSJKxcRWbmx1guu1op2TapqH3L+dP2FhxDrni9vkMPLauoL/p0aAFcysVXyt2byss+Dsv7LEDmsAVYPmgaFj4yGKG3+pQwcfPvJTOKSvJQaR+AIcp0Fbkl4oPS0h2dLEEuTWPb1zK+D1yjMHzmXIzRpuFP9FO2KyzBobxkpK7WwjMRIWrXppIfkGuVySPdzPg+luMX/bBNLairMeP75BRD5rvYWSIMEfGIijSomS1vWAdXtPF97HwRbXWtY16dCGP1NYhrnfkpRm7bg999sgTj5fbJ4crTxkrzrE7gyano7SfaVcmeqZM9lFc3hPVT4/uEI6R/CBxgxtEtVl2/8hrIdennC2W0rwup2Pb0IlE/BKbDCUjasKY6oFN6VskfgZ1De2WOUfGI7KyD+fimWt3pWrZsAb2+jfisOIrPjL1WajEa9/nLz04h8o4FVwdBeh4T66LU4GkdDVGdzV+jbLMpez/HESUw44NYLUAyIcwH9qK9s/asVAtq8UDsvHjMt5peGqNtkmT3rc82IO3ADqx+W25/GbHXPagtDLFd5QdXHGPv8lptkne6Vv/NRons0UH5nphOHsQGtQg4vRRHiuSCBzrdr5Rc58h/3sTHp8WCkh2VhDS1+KbbJO+jVxB738MIjWI3LyIiIiK6e9hu4Ec/ED379YXhwh58u+Nd7N2+Bt8fK4NjQCzC7+uLllo1aoR6smDkTWzGGe3WWsm22YV16lrjXf0C+wrE3NkLcfJe2bEb/FujVjcvGQxa+MBgZRwh02mtO5elu9ktGOnopMztOw3GwkdkEEmdxneSqR8ODQS5foqlC5cZ+fss3ajUKSmhJkPHEpypFfjQgg8Vp/YrQZcacfD2kbXzkZ+oljTMcvwbDHg8vCPcxcycp3UJawTD4/1gtKud2SLpOxuVrBvT8cRa15q8OUHLNjLC653FGB7ni9blWdXd1LKVnkRmFB2vCfAYRJvIli/N+k8jzmskjLJnT0UOcterJbV4DoSXzDiqyEL2CrVIMcKoBuVKCiA/bhZGPzXKkLNzvto9COkoXjwbR1c01H0rHF2GhkNflYN9SxdrZY3hgfZKoNIDsbOsAiGzYtSuRQYPTJBzm3cQ//peBls80PW3YWI+Gn0DHW/Qzev6wZ13HtA2yTGDFqjdtyqLLN20vsRh9Y2w0hl65c0z47KazPezdG2njpnUkJqsKmuncOQNLcikZEctrwka3XSbEBERERHdfWw28OPsG4g2zS6hIPtbXJFZKVUFuJC9CifOiJN26Qr3Opkdt8vly5dRVmbChQtlMJsb7Hxxx+rV61cbvrsC7+XmirkBndzdMcTNTdyg1+nmpQWDZNes1w+s0Lpvad3NbsG68rpjAFlPCVh3VtlcrXHtVjO+z9E/WbpRqVNO9RO2aoIzBQdqAh+W4MOZ4zWDKStu6glc2vEbCogIjcoeWptfE3yKWoDoUP11mS0y+GEZ3yd358xa15r59ipxey4MmoHeIeIOumQPNo2cqHVTy4JZRouqTuK01RhIBhf1Trs07wZjBVmMDYS7vIh6urMpomoCPNbbnSO1gNuxXVbBtZHw8pQnlI/89fXuTXVCzYJSTJ6KCB+xn5RVOFrnPbly5SpMpovis1IuPjN1M4wKcU52m6zvKVdyWvPlXfPY8ZSvTylBMs+A/vB8NAz+omHr7+YlleOE1t3KMr37ubYJ/dVxcKqOYcPTssuVuv1E7eincFy0q7ZoNVzbrTp36cY/+8zXHf+n3VybEBERERHdfWw28COflCQHE2nRQlnQGNDS8lSgXy2Y8dPkjWFl5U8HX257PevMnmYPIVgZdLkYJ2oNjvzLyi08hmzxXnh1GIyRMjBSnoMEq25e1Sorarp5tPSDl8wQqjcT6SeUnME5cTx7vQ4Z+eo4ROr0Bf6WX2c8IM1PtpulC1dhDmRvkPpZxvfJhzisxir4UJNCoLJk6BRqAzzfiNXx6w9hWLKHinHmG7XkxuzVcWzqzWyxjO8jznm1WlKXPqaL0qXLdGp/9bnbPdkPXjLZovAH5KhFtejaWPfxEctKIK02fQ81O6g4d5da0BA7nZKRpIiKR1SY+FyZc5C21mp8pIgIuLcV83q62NXPiPBHQ+BQnorE+NrjLElXrlxBRUWF+KzUl4q2BkdOy8+Pi/gJtKN2IGTZB4hfog0odDf4YgcyZZTDuzOefsBHXE9D3bwaqfIKyixfGu/RMMqYonj3dDIopDiIpJMyVcwRPftPqvWx8PSu77F3N7bl2x+UQJ4ck6d6AGnvqeiq9PkrxIlGfT/quIk2kU/12vntDqTt+QBzHtAKiYiIiIhsnF17V8852rJNqbjqCaPRBU4duqN1s9Zo3qoTPLr3hVfbFsD5TBzNybGMZfur8xZ3/KdP29yIHVa6YnxXP7joXBHh1hVhVQGYHBaDIMfmqPwhEdPys6HkybTog1miPbt4eMBFNKO53IA+La9he0WdyJBSrw+GOgXD19UHHg7NUHnZCWEOwejTrBhfV17UKkqnEOz0MILFPr1aA6bs/2BasVWHnCsGDPILgGtbD/S1d0ewY3/8OaIHPGSgw94Rbc5+h3UVVvu76o+x/ka0a+uH2GsG3O86GPE+RmQXZuAHub3qGHAtEvd7eokpDBE/eiDWPQ4vhY7C0wZ7ZORnqfVugv6JP6KXd2uYSwpwOSgarjEPVU+OHsUozSgCRk3Afb2NsM/dg10bktQXRkxAr6G+aFPyHfa8v03NlrGIHI7Q4PZo6WSEo38gXIZPxX2PGHF0W4q63XMkfJ8diw7iGF73hcLXxR4VpQW4GvwAXLvqce7AUbWewh/Gxx4S70NrtOvUTdQZiKBp49DWtAFF2VoVhTfcRvUWbe0NL1cdTPv+D7tXWO9HmPx79A11h13BAexa30AftL4j0dNXD3uXzuLcQ+A1+TX0j/FGKxkmbl6KU59uqR5/xxQyGD399NB3GgyPsGC0fOgxRD07Hb0j2+HwpmStlso+djy6iXZubQhEc98eMI6ZjuDIUpz8SruIC8HwGBYMZ9FmHaN6iPMYhwfHifdDZ0Lm+3/E4QQ1nUP/+7nwHxSKrq7yPStCeWAodK2TxGdP2Vzbhd7wGeGP9uJaXB2rcOrzF/D9tzefFrLnnAfiHgpAx6AYjI7phq5hsXhq+lRMmzIMkeZEbDqkDqzcc+hYRBl1OJ/1Mf6lNW99ZSpnxIyKho+zAV3kPns/gmkzxqHnqY3YqX2Ihz8bjwlDYxDb2QsBPm3RouoKfLqEIbZ/Z+h3peGIWk3l1Buj+3nC2dAJ/UIDEPXbSXjtyW44sSZJfEstTgLhQxDr5wa/DmJ/V7Kw9tmtqO7BpYjGY1MD0A4XcGTpRtT/KdHOva0rugwOQfewODzz3BB0l9l9zR3Ruv1ZrNpxXKl55DsX9BvRDR7GHvjNQFG3ezRGTX8Rr06JQ/fSJGzJUNtO9RNtkn4BHQfGoKvRB1FDIxAk3o/J0/qha1s7mPavxGt/z1AzvPqMxsypYQjo5Il2Latg9grAfd0csTNFPafaGtMmqt9Om4ZYL534GdkWOnPd95OIiIiIyDbZ7hg/5zbiQMr3KL5oj3YBvRDQswfcWleh9ORuUZ7Ix7nX52IuDpa74IHwcAS1bQHTqd1441ACZGcsRaueGBrRE/7Kg4ucEBrRF0P8uyibalHqiW1iClWyhlrAP1hdH+pR/QB2jdbdS8neqcD3+XXGqLmWgOe+SUXu5RZo7xeOIV3dcfnERrzytSxzgN6+zsAfl1fgv/bliJs3JwR174sBXTxg38IBwdWJXxVYfnQR5h3IhUnnjj6hok5XX7Q152B7xi7c/Hirli5cgM4nCtFxcVZTP3g7pSvb6h3fp39D4/sI7y5FUpYJVTpxA9svDqHBBlytMNdksgwfin7accI7yz2rj4SX6yHd1PUaCUhdow507uAnzjE2HN6iPSqr26QOnQ66BjJbnLuo4/uUnmo4NcL8/jqkFZrFfuTNdzQ64Dskzl+sPNpfZjDJ5AgL87x4bN2XL94VPYyh4vwjAqG7kIp9W68/tundVep+HX0RKq/Tzx5VFVYDKectQvKaVBSV6+AcKK6zdyDsS9KR+PZEJFsG08Z4hAwT7SbaU9J5hos2C0fb75XV61kGhpYDe5/ahqR3b9At7Ea+fhPT565BSr4ZhuBIDH40Ej066JC3dys2fHnzgxSrtuLZeRtxpBTqPgeEQSaQ2QfWDBYd2l97otb9csBhwWAZXDqm1pOzFJ/HY/bqY+Kz6IKu9/dHbJgHdC1aIihE267Zsv24eA91sJfjcd1yl6aac9d7y0BUN7ie+RILZqllTtZj8ZxeirGvrcHunHLoZF1x7pHeQHFWGpKU8XWs/VSbpGDO80uxJUN8GN2Dxb4i0dXRjBNfLsfTU6wG1PZX36NOythMLugh26z/9YNwWzS2TeRTvdTvuhnltvy3ACIiIiIiK826BkfewU5Td4fo6EgkJ2uZGjZpGDYPewj+5Zl4Y+dSLNdK6V5jhNtfP8TQUHscXTEOSR/cYpCjSYlCl4/+FzE+55ASPxLpDY37fI95+oMtmBYKHP77YEzgYDaKRrXJ2IVIejUM+uIUzBkQbzVINBERERGR7bLdjB8iarzAofD96zIMDNXDlLaUQR8pdDyCPpiLGB8gf+siBn0UARg+6++YEKqTj0PDEgZ9hMa3SWSY+jj5I9vfYdCHiIiIiO4aDPwQ3eWc52/G796LR2yoHucSF+GzF+s8Yewe5P+PPfjdX6cj2seMo6v/hK1vMOqDkJex/tu/Y85vA6AvzsDHb78JW85jvC1usk36+ngAlzKw0/J4eCIiIiKiuwC7ejWC7Xf1CsIzLjrklhcizXymZkwfuifoZ7yFLsjC0U1LYcrSCu9xxllL4FaajIz1q2DmWCyaQZizOAbISsLqJVtrDwx9z2KbEBEREVHTx8BPI9h+4IeIiIiIiIiI6Hrs6kVERERERERE1EQx8ENERERERERE1EQx8ENERERERERE1EQx8ENERERERERE1EQx8ENERERERERE1EQx8ENERERERERE1ETZ9uPc7XvBN/Q+eDjbo3kz4MeKIuQe3oLc82VahduDj3MnIiIiIiIioruR7Wb8tLgPgff3hdEZOH/8AI4dyUGFnRt8eo+Dr7OdVomIiIiIiIiIiBpis4GfNv69YNABpd99iqzs3Tib8zkOHczBFdjD6B/JPmpERERERERERD/BZuMnrRzsxf8voazUqlvX+QIoa+06QK8UEBERERERERFRQ2w28FNVJf9vhxYtlVXNeVRUiFkLUa4WEBERERERERFRA2w28FNWUiT+bw/3wIFo29oNLVsHwhgWCy8HdTsREREREREREd2YzQZ+fszbgozcSti1C0S3B8bivgcGwu1KCUxy48UyyMQfIiIiIiIiIiJqmA2PkVyG0u+WYu+O9Ujfvw0HdizF4fN2ytg+VecLcEmtREREREREREREDbDhwI/qx6u5MJ3LwmX0QECgG3DtEvJOHta2EhERERERERFRQ2w+8CPH+WnlOQKhD0XBoKvChSM7kHtR20RERERERERERA2y4cCPPdoGPIleA6aiV4gXWl0pwql9K/D9DznadiIiIiIiIiIiuhEbDvxU4lLlZVwpzELWNx8iJXE1cs+XaduIiIiIiIiIiOin2HRXryun1iA9fRuKTWX4USsjIiIiIiIiIqLGuQvG+CEiIiIiIiIiolvBwA8RERERERERURPFwA8RERERERERURPFwA8RERERERERURPFwA8RERERERERURPFwA8REREREdEvqZk7HmjhoK0QEd1ZDPwQERER3RFOeKbLTGz2DICXVkJEt4sDhnjOwPYufRGklfwSHnCZiu0D30bmb2ZiUadgrZSI6M5i4Ieu08dpMBZ6jsUsR63gl9KsJ17tOBYL2/pqBXS3GOIySnwmRuH5VlrBPSsST8+bjTefHwZPrYSI6NY4YFKXGXg+yB1u7bzQSSslotvFHcHtnOAVNAofdenzCwVf4/BCnyB42Vcg+7vd2FSYq5UTEd1ZDPzQdYI8YjAkog9667WC+jhORcqwt5FpNW3uoG1rwADf32BSaB8MiRmFWVoZNZKdFwbcwXRh1/bh4jPRFwPaaQX3qucn4fePxiD2qccx87da2T0hEA5Rgdoy0b2r+YCW2tLP90CHaXg+yAmV+bsw47td+Forv53soqJgpy3TzeDPxLuNl74F+lz39c3BG999gHX5V6EPGovlPr/EHyYdoJPHKdiLIdlrMa/sjFpMRHSHNesaHHlNW769xI2sa/Aj8PdsjeYXs5CWtA2XtE3VmnWAa/eB6OThBDvxm8mPFUXIPbwFuefLtAq3R3R0JJKTU7S1pm9SlwV4NcgB2SkvYEiBVlhXiz6Y5e4FJ7Ho5NlH/ALb4sb1pZYPYWlQOJyKt+OVvEO4438DeXwhkl4Ow43iW8hag9BxS7WVO6TDDGRGesGUuQKRR1O1wturUZ+Jn+VlrD8wqNZfvCtNJcg7vBPvv7EUW05rhXea9zDMnzsMnS7uw5LpS7FbK7YN4Qj5dAkiPbRVyWxGaWEq9r33EnL3aGU3a9qHmDgqEFUZH2LFtJ/xXRi1BGOmhdf+vlWJ88v7med3T7v+e3Od4hTED4jHFm31XtDyH9Hwv6+NtiZ+d6iqRMWZQpSsOI6Ln/6old6sNmiXFA13/RmcDj2Mi1rpLWs5FtsH9YFXxTG8t+Nd/K3B38R+pe81piN2x3j4mtOxdfAU5GulN80zHoM+GQqjtqoQ3+uKkpM4uDIemRtvec+262f8TJyzfgeG3zC2UILds8bg2S+0VfoFtMTS+DA80P4Cts/NwnMXtGJrzR7Cpw8PQ6hDMb5OmIepl7XyWzIMm4c9BP+C3RiQsvbO/65LRKS5Axk/9mjlOQKh/UcgwNj6BifQGs7dRR1PJ1w5l4Xj32Xh/DU3+ESOgZeef5+6467uxby8tXhFTHtLr2iFP+HKLkw9vAjj7lTQx7s/Xlr2AZb9QfsNOjsFW774sno6XCwLzTjxTU3Zv/5z7wT8bMKlU9gt2/6bDJyrckGn+0dj/kcLMcFb236nnd6I+MmTMfZnBn08n1qI9Z/F47Ff9Lqi4eYqZlX5yExIQPK+dBSZdXD2icLAWctgvMW+aW6djUpGQNHJnxcA1XXroAR9Kk7tQbLl/Cq083txwY0DsKQJwGPzPsDq+ZHaegZ2aj+r5LQ7x6yUFqfXlG3ZmKQFfSIx5xPx8+95y2ubvouH03F6cwbOnryMFu4d4f3aA3Cf+8tl7PwczwT0hFczIPfI2hsEfaRf53uNsYFwl1/swpxbD/pIA33RXs7Ppqvf68RU5IobawfXQET/cX6THLfoZn4mej4yFcs+W4hp2s/6tC+tvpvfnEKlLCzOqCn7Yit2KEEfD0z4vw+wfh67Ff9sLZ3QSX5IL5iwt76gj3RtF/72nfjNtJkBvbvEaYW36gzOysiw3oABagERkU24/Rk/LfoiOLYX2hRn4Wh6CTweioKhvoyfNgMRGhOI1mcPYF/qblSJf2bbdn8G3bzEP7eF4sYh7Vut4q/P9jN+tL8unN6Nv10IwOSu7tC3ACpLc7Au+W3Ms8RlZPes2CDo83ch6NuNDZZVZ3ekJcDs2x9BzmJnVyuQm7kRk07svS5o85PZIFrGSo1crNu4CP+trVkLajMKCyP6wF8eU7pUjMwjW/Bfp1ORqZbcAg8MfvllTBsVBk970S45WxE/4k3s1LZaqH+JK0fKm8MxZaVWeAuC2o7FwtAI9RrEt8tUlIm1qUvxhuV9aNYHyx8ciz5tryJzzyyMKKoQhb54p88LGOBeIb4Lf8G4ElF2XbvVyN4n2rpQW1E44Rm/aep7rxOr8v06loB5R626D2jvdWX6amxq8RBGBaifE5TlYNVuq88JHDDecxpeCPXStueKX5YM6ONd9z12wJD2E/B8WBC8WmtFlWXIzkzAe6d2Y/NN/WTRMhdMB/HWg6/gY6VM3KiunyPeEx1M+5ciZsoapVQG8GbOfQaDQ1ygxICrypF3cCsWTLEEY9R9uaYn4aQxBj0M4vfqvWvwRatYTAh1EZ+pY9gw4w+Ys1fWHY35n41GjLfYl/hsKEyFSFn/Dqb8zeo7f112WP2fE+Uz5H0M/3rjNO77Q190chZvRpUZed8sx5QX1iBPqRWMmZ8uwmOBYlulONbaDzD3zS+1bT/D5GV48skQ6AoTsWLcTKghgImI2TIVXRyAnLVR2PmuLBuKLu9MREjn9nB2kB8WwWxC9ubZSFxsSR+oJ8vAoiIdW5+egnzLCQ+KR8yEfvB10UOn7a7qQhaSXp+I7OpsBCO6fLQOMT7W5yGMXYLxU8PhUJ6KDUOfhRJ7FexGzEXM2Cj4uuqVG6zr9ycEjkTQi5MQ5meA5TKqLuRg38dzkLk+Sy2IewsjZ0ahdcY67DJH4YEQIxzEDqtKUpGw4Fnk71erKSz76yz2pxzUhKKUD7EpfpW6XdDP34wxUXocXfsOzoVPRW8fcX6ibsXJTfj35PmQ32SVEfppM9B3QDjc2+rUrjRyf+mbkLhoMUxWb3ajrlXoOjYe8//QH53kh7D0IN7t/wr+oW6qNmHZBrwU4YgTnz+MEXO0Qoux87Hz5UgYxEFMx7/Ekjnz8a8Mbdstaj7DDx7DOsFR31z5I86P4vtf+k0mzv21DD9qWXpKnUe90drJHi2UC7yCiyePoODFQly1ZPJN6QK/P3aEfX4Gjg7OQ3VOzhN+6DijM+xPp+P40EKtvDns3+oOt/td0ca+OX6sqkD5gXQUPn2h+nWWjJ/zG7fjzGytcKLY1wud4VB1BqefPYyLSvu2gX5tN7T31qOl2JdyDaZzOLvuO5x/2/ID0ZLpo61aO38cxx86iavaKp7wgNuETuJ+rw1aKm/6j6jMP4H8/z2Jylr9uOKwfvBgBLUQ/xZuEv8W3uhnZaO/1+Ewzp+BSPEZd3a0+szV+QzrZq/Dk/1q5edozDi6YhySPrCEgRrzcwIw/DUBw0P1KN0zG+viE9RCz7kY9Emc+BbkIOmhcTiqljbysx4Iw8w56NfPF/LHJ8qzkJgMxMQF4szWkdj6hjw/LVsJWdj58ERxFGk8ojdNR5CjOOYT4pjV3zG5v5mIiRZzOW6hzDI8vglbnllk9X0V+k9H+FNDEewpfo4pjSe+14WpSP7HfOR8KY95Ez8TJfmHplmT8ViEB+zlH5Q+XyC+k0naRo3l3xXxO0mo+J2kltDpWP33Yegqf2fJP4h/LXkTb/2n1j/6t6alCza/3hn+cvlcDl756wU8OKkzBnRqA/vm4neSfx/ACMtptmyJV3/bEaPC2ol/H5sBVyqRuzcLk/59udbvgUP6GPH8o57waiPqVJTh64QyBA/zgv3+w4hcpabOvDq1FyYFApnrxP6/UYowaXwPvBrRCtlfpGCI1S9kQeJn8P8b5YUgN/mP8jVUlpzFuvdyMO+cul3hYI+FT/jjQXHeyrkp9c5h+2pxTce1L1SYN9Ke7CDa/3q5uw5gwKbqb66q2WCsHxSHIPGJWr7lbbyhFd+8cCyPfRJ9WhzDe9vexd+0UiKiO+32Z/xc3Y2sxBX4dv82XFD+1FG/lu07QN5LlhYeQJUsaBUDH7dKXJL/hrT3RltZRrV59cXzAS2Q/d1epBVdhb2zL8b3eRIjtc03y79nHLzKDmHzd7kwNXOAV8govON2C+PMnE/F5v27xXQI2TdIn/VymoqPYvvCv+0V5Gbuxea0TFG/LYI8A+Av/12/Bcpf2zZ/gPmPh8ET4iZ75XyMqCfo80tRruHBPvBvfQmZ3+3G9uPF0LkFYdL9kzBJq4NrezFJtIXp2v9n70zgqiq3v/+T4RwZDvN4AAGZMRAcSEzMMM0xvU6pmak3ta5D3dS68s/EaxffUuuWWle7V8tKrdQ0p9I0E3JADYREQRQUGQUEDuNB8H2evfeBAzIczAR1fT+fzTn72Q9772c8z1p7rbUN4BcwVUh3thuN/vZsgXf1ZyziSh+Opt6uiK6NVdmsLYR6PIgd2gsgTYDQQHvIytNx7Axr/0JDOPuNwiqvnlKeemz8J2K6C3Ce95N8tvAxY/2kW/0TLme72Wwx5gxFbYlQhmMFZgh2bqLdzWfgnSf84Gwg5hPaq8wQHv592IJHyvOHiEXk7vNQsW8KnxBMFdKCEbl6IZ4LsoIsl1s7xOJikQxOvcZjxYbxDZ6MKgIeh1MGP86Ekz7j8ZxLAWITCwFjLyZ8hEu5UtlCVY0bl+MEy4nDZ66hQOaAkBcXYu2zUhaOlnWYaBnWAvpeeO6NfjDPihee6Kr02f31H4/Fw6XjSMKKSTMQ8VUcMsGu9XwEdu5dideHNCVR6I7CUwkuJxWl/SwJh5zPkHtD/Car83yRQW6kRmkqE2oOHkR8YhYqZAp4jJkvCgMC1iiIO4jjR5LBqo/VUTri+dN8vu3c01DAMWKCkroA6Tz/wRNIyVFB39wHA2ZGSBk4I2HPrRbYgjpjl5AgIPNyZL2XyWI56XVKH6M3tmLyvMHwMCpAylF2f2nS+eYsE8on4MSEvHcXoq+PAlVp3ILoKC6kFUBtqoSbj6uUiRHkCAv2IfMfi6ccCpAUnYgCVjn6Vj3R7zmtmTE0As98xM8nQ3kSO98pVu4aBexCZ2PAbCkPE2MdnazZpwzef5kPf/XvOHUmXRAejdwHIGCMkEnA6I3VGD0uFEr9LKEMgpVGKTufuw8UWkHzdSqr/yhEfbML294IR1fjUlzZtwYTm1D6tMq2CAx8cQ32p5ayvhKOxZ/vEqwJfKXDbWaWN1yneMJMVorCmERkHEpFUbEcFk+4sfqQ8jBqS2pxu/gmik5w65sU5OfegpFnANxWWUk5GBtyUMyf/CjtYBIqJnH0QmyF/lF6Pk9LqdMbruH2kKsykb03iZ1PD6a9Q+DySb1rV5N8loZ8rmjSt4fpEDGJdWzUllej/PIV5OxNRNbpHDYWbGA/LRhmo6QsLE/pAfHehXtEMfJZ3gy+7cyqV/pwLrPy3lKh+LckwdIol9W1vtITrm+7oMGUaMKEZG54dDMXJ1tRkOs+rs/CyEiGisxEYayejU+X+vA0hGj1TXmGOO4vC5YPalw/IY3rg1sQX6f04egyT/SE0oFrxFTI/k1S+nDCHSGEgyvMRp6QoGNfZ2PM7oM1GD3YDcalyawcJ3BZ7Y4Bg32gz2aIvHjp/sb5CApMZKZISh9GrwBRscOumV03P4XCe+MGdj4fyArP4iw733VuZegzFk8v0fptZON/6JuTEcR+QPITj7LyivOYzNYbSieNxk/XOZE/aFqJfd9EYGovNqdnxWFzxIw7lT6tEc/G+YQobD6Tw6olGFOjNmLfhtkY9ketRNna5NShPAhLCFYXY98IxCCLMlzJZD25+ibihAciDMPO2PRmEKb3YXPslevY+0s2rt+SwznMByu7S3kY/Qd64p0JznDGTZz8JQ0n8+XoP8oZNmxkXL+qWfB1hp9SeIqEpLrnKZ0Q7MTfFlGKzItiCqf/QA9s/ZsH/IzK2Pku41hqFeRWdpj8ojX6SHmEe3ujO0b4ycV7O8Sum1oGWFjCz92gzsosqLwYhw5dxskMcZTmJ15mefmWjC3HGil9OLfP4jpbIsDQHn5/6OUmbM3MLX46G0H42SMIguggtIOrF1vkV92UvjWPoYz/SNRAXcVXWsaw9u3GFlU/IYtLgQYmkEtPZNqDzp3lkMvrlyrNcd/z3crF3sPLMenqNkw6sQvxvOqsvDCilfVwc6gubcOYuC+w6PIqzD/Hg9MZwM91cNtNtyt/FlzCFmUm4EYTv7UiXngjwA+KThWIj/knBqVsw6Kr6zEiegkGndrWpPVIy/URgtc3fImdUeMRomTrwzPfImLCFMz6g5YVhoaGbHFtxK7d1Out7PGqHy9DCY79/DbGXN6O+UnLsfx8CWDeDSPttZQnpdvwySUmMpr6YXKXp7A8wA1yNVvA/H6w/kmapt7yRcWPuihBqsf92KRdjwbDMdnXjEkG57D8l39jdiZv///hGFudKrzCsKSx0qziAt47sgLTeT9JvCQoVmCouTcvLPFh98KEnfhTK4QyzE54Gx/ye23EWDsmfLFPVfp+IZ/YXosx5uAGvFVnPVSPvr6eUHd805nPcyDINwprMY7J85Mx0JO1eUEsVoyYjwVLIjBxxm5cZH1d0WsU5tStDBkZMZg6I0IQdIEcHJ7xCmYdvCqUV2bMBXhOHCJenIIxUxZhwdafcHj3l1jzK3+qagVlDzGHwMlvsWJJFCLYdkWosJbJ/CESA6dEIGJeBKIFqwYZZFwDUUcO9q9ehOE6Luxb7necnnBz52VSIy9VSwBjghS3SOHU1plR7EDizEn4cf4qXD7xK1L27kEqX+wy6qfVg8h6bykusHQu9qjTjuLsCrbPt//uEbNo2LkYh1+chOg13yP97A+I358iCkbac/S4ADjyZi8uQGm3wVAMHgy7hZ9h5JNscKrTcXzjKjHf0PcxbKgbZMVnseflSTi+bCnOzvgMF3gTOnmjrmomjYSfOfvX5O3Y8fLr7L4W4/iMEdjC7uPAivryu3mJwTTyolfhi0mzEL9sFvYfF4VHhbVGOxGKgPkj4SzjFg/TsGs+O98/piE6SegpsPOdLGbDWLhwzWJNAeL/O0m87j/2IJ3fG+tVqlP8kzMWAX1ZGZigejZKLMOFf8zCntFj8b85c5ElGSO1XlYHwa0r+vN5GOZpKljprHhxNMYsYf1dPEPbSdrN5sHRmPjeEVwpN0XX4fOw7ZeNiJroJWWop7XxahBoKYz/qoTfkT83B2WL0pA3+BhSpv+OMm3rlg1XkT06UchT8UsOCj9OQiEbrwZKc9Q7XZWgLJnPMTYwrlPK6MHEkz/iyYdqt9R5Qx1g29sMevlM4H/6IorfykThsFPIZVKsUYgrjFoRitU5YmSezkrNj2ItyqbGIXdyGkq2sL65OwXZv3KR2BxGdeO/FtVRrHxv5aNSeApViYq3+D7b1jR6enUiB/nDWFlnZqLsYD6KP0tAHutuejZiXdVhYi5aD1aWYK+Q0BxtGddsifT3sfjx5blIPPorLh/YhCTpx85Aa6Wn2hjFxks+9LlgW5GMxAhpXK9YL/4W1KHDPOH0DJy5vpqNiZsl4ri2ful9DJ0SACN2tgvfrhLnAl3H9YxIPB3EaibnKLaPncbmnNdxNOKoqDwqTUe6VAWKHm5C/RVlapnshbvBjn2orp2pK4dF1P8hzF0GVfwafPPiXMSz8/341VlBWWvn/oyYiWExZgCU/Gfl+FIc+PtiVhevI3rSYHz24jQc/0IzYHWYE/s38aBpxKK7t9TJOIL3Z7Hfp4hvEcv6EX/AEfXNl9iwIPwO9y+df1+LK7E8p0bsfy528ExIxIioTNwwYmvuq4XYJP12vzHDH32sanB5XyLCPs3Got0ZmH6UdwA5PPyk3mxjiyXDrSAvy8Z//pmK6btvYPoHqYgXhpmWksfJDJ78gmwtc1KzNjC0RFf+QhBVEU5qFmXsfv413Bry4ut47x1+vgLM/jgFJ3mDOllghJgL6OuEPmxqqDp/Sby3A+y6bF4JWvwbXj5UXbeGik8uYcdKoOZlQzHidhawfb4VY1OTLl+5KBHGuBFsm1D8tPo73Mkeg+ReeNnlBeFBHvJzodGjEQRBdATaRfGjC0Ym3N6nCpX8F9piAFzN05B+LR01wqQsh6ydXivNJ3wzMwXMzc0g0/g1NEG75KsqRFKdwB2Dy8KKywy2wi9828krqnfrOpl3XXxCZObw5/gsG/SEH/fBrryOkxqLF4EKXG9S6dNKfUS+LD5tyxOftg2fdW8CBBsaGkChMGHXNmX30NiAuA/8+CK4PJfdsxdGsAUA36pUuawnG8DZ3F/MJlCBTRd34yRb+DoHjUIf01u4HPcF3mpWMdYCtm5CrIiqwkxUSdccIb+F67weDe3RtbHiryQHmzR1qiU0iPjDiT+Iv12Ay9rtIIy7huzIToOKnUfhNRGxvWdjpVV39GcSwYWapoOvGxrKhLrjm4FBg+ffOhMSKMaJUaXFoc5wJGM9LgqSgQO6PiGkiNRUaSn51FA32f5izJTo0z8h/ssoRC2PQGT4H7O8EZ9gala8OVA3UXd1aC/sWRn4wv6lv0rHtGi533E0cUDSkLFRTBEZC6VQnCxkHRUSBHeLZ3b9gr/+vAMvLF2GCYtnI4C3OX9SLmapo/VYFtyNYivG/ngCf/1yLSYvZueb0VOwstEWyjTxfWDeE0N5HraNHO4D/cwTOPzuAqQIrh5KeIwJZf+rRnrM96iQFESKwdaioMnas64qK8TvMp9xGLtxLbyfl95MlKltsTBZKns6ktfvEFI4crlYf6piKe8L0xHA82UexSkti4c7mq3OyuA4zm6T8tVZGVzF9brOppJ+p6zRM2IHwv45GxZB3LWG/U9dHh3K+vwCzB3eBYrya9j/3isIm/DHXbM0XNzGBNInX8GKfdegUnTBsFdmSRZ19bQ2Xm+dzBMEaHnvPnDd5Q6TeUbQ41NcUqNJZYgVLPf3h3f8IHivZJ/v9ISNxjVUi6oTeUK8E3NfIWIMEGoHBau22oxsyS2LMcROeKFAVZYKtSPk0BM2Nrqz2J3oW6Dzk2I23dGD4Tv+cD07CL5bBrB76w/PcOn6d4O/EUy29xXK6vsRL2s/KJvyqtLXdf7TfVxzV6W+Ww9i2s8nMC1KHGN9uW6zhuXZLmapQ4f4PjrNE5r4Pvpu6CuN69FsLFoWJ+P4mnk4LowTXcd1TwSEc4WRGin7Fwt9S+AJ0WqvJidZsgrUWN41tDJSuooVXZAqubU5LUTPEJZPnYz4A/nSNdlmLq4Xamrq1Vw11aItlXVfNi99tALOwyVroAbziUhLc2Lka+KDpoJ79KBJQ+YP6zFrhGglWiBYiU7BTOmYhrb8vk72MROVtmmXsUhy20o6dRmb9hWLaz4XR4z0YefIy8aOi50wwslQ2IKMhRZDVZU4xl8erhQeBF4/eR0fatae5saw4WsOLSWPs6+Z0E9U6VqKzsdMxIeIWaXYJCQAS0aKlkIXjt3ADTvxmiOcZBCW+9W1qFtZ3BKvL+/mhei/KfFOgAH8eAK7Xt2DMw26xPdpiiaszFv9HTYZjX8NmYNXeziz9cbPeOv4F60odgmCIO4vHVbxU1HGzVX0YWBoBwcfd5RdPMqETGPpKVcV1H8o4v4jxl26STWgqgRt+c1sM53NRfe9W7fqf9z/CDerBCFCbu2Ffk88fvfuDG3B2Eosg7EXJrMf/5WaLdRLWGQpzBvZSt0+iWNcYOHtU1OACwV398rPsaZcFGJl7Tqs/ppsm9yVP/kzujvFX5mKey20TOkmvHg4BhduVkDh6IcRYdOxfvgqHPJ+Cv2lLPcaX8uW7a9lbSxrSNRSLObC9a1CJBySgmtyd7D7ithH/awlBWYLLrDNMiMASj433shuKMhp0guvIp3rYV7agOfmDYazEWvfU5KbQpIoTqmZYNXwif9guHThFaolXDaALfo/0nbLEM93Wag+bQsFJdy6ikJZXnz99WpSd+CbF1+X4mdwxsJNMMKRwW24KESK22R482bXLtu6FdhzkAmC3G3DvSfCXnof037cgZ4TtaTswb3gKChltF0/mODmIFp7aQRE6x5ugjtR3qXv2V3XY2EudiZNviatDAaIVgYVWlYG3DLg7LotiL+mQo2pEt5h0zD2gx2Y8J+FwnVEdChrUal4PwoHdA8P/+MuHo1wGhKOgcEOokJOXd32bvdlGq6+m4j8vCrI3Tzh8td+8N7SH06fmmstLMxg9XZP2CvlqE5NEd2j6lymGrEhE0WsEvU87cR6GmIHXhXabl4G1mINygN7CkoazeYayNNNILvTcKlF9P5fd7iPcIIRG/95hyT3rYS7/aXTg+LdfnDxNEFt3lVkSe5g+Q3cciVUqkZjrRl0HddDl2Hkm5OFBw+58dxViY2zU+li/2n8vwxFoNTnr/4oJjRGx3nCOoBbtrHipLJraq5XeAL7J0yrj7Ol67jm1kPcjKUiGZe/4AkimmvkXtIobzWWd9oKrclw68JzabmSjn4MLryOZD4Iq7sm2yZy5RIb19ePC9k4qnUf4TC7fxUbDXYBA/DMwrX4657P4KHldijS8pxYUs5rQAZrn8fZnN7Gztga/uycj3vBmi8mau7uZ0KkE/q4cM1MGU7tKpYsUqrx4eECvHdV2MGIXpaiQs/OBW8sCMZKzfYkX+FU43o61+h0xuNd+c0U40JM/dM5517mgkJHW8kz2ZOvUbRdv4DpfqIV3OVUzYrPDMGuXGFlAL+RWtdc4AtuBIb80vp4hb+mYzl3V6swgI2nM8ZO74Gd//LF+m7ScW1CzIT7qbpWgvpIV61RIQZnbiuV57DnTAyOpZVA5vIU3ukzsd5KiSAIogPQYRU/1Wpu+iCHscuTcNW/iCu5fKVoh8789+pWGarueBx7f6isrERJiQrFxSVQq7XFhIa0V74macJips2YWAkCzp9GZbGoWNJRSdVqfXz4Cl7UwZ2hrVRX32Jr9jJ27VJ2D42WXuWFYhkqc3FMiMXTcNuS3Mjo13Q6XvEyQlVRCar07TEoaNRdKUx2lIoLp/oYQNrbQeyQYkG0CROFVhyH5rlQth1johfD7/u38Vb0WVyvNoCz33C81kRnqa5WC3XHt1u3dDRtesVVNGkvKhCCe+cLC+vmUeskTdUzzFd4bI6L383H1DdFV66INMF3577AA/bu/OUTUfkkWXaMWSEd1KLFfsdoOg5IKPzCA4T0vPivmFAzEj2HcqGnAPH/HoGj/xDdFPgbgjhZSY2eYDs9ATv+hL84Gxlauo46hi7E4wFsRc4EvT2CWwY/XzKE0zWwUKiP75O8iuXZdFZw3dD3DEVAL54uobGoKZTeDtRoO7p7u1bZklGwYhp2DQvF//6+Bmcz2RGZEkFDp0nHGVJ8H23XD24F4NaFfdYkI10SEK2tuFShQkHyWTGBc0e+ZqwM3EVFU67GykDDEXZPLw7GZ09Nwzc7E4XrK3wGI3iceFinsu5bhqk6uHi0GeHtho3cYGdE4GvpsAadxuvWHOQPjkFK0GGk/i8FJVVyKHoHw2ahdHyKNRTcuic/BRnjroruUXUuU40pQ+lFJm3p28Dkb4CRrxVboGi5eTFuFYh2INXpGiWS9haHwh+Ew82gh85OovljZYYo1Rn52rDUahTuPIvCRZL7VtrdPlWyZesV9lGTicy/srqQ3MEqmppONL935g71sd+aQLdxzS1qBsOOJaTvnCa5KrFxVshVEI3/l6OEcxexL+cmavX5OnSdJ+rj+1z/kV3zHz8inTePVU8EvCBkENF1XGushwq1FVWaa7Q9vo+1ZJlTlHTnNY8f3IFT+7TKnnkQ6f+YhG+eDsVn7+1ACm8cUx/0nKBx85RoZU58f8qrohWdcRcMe+MTRPM3N2ob+t4VklVqA5fPGWj8M6H776uZ5GJVjJPNWEH36cIrsxqXT2pi4mhvl7A9jh02V8BZaP4yxGnpSscKijFtJY+O8X18TMW4V/l5TVzzMrbszddym7qNLQfSEfZ/pzFoaQIO8fhERmbo/zRvnIZM7yo+GLt+RZff9Z7cK41RDlUTyunWfoc1b7udnbAOx/hzPDvn+rhEBEEQHYCOq/jJzWDLQMDCyQ4FKUe5BScTRn1gJSwiM/5c65NW4BN+VVXDpVRT3Pd82kqTTk/BX/gNLMCVpp44amihB8j1xKernP7WzuKT4YK0OrPce8qtc7jCXdNM3DDYqv663GKFuzE1RWv10cCd4R4txKqrq1FRUcGu3ZRwkCTWdWczyFT7pHg84vZh1j4sL9G26OmJTb26Q3ErF4eOr8PejFuQK8PwhqMYk6RNFOYi/zZrL4UMSVn111yUuY9dd3/DeECtko4bfHB1soaHYL7EMYKtvD4aRx2dvDCiLrkEOwq/wBZh5c/d2rSiP0rU1NQKdcc33QhB1BB/4algQcIRQTDdf1qM0aNwD8ZonoXjMhu+gqIpB1ekt4W0DTXUKk0MBgdMVYqLR7m+qBT6U5CE78+1A/Y+OQMR2y5JGRrScr9rKg6IEhZLF6IX1xIUnkD0cibkDH4KbrxoPFbGASETW2xPg78QfCELWVpBlwVGu4KHKeBP+AWv0UYowrzrFCua4/ovDIAzlxlyrtYLZZr4Phqh7Mx6JF/jB5TwHjeSfxGpk+9LkS0okaRt83rh8/I2SVBzGgyF9pP4+C1IlgIvVWjctxia+D6qbI1SRgm7hYPhxqRBVeJBXG7ggyGHfp37kVa+OE2+pqwMxsLZiQvDDevOKFz7VcDJUO3kr63n31VQaSpFx7Jqu3jci0DggqLxy4ZBZ5tzg211vLrIoVenqa7FrTVXcSOB5zWEkYf2HM5Q36ovcn8FOgt1zcXyhlT/ko0K1haK3u5QeBqiNj0LKu03Pp2+KYx/Q2tDqNdLihrNtj4f1Q3eDtWIaV1hxfV0VZkoafAjVovaOs0gO7eSd2D203jn7elGFSurpj5dTCAXDczYd+mTc+ssrnDLOBMn9GnWbV3HcV1nUZOOjDVS/2djxC+Q938VshPqFZUikpuYmvXbnWJKA3SdJ+ri+2jGxGdISuYVKYNHf43mj6HruLZRCIqqBox6Hh78Gq3E9zEa7n1HfJ8aze+e6kz9Neuuuwp5mn8PZfOJlja15sAWpOWI64qKQo3VkkQrcyJwCV8vmYGwexREXXw5xYcNHgw05/Kp8+9rsGgBg6yS5tdyQpt1gjpbExNH3D78iX+WQrC9cjAULZy1sTHDk135oqCV+D42NvBrHN9HowzWq8JJrWsuYtf8kH0uvyA9wTQ0xAhBQyhyXVWJ7amilqaqqLEyxhB92DzF7+fKeTGlRToHwpMP/6Lr+KWJdVPLv8PasPWyYFSlg+U0QRDEfaQdFD/GMLYNha0j3xzFH3p9S1gI+z71wR4rT+BqpvhLYGIXBlu3Z9H9cR8Y3y7HtUv371XuDxQmfng17DWsd3oBO/sPhx9bUFZdPYX3ND9glQUo5r+dNv74yNwLk61ewKG+fqJCpwmce76NQ94T8ZH3YqwKYgvQ2+yHu0GASZELFaLFiYf/QnbtidjUYzbe0XYx7/wUVjqNY1sgbIV0M3gI++Pwat2i9wL7YU9H1W0jBPV9G3vZdVe6zsbep1bgUL/pmHzX7mr1C7HDGWphIfZ65DwESkfvLZfwXuIFqFgZ+vSvL8POPqwMQ+bgHS3dyXSvUUJwwvyLu7CoOhdvJZ7B9dsG8Aga1yCfwE1RsaPwGIWdHuNYeyxEdPC4euugqu3YeJG1gakf3ghfjE2uPM9rODRwBfb2aqsV0TnsvcZN+lk7hC7BVlfWniFvY7q7doNyvLCSx/V5ZgWiWXt/xNpyfeA/8aoXE/hYPzmffU7K10b0rRGyPAJRaz7Cvl+iRPeWgjh8vlqSQL76FofT2aLcOgSL936E1cujsG0jW1QzQVJ1ZjfWtTGSYvw1Ln3JEDjxS2x4dyk27PwPXg8WBT+n4Nn1yqU+47GY3xfbhNdps/+x6SPuL34xWMiiO/5Y/N7CeuF7wR8M2KuJA8JEHn37ZfD7fxswctcOjB2gFN5kcyDidVFIKawSn6ybBiDsoxUI+mArJqybLbpbsFnA8g63BhGZ+zMIW7pMyD/yg3lSKut2VeIiW+E/mR1fgb6fH8QLLwaI84m5NTTyria+T71QloWUM8nCOt+i2zN1+bDzOK7zh7JWoRi2dQN6Ll6Gnh/twITPt2LgPMmFy38a+n60DBOWH8TIj96H32J23Y17MS6MnUWdjjNbPxPz1cX3YaLywB3S/X2GkdxnoPgsjq6qt9DJY8INb0/vv+xAX6186mt7sGeRlK9JK4NesOeSj1Z8H8XirRi3ZBle2LGVnUtqi/9MBteDqOJ3gA1zEV3KWodWIPD4Qsh5IPAF8/GcdFRn/hKFdVqKxj8UdBZymHwcCu8P+sNluzvM3nGA+ZYQdOnNFT4lKPlVEj5/KebhmFgjeMFpiytM1vrCZWU3sY8o7GD+t0ZLkC/zUMI6iTzYExasvouFlwposTcDeadLUKtwh/uWQFiudIDZp75QRg+E5xr7OxY0MncHmLzjBMvtIfB4zZ3NalW4+cMlVEiKmapr/BXwclhN4udi+Xb1hXsPI0HuVfRwavgmLpShMotLrvaw28PL7Aqb/cGw+pt4lEmLqOCKf2NXKPnxle5w3NIHNsb8bFYwn88FUA2XsCmdl80Mj/s298IEHcc1V1wLA9sNvTayMfH/PsPoT5fx+LcMBcy73PlmRwGZO3qxecBv6Vo8s3Vt/T3oOk9oLHS0xkTBwd+Fe9L37AlvjTJF175+pUCcH5xCMfSDFej5n7144bVQYX6oj+/Dblt6tby+qTsUg6fBm51rnPR6+rr4PoyiUynC+Swen4fRwlzxPsJ4DKSNUWz9IeZB+DIMjWTzCZtDnmHXFPN8hmd82DXYPHFqo6SUakRzc2IddUHUo5F5i1sdz0bU4jY+cQqYh9VL663y5rbwYEA3OmH6k9ZY399KeJiiqjXEyqFmmC4awTVgbxL/XTSA37Bu2DvZFitHKbH3H8E49KYj6t6FeKVSDLrNxvGMmY74aLInYv/hCz9+Pm0lj6mBcD3IZazeDfHyUy449Hd3SflUH9+HRw4/zxvMygVvLnLB+qHsXl/0Qew7PfBRmJgFJibCm8ZW/iMQh150ZPdvi01/Y+vZJ83YYC7E3n3N+WeZoc8knt8RWxe4s/WKlNwAI7zq6S306etX9ovKrbvGGua80LfUf8AljyAI4t7TDoofK1j59oZXd76JT27Q2Q5uwn4gm541lKPo9524lFmGzk6B8PJ1g1FNHq7FfoPrd+N7+yhQdh1xpVbo37Mn/MwNmKAVg/fOab0l6tZ2/CfuOlR69hg0YA6W9HRDfnwMLmh+oBtQgQvn2HLOvQ8G+dlDUZWLkzEbMb0Ja9mTGVuxJa0EVUbO6N+rD/rYO8HDok6cAyx7YkSvfmzrDg9B0WOGIGG/HwYJ73wVuZ73b8yPOYfLKkN4+PXBiCA/eBgU4EJ6AuL+qLsaW4gtGMWfnB/A12vXIEFKvtdcL1kvxL3RLoOfgr/a/Wd8JdUzf+X7K36sp5dewMY07sDEqN6GLRdK2IrSmf1PI2VN5Rf4PyH+gBn8HmN15u0AuYER/OueSFdgU8oqLP+Nta3MHn2CWB42XsyZIHwo6ed6v3gd2XHlC2y6kIsqA2sEBfVBsF46NsU3Dpl4CR+yvnUst1qI7zOItWV/NzOob6Zj7+FVTfYTnTDugn7DwzHsCX+2ACvElV+5G8oibK6zSIhF5KvrsZ8vTO39MXB4CHxN1bhyZBNmzvq2zYE0d722Cl8nsZtVOCBkUBi6WxRi/3v8iSpLMzatn488QjCM3xfbAoWuLUPXJ8T9YU94Cll0JwkrPtmNXZo3vrS1gRqjiffBFpsegwejby8fWDBR7MK+VfhsrNZbpM6swakTWaiokcE6YACC3IHL3y3FnlMFqOFP/xtbS6xbj+hkFWpk1vAeMBhB/ta4VaEWlfUM9X93IJ4/GefHw/rCEb/jaNQaxLOm4U/ERUGtPr6PtlCGnb8jg2t+mHDpP0Mj/G3B8Q92IOWGGkYOAQhiZQnwUUB1Zjtid0qWDEkHkXjkLPIq5LALCEXfwQPg5ySDKvkgds2fJAWJZtTF90lGSqENu3+eT46itIPYMWcu8rQ6StGaTTiexspppIQfz+fAxnH0emx/MaouwGxLbxHSju+j2rkdZ9i5YO7GzsXa4vEAWNSkI377Unzzd63y61LWxvBA4DMmMGGSzWFffnSHa1arfPcRPv/2QN2bwdo6VhpShbJ1CcjOqGJCsCeUIwLg6K9AbV4GMt49jZtfStkyCpH3yUWUlOvDxN+byfQ2qEk4g9Q1PM0I+vZ15iASkrsXQw+5KP2v8LUB1TNPI21vJipktrAfxPp+byfIKzKR/fWNeuMSCZPAALiM8Iete2eos66ye4tB7tL6H7xb8+OQkcSup7Bn5/KFtXkRMlkeIc1IdofnccXC08jKqoChCy+zN6wUhtCz0Sh0qlDyzzjk36wVj4e7wiD3PK783zmWpg9Di4ZqpJMZu3CMjRW561NY2cDKVULXcY31OHMgGSo2nozcQ/F4NxsURa/CN/uS2VgvQN4d7lxrcHw3zy/OA33DAmCqVqNW43ap4zyhib3TYEwc+BnpXGcAN/i8pNEQ6djXt3+Fs3y+YSNNGTQAPubpSBQsiLTj+3Dl0gnw0HiKgGmYsGAyfGqOIlGwINSK78PZHoUDuxNRUKFg98rnilC4GRUg8fst9dZ+R7Yg9mg6ilgdO7Nr8jweVkDWqS34ptE8IdDKnNiYi9uWiQrb73bj/RVtjMyeuAZrtx2os8qLkZLvGkNLjB3lgf6uYn9V+HlgRB/2C9fEevrk4cv48JdCtlY0gUcvd4wIc2Bz3U3s3ZZTrxCpLsSO6GJU1RrAxo+t/brW4JdYofEbBnFOvoFfrrIxp1Di5b8HYEaPGhyS8tXH9+FUYsl/khGfx9cUjug/iN2rrwHyzqZio+aBTlkZdvyUyWQAAzh3d8GIQe7o48LWuhcuY/k/U/HWHdbt1Vi+Ox3XK25D4c7yD3SEh+FtlDQh+TibTcXzXENfeBb/ybi7eIv1GEHGH+CVFbYhrhBBEMSfTydf/5A/KlI/9PTtG4Ljx+uckzsgo7B31FPwKL2A9w6v/3NcsQiCIB4U3tiKvw51E1/j3EDhQhAdCEP22/00++1GLg798m/ML2/FTeeRoicCtq5FiEMB4leMwNk7jY2JDsar04PxckAnXNjxG8bcldt1++AsH4f/hPdj4/A6dvy0Cm81+TC0LWjW5OnYcWYffim7jkO3aGwTBNH+tIPFD0EQBEH8eWji+zSwMiKIjkb1brz8y0kmbtpjUM9x9W40RH0MIa34PkRHpjOC3LiZi3YQ5weB7lgSwpU+XPm67h4ofTgHsSOJu9+7YeyAOfhX1z8c4ZsgCOKeQIofgiAI4iFCE9+nkesHQXRArpdvw6Cf1uOt41/8wbgiDxmjvYVAytrxfYgOTFNBnB8IzmH2cTb+flpxDy3uKrDp0tvw27sKi37Yhq9yGrvKEwRBtA/k6qUDHd/Vyw8vW8lwvTQH8erc+pg+BEEQjxwjYfeSDBWp6VAdbTo4K0EQHZygAVB09YGiZg+ydjcT94roOBgZYISVHB5WVfgwsU2vEiUIgiDuE6T40YGOr/ghCIIgCIIgCIIgCIK4E3L1IgiCIAiCIAiCIAiCeEghxc8Djp2djfSNIAiCIAiCIAiCIAiiIaT4IQiCIAiCIAiCIAiCeEghxQ9BEARBEA8ePtPQd+tW+IUrpQSiZZRQLN6KkR9Mg76UQhAEQRDEowEpfohHCv0xCxG0dCEsnKSER5R+MyOw+t3ZeM5FSiDuMSGYuXwpVr86Co94V+vYhJrA5B0HmL1pIiXcKwwhf8cJZq8ZSfv3ChMYrXSASYRJB/rx/rPK2gpOk9GXzWF+Dtaw8XKVEomWcYW5szXsgmZj7AeTpTSCIAiCIB4FSPFDPBwEhULWmoTdaxmGzRuLngPG4vFJUloz6IeGPphPRP1DMLCXg7TTHLMxd0Y4Bg4aj1lvDJXSmsIBIYNC4CvtERwd6+TV6XhpeBgGvvg8Fv9FSmsSL/QbFPyAK4ce4H7iYQebEQFQhppKCfeI1zzgMsIfymmBMB8jpWlYFgjf+EFaW19YTpGOtYopzAYFwGWo3f2Zn3obQs9f+t4cLZW1AXrQG3Svlhyh8I6aDT9zNbIOLEX0+hNS+iNOq/P/CVyfw+rrmhqKoHkYuTRUSicIgiAI4mGn/RQ/+s6wDXgJfYbMR9+wZ2AsJd+BrvmIBwAlvD8/gb/+3NS2AwF3tQYdjJ472P9/sBA+jlJSc5xJRnpyOi6f2oJjq6S0O5iHgT+dwLQl02EvpTwwRG5E/JdRiJwVJiU0x25891MSriTFYt+3B6S0xozHhl++xIZ3X8ZEKYVoQ53s/AGH46/h4q+Hse07Ke0OFmDnb59g7VuTMVBKuVumbtiF+N9+anKL3jBeyvVnQP2kSXZcRXZcDvJjLkK1U0rT8NtVZOxNFLb8fCntD2KyS1uRpL2FwGyElKmNGH7aF76fDoDtc1JCc7RU1jrsYR8/EN5vu8JQSvkjGC1diLAuMlQkbcGB90jpI6Dz/H8CKRFbkFIB2A34P/RsSfdPEARBEMRDQzsofuTo7DQGQeFj4KU0buEGdM1HPDiMhYtg2lCAlIMHcVx727YFiXezfnd6AnZW7LM4GxlnxKTmYdd4eRKO/mMN2Jq3aSb6wJ4/Ss9JR5aY8hCSg6+XzMeYKRF4/5iURNxbMnYjYsYMTJy3HjFS0v2gKj0W+/cdabBt2/utdJS4b2RUoGx6IvLnFqNWSqpjdzHK3soRtopSKe0eUZYgKpTqt2SU75UO/lm0VNY/hWno9TiP6ZOFxE3rxSSibWSux6mj6aiBNfxHzZMSCYIgCIJ4mOnk6x9yW/p+fzDoB/+BPWBSkIyUxEI4PBUK67JkxEf/iHIpi4Cu+e4DffuG4PjxWGmvY8Ff556Xd48eG//ZjFuLCXN6QpFzFF9MWgy1lNwYt09PYKBnFs6uOQrj8SPh7aAQ3BqKzqzBjkVbxEwzNuCFFwIgE/cakHf0dexZptEiKeH35Q701falubYH/3sxStoRkS3dgRcGNBUgVI2ULyYheiNXA81G2P5p8DZKR/RTk5AiZmBMY+mz4S3LwvElY3FBRwWW78yliJr0OLpaiKVQZcXhu/cWaSljuEXIUHRN3o0VqcGY+3QXKOQsuTwHMZ8uxNzPc8Rs/Envs13E74248t3TGLNc2hGsM2YjRCHtMlRn1iNslrZi4M48dRTFYUX4InzNv/eJwL6Pw+FUnoRP+83HOiEDw4Xd8252zyx9HUv/VEpuF1zCsXjZyxgWYAUF70BVpbjy0ybMW7IbmWIO4PmViF4QDPWx9dhnPAp/CXYQ8xZdwteRr2CF0BY61glHOl991lLErh6NWV9JuwJSu0p7DUg9gKAJq4WvMzfux5wgGTIPLcLwN+OENA637nm9lykyf2DpEWK6Ju3O9tRmPKK+GY8wF1YfvB9xVDmI3fkRZn3YaH5jdff6khn19VGjhiojHt9t+Ajv/8D7XRvqBA4YtjgCC4b4w1rKf2dfZ914508Y7ca/sTp772Uc7haFuUNYn+fXT2f1MmZ1m+pEJ6a4w3WhJ4zSk3C13BlOPmYw0K9FVVYKrs/OQHWGmI1bv3j0NsHN3YeQu7T5tLrzSbtAGXJXHcfNL6XdRnBLHRe3FvL0N4flP7rDVimHXk0VSn7LQ6feLlCoUnE5LA3VUjbxPGh4L42R7q322HHkGXlD2cMGcla3tTczkLH0IiqkttCU605KkPvuKdzcKu3qVFZu6RMIS2lPm9rUOKSMk367ZnnD/W+ukGclIWVYZr0CSbqGPCMRqSNzxPQ5n2HaOB/oNzGP16M1xnh/fDEG3VdPxzBP0aXvyvdsXowUvuo2T7A+/Nxyrf5YdA37f6vCsHCvBufS9MPW0jitz/8M/1GIipyOge6mQlsJ4zA3FYe/XIPIbZfEPDrP/41wWoiBn4+FG5Jx+OlpSJeS63BhY3wjG+PWanbvkezeO+YaiCAIgiAI3bj/hjS3YpB89AucPvMjiquktKbQNR/xwKDo4SYIxKrrZ5pV+gCToRRCFCjR828jYZ5zFvGJBUJ+i14j4cEPMfRLUnDm4EEkZopnKkjSWA/twKl92pqXx1CcIB6Lvybmzbvyo/CpjTzjrJDncjHfU+P6Cc35tiBeUPpwVKipkb5qYbR0JLyZ9FMU+5nOSh+nF1fi01fC0NWoFBd/PYLD8TmQKYMxNXIlpkp56vAchcVPM6H2zBHEpJYCxg7oN2U+hkmH8Vu0aN2RWCjs1lt97MauQ0KSRCpifpAsQaS8d6LJE4srgoa1EAmS5cj+nUfqhfmTB3CRV4txF3R/XkwSmOApCFtVKafarPTxM/TCCHlTmxv6dJIy6UwIIj9ciOeCrAAmUB3m5VGbouvw2VizJFjKU4/1E7Mx1UeNC0eikZDH+omFF557ZbZ0VMc64Vyut7hJKJDS7iCJ3Q/PkwQhS/k1xEj/8zXbNHx6OhV86nPyCteKARSOECYEcqutc9+3QcEhkApUqHHjMq8P1ufOXEOBzAEhLy7E2melLAJi3U3t5QBZ0SXh3mJ4f3EJQoiPRtOje52ELInC0vH+sJblIOEQO1dSYX1f1wouHn+E/a/QL01hNngpXh/uAHVyknh+Joxz7n2dSLj5w8VFhRsHUlCoYvOB0heuq7gpYRu5nId8ydrmj7txyWH2dgjslXJUZ6Qi60gGbvs6aSkV7w6jJ/rA1bcGRUeSkJdXDT1LF7jMqS9rza8pwv1np4s/vPVWRBeh0ih9ODqVtQhFQp4MlPHd8lxkS/+TuVdrDtqQCxVvZ6U1jLT6hF6IraBYKj2fV6cMsnBTig8CMlsy8RTHmDAGFaYY/t5sDHNR42LiNaH/qFkbi+g2Tzgt4P2xCxS3CoX5OibLFAPDvaSjbUe3+T8YUSvmCcoqtXBv0ji092fXDqrv/zrP/43I/Bl5N9invhLKcWJSA/qHwM+af5Gha2Br7mMEQRAEQXR02sWDqqbqpvStZXTNd7/p3FkOubwpW5OGtEe+e3kufX09GBkZCVtrtH4+JRyd+CpSjYJcFRSDB0vbgIZBmQf3giOX4SqScXTJYBz4+2LEv3sWglxRWgDNer1m+ypcWPEraoz4NbNwedNSts+3VchrIA8cRNZ7PH09+1+eV4XcxLPiIS1UG6NYnnzoS9dOjNCcj/+fhircEhQ/CnbfQgJbwc9D375Kdm9ncTRij5QIGBoaCvXWuXNnKUWbYMwZw61CChGzYgImzovCghlTsOJXtnC3CMawNxoH58zB/jfFfHMXxIpPoWWGsBGOMb7fhAgmXEekicKxOj9O3F+yBptPCkkScdi8gqfX570TTZ445AtlLcUV4VxsW6sdDygOX5/nlh+m8OgdLiYx5gTyt+uokXyigYmLQGv96fmgOVg5pKltNmY3MkBouX4ZM6dgqBtr7+TdmDhqERYsicCYKbtxsYYJMf3HY7SUrY7yOLw/ZQZmvbkMU7eeF9tcLloH6F4njJPfYoV07Ep9x2nEAawT8lyFoGesKUCs9D8rPtdSXHwSh2QuDLt4oi7MSp8wuPNhlJGEXQ3aVkJuhWHDw+u3BoGjWb94cQqrB1YfW3/C4d1fYs2vvA2toOwh5hB4dbpYd1nRWDDoFcxl9zWX9c+wMTOw4EPJykDnOhmPl57uArnQ16dg6pvsXFPm4+skrlwLxnOv1AvXu9ay/5X6pW+QKzK/j8TAKdHC+VUqSUlwN3WiC6o0pE1OQvFbV5H3xnmUsCQDH2eYtPWtdyfK7p0b10IPOLBBXpuVhKsj01CyKA3Zk8+LfaYZ9I3l0BuhtTURmFmv/CorawJuLspE4ZbrgiJET14feaf2s3zh/stv3BL21WliecreKoaYIqFTWatQJeS5KSr7a1Qol/6n7DNtx7BiqFL5nVjBpK5h9WDiac4+86HaXZ/XwkJUfZUXHRQ+m0YcY8IY1PdCoFsOdvE59CB/iFCKEslYUrd5gs3X/b1YHwYufjdfnIenTMC6M3fbwLrO//3gKxih5iB6Lr83zTh8BTOXf1tvjaTz/N+Ys6gSGoX9ngmWdo04FosLgmZajSsJ0UISQRAEQRAPLhQ6p41wQdPMTAFzczPIZFyR0DTtke9eX9PQUAaFwkTYDAwMpNQ70e18mvg+MrgNX4YJizXbvIZBmYMcYcE+VMkHcVljPfOMo6DkqMlJRp6YItKm+D7S9SvScb25AKStxvfZgSJB6pJBbiYkwHrhSLjJ1Ej/IUq03pAwNDQQ6s3MzJTVj8avRkM4fLlAWZ6DzJp6IV2dkSNaM3g2erpano2LGvP/DCZISV/bm9jvLgnChzW73xAhZTy6cyGqPBXRTZj7tNaf4i7HYO+ZprZoHKuUMkm0XL/A1N5c2QBkZqaiu0YJEpiKzFyWaO2AICGXFgU52Cy59TSUbtuTTTh1mUlm+q4IekVMcRriKihyMs8fQFOOF4qA8YhaHlG/NQgc7YXnlm9E9OmfhCCw/Hhk+J1vAJrTw1Wsu/PfN4xPxPpnveuLjvTxh5Ng5ncVsd+LSVyQfT9VlLyd3MWecwcF8dgsuJZIlkW/porpd1EnOlGgqnPrwombKBU0zaaQPSmktAuGPhbCD3TV1cJ616eM2y3G0TEb1B/e79RvTQZm1i7rrZoWz3c/qTqZg2oYQhHIlT0MF1sYK4HajGyUaVlStvCT1SwFZ75FJJ9DBYu8w4i5LKbrNk+EoKuggLmGi+9pNEZ/BF3n/xgkpHHNjAOGbf0G29bMw0yuyM24hIua9rtH6DW1Esz4FrMGPY2gHsPIzYsgCIIgHgJI8UPcH8b5wJorVQoTJRcqadu3B6laShs3L/HRY0GqFMuHYeHnJtjq5F7ZISZoGO0qvHlLnZmIIjGleTTXbyFosyLQTXAryLt6pytYk/SKQEiAAjXXfkT0uubO2gR/sYYg2hj7M0FcS0if6C8IIQqbpuM1dDhOfi+6eym98Fwf9vl8CPyYkH83bl6cJNU5/JLf1JaEC4JVie44WYjWOk7hC+rrd/kCDBQEOCsotd3TOjDrTnLXJhl8+kxnew6YGcj7RvMuTXcEd/4hFhelYyFRS7FYclfhLlfa7iHa2CpEybqq4i7dprTxMIWkI22aOquqhqjS4rBL+CZaFmlbQrW1TtpOFWr+qLXOPaQyr9lQ9HfQOLhz0W/SgQeBj3NRXA4YetoL8yBeshfmSW03L04B98VrE6W4fFKyQhMs8uotYXSbJ0wh478d9wqd5/84RC5Yhc2/XoNK3wq+T4zCnHdXYt8vGxE1vqVXtrcVFYqvSV8JgiAIgnhoIcVPG6msrERJCVsoFZdArRbspJukPfLd62tWV6uhUpUJ261bzZtB6HK+uvg+V36UXKikbdVnWm/Y0sT3SUeGKPUxesLFmf9nAfLONlSu2HmKsR7y0lp/s4vm+s0rdZRw7sL9RZp2BdNQL3QooZz+DJT6BUjcFiW6MWhRXX1LqLeSklJWP41sdL4rEN01tGK7aG9f766P89KxicPhVK44cID7EAcM6+3K6rhpNy9Oa/2pLa5eLdYvI7NIlNwLEu+sXx77Yn/Tt9jx+OQ80moAuZs/pmKUaCnQgktTvZuHtK34ts4KZpivKCxydxXucqXtHqLNDZXYm+X690C4LKq+Y2w0QIrd0ybaWCdtxwgyyeikI9DZrnVXWw31blniVrVbOvBAUIyyjGrA2AbGU1gr+FqxBUpDNy+Oqkicgy0dJwuffwTd5olSqNuoeG6Rtsz/GUfw/rwZCAt9GsNnrceuJHa/ii4YNksrxttdMxk2QmgnFVQagzqCIAiCIB5aSPFzF3BBs0p0jm+R9sh3L89VU1OLiooKYWuNls9XH98n+0Ijqx1tNPF9CrORXedT8oyoDCpNR0aDkA6D4dJFVAjl/iqmNI/m+i0pdcaK11FnIas5VzBtHBci1F8GVfwWnG0U5oVTXV0t1BtXit1JHNK4z5qxFWSpGxsI6us2bGwY56WDs/9QquDi1tXneQz0ZFJEM25enNb6U1tcvVquX2Dz+WzBbcLagt2jVv1GsPpdt2STZE3yILAesVwoU7giJLIb3PX/oEsTG4NqlcZdxQFTlWJQX20lz67zV4VPp+DZ6Cd8k3Bx0IoXpCP74nCZy+n8/usCSDvgdU/xeplpd1OSNtRJn9nY/MtPiP9tP/atGi8lNoG+VvTw/lYw4q+hqilCZTNv4xL5c38+qzNUgqWL3Nm8/kr9DdC80+2DT8Vpbt1jAtMQe5i4GN7h5sVRn7gqWHgadekluAX/EXSbJy4hXzApdUBXyb2Qf7cxvgufMwHd5/9+Q+qDmGdyd7XFUow3awfJvfYPMFTze3u1aVdp/lavQ+LY2Rn5h69GEARBEEQ70w6KH2MY24bC1pFvjoILD/QtYSHs+6A+xKSu+YiOjya+jwr69svgt1hre2O2YIkjoInvc+0Myykxww127OOO+D51WMN/5vvsXO8jbOtnCNAEXWYYvRAhXScCPvz6NSoY+PD9hbDrJea5A5k7en20An5L1+KZrWvhLCVrKMgTpFh4jAiFhToZsavqXdJ05wje3xrHymiKkLn/wc4NSxH17kps27sL+76JQmR/KVtb+S1HUMLwOC/b1kRgNRMiDn8ToSW8B2MqqwvBrUB4CxIrrk2wuL94fCNBIhoXs7girwsG7l6J1cujsHnvl9jwSiMrkH0/iQFAXQain/Lu3bw4Owq3Y1FmU9t+bGpr3J0PN+FAOrt/l3CsPvQJ1rIyrt3I6+NLbNswvu0KDAEd6qTPeCyWXDe6Ch1bBps+4v7iFxu/TSwJWUKDdcOLPOYO6wM7f9iIqEbt//4ZHlDZCr2f9oT8D7g0xV/j1lkyBE5k9/zuUmzY+R+8Hiy5ugTPrgt4nfne9zjMB5syrL7uvvwGp3ZuxOo3Gr/JqLU6+Rabf+ZvUrJCv8VfYvO7/Fwf4Tl/NqMXxeHrT+rLMnpu4345D1O5C2ET6FwnQx5HoNQOTr1DtN6Y1AiXALjvcYfZSnc4/stfcE+riL1aZ41YU1AhKGEUPZwgH2EE+dpAdOndhCVOqAlM3nEQNiOhKAbo3EfcN5l258/trZv8CiawmuwNs3dcYbPdRXRz4mzKRFEV+5F26QbX7a4wWesLl5X+LHfzyNyla2lt8lHSwTZSnVwkhLsyDw+E5UoHmG8KhvJTLVOoNpW1CBU8bpLCFQ5bWFlYPdsd9Iei8Vy3KgdFNaxGenlBYXynm5fAwa+QwrUfVj3Rc47gk9UEQzGn8Ri8Y45j6DRPHMHm01xZysbOVN6HxbEzlffhRlzMFy2InIKXYubwUZiz5kvM6SX26Xp0m/8DZ67EiqgI7DvCrsnmc2F++FJUBFWlnsd+MVs9rc7/2iihHNFT+L3Ni/+qaVdpeqsXQRAEQTxUtIPixwpWvr3h1Z1vovsNOtvBTdgP1IoHoWs+osOjia8Da3gMHoy+2luwm/DEldNUfB/rgGbi++Agzn57Ajz8hZF7KPoO7AkXdo0q4TqcwfAfPVK6Tk/Y8XR9JfykfYtsMVc9a3B8dzJUNTJ2zQHoGxYAU7UatY0VRDVcyGVLYXZTWYfXIL3N0W5FMj9fhJnvHcEVFVtU9woT3r7kq1Dj4k+7sU0TyLmtfB+BpdsuMYGCx4MIx8BgB8gMDOEXIB2Hp/AEWQgmGiBZeriFiPtDQuArpGjIwftvbEJMVikULsEYODyECdAydLZp/JqgI9h/vhAwljGBtXk3r/tPLCJfXYXNZ3KgtvBCP1bGfgGsPrJj8d3O6LYHKRbQoU48pPpkW6BGaGJtIaQ94SlkqecA5i7fjYtM6rL2Z//HA7eyfiX3aVTHq+Nxkbs2cQuDP+DStOu1VfhacBVxQMigMHS3KMT+96LENGPtWDwHsGDmGuxPKqyvOx9TqDPiEZtQp5KVaL1OYiIj8P6+SyiocUDgIOlc6dFYN3dRfUBtRlB44345EP08hN070bVOfjgF8ZbVyDwdi81C4p1UJCWhSN8FDoM8YW5chRKWN+MV4QXkArX/SEJ2egX0XPzh/k5fKL0rkbM3806lhIcdbEYEwIVtNsJr9+Qw7yftP3Gnoqjq7ThkZVWwqcmVCeLesLK3gXySdDCjEHmrE1F4k8e98YZTqBWqDp3FjRZedmkSKF5Le7PQfmNbW1iVhKvH8lFtbA/7QQGwDzSBvtywftHQprKyOv1nHPLZvRv5e8NlUFeYGRqgk2/jJUghVKnc3cuIne1ONy+Rs0j86gSK2NhyGx4JZZNaXH/WFxuNwTvmOI5u80RsxEdCnioD3ofZ2JFdwmE+bhoRG/EV9qeXQu4ShjnL52GiVyF2sb7fGF3m/4RPN2AtHzf6Vgjk98/ydJWV4sqv32LZgtV3Wri1Ov9rMTEC/bjiqvAEopc3YwXL3+olDfeqonsR1JogCIIgiPakk69/yG3pO9EMffuG4Pjxu3eu+DOxs7NBXp7wChrifhAagaGRI6EsPIotkxZrxSd6lHkem2OmIxBJWNdv/l1b/BDNExL1JTYMcUDmD4swPOLBcQX8M6E6eUgJdYDykwCYZiQidWTOnco1CaM3tmLcUDcg8yj2vLkYRXephL9bpm7Yhdd7meLK909jTKSU+CAQvgxD3xwMJdIRHTkJKY1c6eoZhQ1H5iHEohAxkRMwt+6tfARBEARBPIi0g8UPQTyIKCGbuAzPRIwUF8wfkdJHwH8oIreOR6AxcOWnTaT0uec4IOSVKKx4ygFQxeFrUnAwqE4eWnqbwXyZL8xQhhtfN6/04VS8twB7jmYBTgMwcM5IKZVomZHoOYcrfbIQ+/GCFpQ+jD5BcOK+YMnRWEFKH4IgCIJ44CHFD0G0ykIM/GkHXpg9GM7qRPzY4lPSR4fAyI2I/3IBRvuYoiD+W7wfSQL4veV5bPjlS2yYGQJr5ODw2tXNuio9OlCdPKwYftoX3p8+Dke7WhQfisPNFgNrc7JQtGwstr8XhV0Re6Q0omX24GxEFL6JHIvE3Q3fknkHT/Bg7mokHFlzl66xBEEQBEF0JMjVSwfI1etRZxoCPvCB6tR2pG9r/lXvjxzPLsDaQcCFQ99j3fd3xrEg/igOmPPuAnQtiMXXW79FrFY8nEcXqpOHlnlOsOxSgdJvClF9WkrrwDj1CkN3T084lW/Cp2QRQxAEQRBEB4cUPzpAih+CIAiCIAiCIAiCIB5EyNWLIAiCIAiCIAiCIAjiIYUUPwRBEARBEARBEARBEA8ppPghCIIgCIIgCIIgCIJ4SCHFD0EQBEEQBEHcM5RQLN6KkR9Mg76UQhCPNnqQfxoMu3fk0n4j/M1gud8fJkOk/WbQf2EtRm5cBoWTlEAQhM6Q4ocgHjTCZ8Nv6TLYhUr7RMfDZRRef3cpomaGSAnEIwW1P0HcHS5GkK90gsksQynhwcTojdUYPdgNFrY+JKASBMPw095w7W0Doy6dmxY+H1PAyNoJLssCYdJfSrsDJRRdHWHhPhijoyJgJKUSBKEbpPghiAeKaQhbOA19BwzGgDFjpbRmCAqFjBac7cLAV5/H1EFhGDbrZSyW0prGC/0GBYOa6eGC2v+PQHVyB/6G0OstfX/I0fu7P9wH+cNltlfLQl1HrpOJazFyqBtkxWfx45uLUZQppT/SdPBx3Zv1J3/p+31DD3qDHg0xTG9ZIFx7m6E2PQEZU4tRK6U34JtMZH2Sigq5PVz+nzfkLlJ6A7JQtGwefoxXQdZlJP6ybraUThCELrTf69z1nWHrPwQeTsbQK0tGfPSPKJcOicjR2Wk4fHycYSJju7drUFmUhivxP6KoqkbMcp+g17nfW6w/OIjRQQppT6L0LHaNnIsCaffeoYT35zsQ1kXalagpLUD68U04umKHlPKg0BNuKxfCR56CU+8ubWZBORg9dyxDkFUWYheNReIZKZm4f/SfjbWzHodZ2m4sXrIbTa/7F2Dnb0PRVRWH959chM1SKvEQ8EC3v3Rf0l5DrmFXjxmIlPbuPTQm7oAJTL6j7FFx+jiuziyTErWY4g7XhZ4NlCS1NVWoyLiKvP9cRdUPUuKDQn9zmL/cBYZXUpH/VoWU2IjW6qQ9cZqNsE+nwduI/f5GsN/fE1L6I03HHteGn/aFR28T3Nx9CLlLpcQ6TGAZ3Rf2WkvW2qoSlCZdxY2VOahOkhLbjD3s4wNhqUrF5bA0VEupbUM6h7TXJPkXkfJ0RtOKlvtFfycoP/KHWflVpD2XgqoMKb0Z9FYGw3OQDWqTzyL1uUIptTGhCNj6PkIc1EjfPgmH12VJ6QRBtEQ7qJq5QmcMgsLHwEtp3MwNyGHi9QJ6BDhDVp6O9HO/4VpuFWSWnvB/YhTMO0nZiAcS9fkTOH7woLDFJqvEtGuJf4LShzMS9rb8swApwjWP4kJaAWpMreExeD4GPHAPC84ifdEk/Di/OaUPw+kJ2Fmxz+JsZJDSp304th5zp8zA1GaFfuKh5qFo/0Ik7DuC/drbtwewXzpK6Eh/OeRvu8Nxvztb2fyJlOcie28iMvamoDD3FozcvOHeostEB+VYMYonJzav9OngyGYMhrcRUJG4h5Q+9wMXPehNMofZlhDYvfNnijTFyOfj61AqiorlMA0OgMem9h5fRSgSxry4ZadXCallCfVpGbvz2lfpw5BPd4cZ+yw5ltqq0odTuygFN5hoYODD/m+ElHgHJ5C44yxUkMHtyXlo9CiZIIhmuP8WPwb94D+wB0wKkpGSWAiHp0Jh3ZTFj0E32NmWIS87XUrQh0XAy/B30seNsx/h0g0p+T5AFj9/Hm6fnsBAT+D6vlD8uEo7LQtnN/4O+7ED4GwuA2rUyPplFQ4s3yNmQk8ooxYiJEAJC1OZGDyxRoW82M+wJ2KLkENg3FpMmNMTisIT+Gbs6+xHgqOE35c70NcJyDoQigPvCYmA02C4zZuOnsFusOBWZk2cTxG1FxNCFUjZvR01j4+Et4NCuHZRPMv39/VQi9kYSijmLES/Qew++f0zaoqTEf3uNFxusBj0gfXixQjr6w5rVg4BtQrXj67HTyt2QGPbZvfBQYzUtpJqykJqxga88EIA+xm8k7yjr2PPMq0L+4yF39+nI9jTGka8AE3V3Rtb8dehbsLXohNLsevME3h6qqY9knH0RVaWzNkI28+fbqYj+qlJSBFyc6ax9NnwlmXh+JKxuKDDAjhy508YLVyuFLHvvYzD3aIwd0gXKPj9pR9A0JjV/CDDCzNXLcbUJ9gxLknVlCIz7gBWzFqPGDED8PxKRC8IBs58i/3GQzHaxxRydh5VViw+fSUCm7UXH/7PY/U749HPRcyDqlJc+WkT5jUQ2h0wbMECzHk2GE6aZuD5ft2N/364Cfs154vciPhntc3LmrKQaMGiIpWVc4KmnAyXcCxe9jKGBViJ9dBUWbXPVxSHFS/GoPvq6RjmaSocvfL90xgTGYyo3SsxzEWNhE+HYeonwiGGA6v3L1m9s/RPWPqnUnI7QO3P6BDtrzlfK9Y9z0dg5wshcLKW6o2hyorDd+8twvvHxP06/EchKnI6BrpLeVk5CpJjsSEqCl8LT8zvcZ1I7S80Ff//taXY8MYohCj57Mj61+rRmPXVnzMmDN7xheOTTjBSMIFUShOoKUH2B6dQ/KW0P8sFjpM8oLA0ZPlqUZV1BVn/Lw1VmrqTrFqa4ubOQ8j9p7SjsfhpZDlg9PUAuPoYouzYMWTMFwVCuMhh8s/usAs0F9qBWy4UHUpAnpaSRbR+qEHuZ5ehP+oxWLH7Q00FSn+NQ9b8RtY1jcpw62Y2sj9JQtk30nEBPRiyOnEY5AgTOa8Rlk9ViMJDF1H4Ty3lzh3lzUVGUAIaXFHXOuH4m8Esyg92LmYwaKas2tZStalxSPmoGpb/6A5bpZzddRlyVx3HzcsOUH4SIFor9E2BVJOsLu1hvycQlg3SNda2KlxYNxjHtwuJd3BP5zpO/9n1/ZutlTLjYpDpHo4QmZaFjWZMaJ+/qTSG05B5WPHaQATaiXNIVdE1HP4kAhHf5gj7IrrMiW0Y17rCLcJe94Wt1K7a3GJteGVcvqjo0Lmvm0h72pQg991TuLmVf9dY/DTsj4afPg733masvRKQOjpXvOYUB9hN7QqFtQkMhXtrYly3YKUj9EF2/yJ6MPqkO2y6m8PImI+vZvqwFs1bLulBsWcgnFyqkL/hGPI/lpIZJrsGwcWtAnkfx6BwA0uQxgROxyLfhM1lPryeeTlScH12Bqq1fzuH2MCGtYWVnRG7QnPj3wp2Z3vCSp/V30hWf9r/3wIGax+HZz+zhvPXHYxk4y2CjbcCxK8YgbMHpeQ6QhD5TSRGe8pQcHI9pv7tW3oQRzzy/Jnq8aa5FYPko1/g9JkfUdzcWObcOq+l9OHUQF0p/oPe/b9r4k9hMpQO/DMLWUeFBIYmTYmeL4YCF48iPk0F6MugDJ8MDyEP5yyMjGSoyExE/MGDOBufjqIaBexCpyFkjJSFIevmKCz+VdfOSEofzmDYcIsYFCAvUUhgK53JCPloGQY+rgTSTuD40UQUCOebjbAXpDzsnhydrNmnDN4jxsHuxlnEJxYIyh6LoLFs4SRkYihht3IDJowLhU1NFi4cPYoLmSrom/tgwN9XaD2ZYPk+WIPRg32gUKfVlUO4rm8gjOuc4QNQc0WykkoSVT1NWUjpl6TgDMuTmCmqnwqSRKuq4wd34NQ+Lc1LaASe+Wgh+vrIUJ7EznsqWaq72Q0soGTXztZdr9zoWYz92wCY5qQhi52+Ju13XBZ+QVWoacLz0mjpSOGpZ1HsZzopfTjxR45gfyI36zWF2eCleH24A9TJSbjCNcJsQSnigKkbVmJOeBfISi8hZl80EnJlcOo1His+Hi/lqUfB0p9zKcTpH2JxhXUAhTIEc96brRVnYDw2rGUCqZsp1Gmx2H8oDplqU3QdPhtrIrUC886MwNLn2QJXVoiLv7L7ZPmuFMvQ9YkwhLhLeTi/RUvWEex6DX1XtUjCYSFPktiG5ddYOfj+EXzNtnqCEbl6IZ4LsoIsl/9PLC4WSWXdMF6rDOL5EvjJFKYYzsrHhdmLidcEYUQtdPw47LrIF+0yuAdr19Mo+HI/+vJURLdRwHU2cMMIuVeTW/9GC3JdoPZ/sNofl5nYeqsQaXG8zNGITS2ETBmMqUuiMFrKIuDC63ieoIhSZ8Wxe2V509Qw9fFHSBdhsmfc4zq5zNpS0waWrti8ZDxCFDmITeb9Sw11Ec907+uEuyh0HeECI9zAjUOJyE4qRnVNFVTHjuNiTy2lzzQmXP3NF+bGFSiMSURWXBH0lJ5wXeaOupDGv10Vn9gnFAu71ekp0lP8OBQeEpJapLaq8XN+Q5isCYVLsDn7yU1F1t4UFLG+bjXicdi/3XhRZQbbad2hKEhDZkwmqlmJzPr3ht1C6TCHC4i8DGZqFPEynL6BGksnuCxoaAWh9/+6w32EE4zUN5DL6iQjJgPlt6xg85QDDLVjeGjKy+6ruLmxo3OdMGF93eNQsnFdk8byHEqFSm0mlnWZVtDoy3nIl66nZ8Hu6e0Q2CqKcCOZn/8Wang/OZEHFfciMbaB8RT+TxLPWYPVJKqSc+qVQeglri3Y735WM0ofzr2d64ZiLe/fShlUGWx8HTmPKp9whPClyt3QfwHWLB2FQDsg8wwb279eg1rRBcNej0JkHykPR6c5UddxrSMu5rD5fyFwdDNi9S62a7GqFrWqDFydfwipGqWPjn295lex/9xpKXMRKkHp0zzV/7wqrCn13OxhpOnHbE6svaVC8W9J7BxJyE0thT4f12+7wEDKwlZFkpVOhqhEqrPUS0TmXm23JlYutri6lZWFXH485irKpD7cYBzqRC3KLnKFkhwmwdqKLiuYCHNdHsq40kcLee8QOLmocONACgpZQeVKX7iuEhbOIv3t2VgKhg3rJ6rTrLwx2agx4+M/ACbaLx6ZZC4+XMy/iQodlT6cW0k3BSW2SRcLMaFJ9iA7h693rWEXJKY0JAyBnuKjUOtuIRgofCOIR5t2UaHUVN2UvrUFO1jYGrPPEhQLi7b2o3NnOeTypuwqGtIe+e7lufT19WBkZCRsraHrdRswuBcc+QMlbZckTVppMn5cMhg//mMpzs7YgRThAYcCFsP5p8jlv4/Fjy/PReLRX3H5wCYkSap8g7perYRbV6XwrTgvH4rBg6EYMxs9v5wuKCVU8Vtw9oCUL3I2AqzUyDrwD+x4+XVcWDYLu47y1Z4MjoGaIMpj4cIlC7aoO7tmEnbNX4z4+UsRLzwEU8BS86B/RiSe7sVWXTlHsX3sJBxfthjH3zwBwQPZ1g2OQibONARzKx51Mn4eOw1nV7Bz/Z2dd9hYfBGxFKq6RxOJKFizFBfY8Ty1WMd5aeuFT21qtq9ieX5FjRHPk4XLm8T/ubBiFfLqXL5CETB/JJxlaqR8MY2VgZX1H9MQncSXMDLY+U4WszHU21ahWFJTKf3dcPm/k7BjZyGM2ekzEjSWQVW4JSh+FKx+hQTAaR769mX1XnoWRyM0Flqt96dda6MQkSYuen2DXJH5fSQGTolGPju/SiUtiPrMwHO9WAcpiMWKQa9g7pJlmDpiDWLYqlLROxyLtQUJDo8pMGUGyxeBMW8eEZ72yH0ex0zxKJwihyKEryuSd2PihAhEvLkIw5dEs0UqW8A+PaUu3+hAB8FNQ5X4LSbOY/fJ8o0ZMgwT/7oCkdrWDd9vQgQTfCOWxAn33TQHsE7Ic5XVL6OmALHCfhRWfB4n5BB4fjIG8kULL+uI+VjAyjBxxm5cZMKBotcozKlbhIvn44oN6Hsh0C0Hu96cgIkHuVKyFCXSQ9rY7y4J5Ve4B2OYmAS80g3ubFFWlXIKjWXc1tprUNfZWDlkTpPbG2wx2Bhqfw0PRvvz+UAxPBzDtLZ+2sFPT0axup+BibOWYfOhaOz6fBNi+CRn7QDtNfiwV5lQyuq4KvErTBy1iJVjGWZNmIAxYxZiwQ/Szd3rOjn5LVZo2sDaH4H6Yj+Ylcz7Vyny9wm57qJOWsII5r1s2KKqBLmrEnBzUQ6KJ8cyuVMPiv7dYVmnNGD7Y7mVSQmyo04hf24OSqafxdWYEuhZusLyTSnb7mKUvZWDsrRKYffWjXxx/618VDepTDeE3gi5sMnf9oVDIO+xxSg+LKklZrnDzs0QtclxSBuZhpK3riJv8jkU1hjCsr+2YCpSdfok0sYxYXNuEq4e4gK1ISz62EhHmUA2jpehGoXfHEceL8PMBFw9wsap3B5207ljh4jc00pYaKp+EeukbG4Ksp46jJQ5aQ2tBzTlZeWrbG7s6Fonyzxga8nE3eRzYhkWpSH7/5KYoM7KOkjL5e5EWf31bFxhpZ+KtMnsPi/y81eiZi/PxITm81xoNoFpSN1/Qh7I27oCxSdKpBTGYBsINjIVpVoPmu7kns51M4eiN1fysHyr+fjic9MUca67G2ZOG4iurJgXt72M4WxsR8xjY/zbS6zAXRD2/FApl65zoo7jWlemd4EVEwNqk39HxmSpXVelokLhApfXtSzBdOzrtZ+J/af8xi1hX53G+xLfiiGmtECGCpVCI5tC9qSQwvpTDvKHJSJ/ZibKDuaj+LME5LE5Uc/Gsr7PsTVTlXCNm6KFeI0K5cI+2z5rqKytmpuA7HEpKF6fh4ofriJ7bwb7b0MY+TRlpdQytTvz2IzDZil3cTwK/M1GsDJrqLwU0VOlsbGQhGJed2+cF/7XwMeJjQIR+XQvWMrZ+N8ag2xeXjZPpH2TiVq5A6yery8tnIzEspeqJaWcjpRUi21gbnzH3KRNlVq8c4VtUy87iUZCqvQg9HwsDgvfCOLRpl0UP21HH8Yez8KNrSXKLx9FTuMZ6j7SuXNnmJkpYG5uBpmMC9hN0x757vU1DQ3Zwl9hImwGBs1Pvbqe7w56uoLLXOrMRNTp8oIchTRV6kFcr1vIydh5+acKKmnBjvB56Lv1IKb9fALTopZhwuJl6MufMjV40qaJ7wM4DxbzTJg3TTDDvnxwFXb8XVJeDF2InlyYuHEWsfFcgTFY3KSi1FRLS7hxPrDmTy4yzyJ+t6DGYVjX39t1/tkTAeEBbEGsRsr+xWxZKJHZVKdViUoTmQ+e2rEVfRdOYz/oPJ2du8lV22C4deGKGG0LqUa0Ft/nhekI4A/ZM4/i1EZNGVgZpc+GjIWzEy+cGtcPLcXZbSz/rWQkHtyCszs1/7sDRcKKTga5tNa3XjgSbjI10n+IEp/ySejanwQK4rE5krtXpiLmhyPY/2uqmD7EU3iqX5WVDXWdQFqFTG6GpO8I98b+9gU59W49J5mQJzSlFZQThRSMdhctDq4kr6mv8mNJuMzzGTugu6Ro3HVSfLqn6DUb0TtXImruKEEIvpjEFsR/EiGBkrVaWhx2iUlssbkeF/P4Fwd0fUJIuYOCM9+KC2/B6uEwYi6L6Tj5PS7yZrPugoGSgDw1uAtblKmRfOIrMUGL1trrQk409p6JaXI71IRun9q/bbR3+/NrDFwegSit7fUJ0iEOd9/6Zhfif/sJ2/7Njy/AQFHPrkUwBvryCYld4+SmBtNaZoZG6aM7d1snF39YLfYDwSIrGvFi8l3USUuw5ZTQrStw6zchQUC0vDGBrM7fxRbGwlP2YqhrREUN32ozikWhzrPtQp2AwhXu7/SHN9vcx7hArspF1sdnULJbPGzY20YQwEozy+quqde9DJW5LNHGXBTOtKjMqneyqv29SBAM9awVkhBmDiNBuVuIsneFBIHa3wqF3zy5i3nd4rIqIU8Q4MyH9ofLFlcY/dUQerz8dx0Ut3Xk7hbC9YsFKweJY0UoF8a1BeRNxg2pRtEPkjJKsCy6WicMa4RmE0+u7OGYwNid1VhjSwkzye28LfzBuW5YN0kB02BMVN0hyOvGePT24L/5Oci85C9dMxzdL7F9lmrtVK/5bY85EfqdhPqvLtFydcq7Jaxf9LQUBG3t6/cMfyOYbO8L7/hB8P2Ij8V+UN4xJ+qO3kJ3KI8PhO+egcK49p7ExrV0rM2cyBYt12xs6ixyDINt2IzTSHmpoUBVr5g9oUKF8NtpDNkk/sn6vyd/gFOMyktS/fLtkgpcnWnizFfxEgqDurngrmCNqlNYV4OmaiYWkROGIajH0xhIbl4EIfCHxuP9Qt9+DAK8jFFTmICUVG33L+JBRmONo2294uYlxpQpSNWKNTNGUrgUZiOb7w9dhpFvToYfk9ly44+K7kyn0tlSnXEjW7Ss4YwLgCP/bSpNxtmDJ5AlrBUKEL9mhPA2L42yQxHmLSibYBuK0Vw5pNkG8PtTIy9VdBxW9HAThI6iTG2NSiPTbqdn4MxXaxXJuPwFPy4xRin8b10ZBNbg6McHcfmGGjIrN/gNn43J//kFo6PqrW4a4NSr9aDNo13Bn3s1UKZpYc3KwKsk79L3Yn1JWJgLd9ew3nv1gj23ZS88i1OrzoppR9YjZcWa5gNL94pASIACNdd+RPQfeMtC/SI2DptX1D8dHG0tPE+FPIAJnVoC6XMBfLFqChsv4XDrSKtzW412r0lkkGnWL18twsz3jjABsxQKt2AMmzEPa7/cj30bZqOflOVe42splrU5ZGKTNaIUl08KZmxMqOVWD2uw+aS4y+vy6/Nc2HaA71+C2ed49PNh17gbNx/G9fIk/JJ/rskt7u5eUVIHtX9HaP87gzsfrlNoBCNqhei+VZWnceeQ3M0a4AmFcJ9qVDYhW7SVu6uTa7j4nqRkEiyyNtULyPd0TJSxf+M/Mvaw+ZcVDLkg9FcnWPtwgSQf5RpXpDGdWc9iGLvAVVLUaAt1RrYtl7FZBJeRJMEtg99L/v8SULKh/hm7gaVoaWcW3q/+mnWCqSlk2m5MzVEnhHWGPjfAbg65QZ0CpPafibjyZQqKS/Rg5O8N13kD4L2rL+zeadry715gYNaSeMzuTUsurUdLiSVYFmlZfWiEZqWdKDRPsYMZ62t3WEpszxKUIW3hj851NtwE957hwM4nfg5cUn/NqCVhohultQOm8k9OO8yJ+EFUwMkDvWH2V65sMILRK86sNlhbpBfUtdc96ettRg+Kd/vBxdMEtXlXkSW5b+XfbQjOWWysTPGEmXEVbsaI58qIya2L4dV2NJZrNlCM4aKfCUx9Te5UXrYIG9XCwDaCodBPbKB8W1O/bHvbVwjiDGtj1DlUXlLVPwC9G4oqdCqzKq+5p6EEQWjT4RU/+vbj0SPIkf0mJyDx9FGUt8/L5+uorKxESYkKxcUlUKu1ReeGtEe+e33N6mo1VKoyYbt1q3nDV13P15DZottUA+sVTXyfdGTUr8xhESIpXC79zBZVSniMGQw7ttZJ3zkNB/6+WHRnKuRiGsuT9nOdQqMuvk/qQcSveB3nBJNPa/gMnSYc1yDG7VEj65QmJo72tgXxG3kuTXwfFbJ/04ogN89bcN3iMW8ElWRovYJHW+3RsAz11OxciqMTnsT/pszFnugsdhcyWIeOhLd0vAGjvVtU6nDsPJXC73JTrmAcayuhRlCQLClyOE4L4cbd1GqSka5V7xjgBv5Qt+LamWavxykQJQ2GEsrpz0CpX4DEbVENFEscXftTS+wqEM3jq9K5NUNDoXT/vt3YpeuriyWtX0mLj0U1sUBELrIyTRwyGkE9XkHkxlhkVonxFuYukDLcY/LLWx5LYuyWthF77JpgheXkFQ6n4cHwYN2hOZeW1tqrra5e1P5to73bnyuRrkhuGZpt3ffSIYSLcXBqLmHXTO5yJR4X3M0akMraW/qqeRz/B2j/OmmZqrdPIzOjFkaBPeHBBaF5/jCTM8Ft9+9QaSxYd1aKc6NWbI8G2667fHOF4DKSibyt3FLFBDYvujeIoXPrpih+NXjjT912HipN/KGWYMNWXIJV43bTZqIiVaIVhobaVVeR/dRRpIw8jMs7M1ChbwKrEQEtvLHnj1Fb1ZKoKMXuaRNMaE7lpq02MB7CFs4htkz0bcpSogClvJpNHWEnrG/uHl3nutbGRNvIYefjn0280Y9v3x5p8Cr2+z0ncleqrA2sf8ttoJwnKnNcA81YJaTi+tv1bXFP+nprhFrAiC+n2HpKLZxPsuSryUTmX1NQIrlvVYjN2GY0VktlMaeRO1dyBTupqldG3gW1v+QLcYVMvWyBEVYw5XNdE25ezcNGtTCwK1At9BPpTWeNt2+y6pU1l9Xid2tFvTJIF7wUQvmrpbZsGqW0plWjNPfuHzQSxKNEB1b86MPQUVT66OX/hnMdQOmjobKyClVVrf/Ytke+e3mumppaVFRUCFtrtHw+JVtVS18FeFDjsUKcHXXqUSTeEd+nAAUai5LQCIQGW7ObSUfidh4vZizchMCB6chYI030ToPhF8gthVTITtAoZerj+2isWLKOJQpKFyP/AfDQuh8xOLEM6sz1UkwcadvM99dLihopvg9b2OVrXMmcJqPvQB/WU1VI0bySTIO+THyqy9GUQZ2OeKEMHCUU4VoR8DLPIu9AinitCtFctjHWrSh1uCuYi+AKVoDcX8WUppFrPa1lbbFwMNzYiVVxB6WAzSJKd7H+crWtgFrCcSFC/WVasZMa0pb+1CynrwpCmtzaEBc3aAulG7Fug7Z1g4S+vL7r9fcXhDoeYPLcNjHp6+RrwmdXn3lN5MvBuX1iEn+T0LA6NyIm7K6NwNeJYis5eYwSPu81+1lZeX/g8UfqguW6zIavoFTJwZUW27gZ9v2EC7wCXTwxs38XWLMFU3MuLa21V1tdvaj920Z7t79OMAG7ROMO4DIeSq4bZzOfrE7hEIfoNB6zxBTdw6c3+BlwchHd7NpCe9dJyIKPEH36J8Sf+BKrn5cStelhBwsXPaiOxeDy/84i7d1jSJl8DLlLtRURRajgrmnGptBPlQQ6zbaebY3ifLSZj1ORl1oNPUtPKCPq3caqzxcKQqORJfuJaXzNJmKa6AlP9kX0elgJlqLVGeI5BOsYod2tYKKJScTQ5KvKKK6P59FfLrp2cTJqUf3Pi8gX/tccRj2E1HtOxcVC4frmvvUxidDfAsbCuC5ClRC7p23UHswWhGZzX3uYeJqz8zRlKbEeGcJvqBLKMeLv512j41y3P4PnYmNC6Y+6cPT9TYXA061yhzL2W1zM4Os4KzYOftK6ZhS75kZErNX6Yf+T5sSpq77Eqd/YGPvlI7xeF8esHqMnlZCXZyDjrVO4uvUUUhYdRsrTDeNFtbWv3w2GM1wF65ZbyZlikGYNVbdQWzcnmrD203yXPttITUX93KHnKypD7lpw25uH4nz2/y7WMHnSBibNuXlx9LUcrOrGzk2UC0Gvy1Cewe+LW/YU1Nevpo7XaKmSTuSjlBsaKaxh3IZuYeTLYxFVQ3VeiCXQNGwNLsbdTEPWj2JSQ/hbvfYL7siHP9Z+IQJBPLro29g6Nfu21j8HYxjb9oKFuQtMFPYwd7CAvLYWlVUKdFaYoJoJ/fwH27jLFAQF2MKgMhvp6cUwNOX5pc1AjfLKBlPtn4oLm1kyxF/zDoeJiTHKygTVeweFK3k+w8SXnoNDSC8YBj2Dx+bPQx8PY6D4LPa/EYkyUbMCjJ2Gvl4WTG5QwunJbqgNnYQnJ/WFrUzNJvV/4dS3PIhOMJwnBsHa0AJ2LM8tlqffzHHw4S5Q7Cex+kY8Un/lzlST4T+L50tHYtQO7q4MJOmj87NhcDCxgczoAMsnXrjM52k8xq5r5fE07HoGQNbnL+g5500MGO6OtG9+hBBGctxU9H6cLThgAcchj0PvsWcQPGs0urJfflX8BvzwgfR6sGJ/OIzyh4WZEq6hgUA/TRlUuPDfvyHhIL9mAJQffIjRz/0FXuxcnb17wX7sbDwxPghW+qysP61C3K9CwCBg1Dz4jRkO27Bn4NXdBxbsPCW5nuwen2Lj5ShKpHAAIh5QPvcUHIyMYdmV1Y3/M/CbMwnmql3Ik+J81LCy+TsrYO0xDEbewXCZ8Tc84aOA+toe7Prbx+KCqNdkeLw4HX7d3WBmqEJBjieMuitxMzZRetrbkIoeo9HDwwbmHmxs1iQj5s3lKNK0aRsYPTcCU7t1gZc91wjWoutj/nCqiMU5qSoELiUDPQcj1N0VoSMGoIdfNwyYMBmvLpyJ6U/a4uLXJyCI8oGDMaOvI+Tm7nj2mQA81mMwXp36OOzZqqngxGbM/UGsONVlGXoM7QUnZ188O9AXXr2G4HUhnxpXDnyEN4/ycR+OqC8W4uVxz2P8oCB0D+yNZ/86D6O7m7N1cynOfb0Me6Tmx7PTETVlGAaGu6JLVydYGtZA7eyF3uFh8FVE4zS7/XosEDauL7pYWMM7rBt8Hx+COQsnofu13Th8lR1OLIbrM+z/lF0QOrIX/PzCMGPOAPia60N15iu8+QkPVsoZijnLJyDAwx32bFhV3XZF9yAHqGKSmvBpT2P1NwID3e3g7sjuvzoZ2+cegFZIEp25XnUJh1RJTW6n7mJlTe3fUdq/L56b7QVLFOPi+t1o2oBeundzW3gPY/UbPBgvzx+Bx7hCWc8UxjY3sOUnsY4v/m6FAWO6wUEZKLbFY30xbt7f8caswXisKBr7k7TV3PeoTvqMx+LZwfDSboNupjgc22DClNB9TMxctADd+W+NgSmb0yuwaU+jQDXPucLBzxQGRrehLr6FTnZGMOSuOaoK1NY9kK5Blf5tmPRxgEVvBxj2rsXt/mz+/Ls/nKdZojIlF9W8rBrMZTB6yobVKRPlg2pg8Bd32L2oh9JvSsX5ONASFn2tYKguxM1NRWz9dBvVOZUwHGwP0y7mqCnNRGUCy3eyGFVDnGDh6gizcTLUehug8wtdYTfnMVg+zgTCPaKAqf+sC6ycZOjsId6b3rPucOzH1mKsP+R+fAVVUh+u7szLYAszfwfoBVZD/y9dxXxVuch+75pYhkAzWL37BJxfdIA8VA+1vU1hOj8ADq4ydKrKQf7HeajWjO9R5jB5wRKycDOYeFijM2u3aucadAo3hZ6ilBuk1tNanVwuRe1QFyic7aF4uhbVva1g86IPzOTVuLk/AcVHJbVUqAlMXmYCsPb1ulWjOrYJc6YUJsyOY8K+jRnkVoao+T0Z+bvvtJUosngcfsH2sLXvUr9+aMQ9netOWKDvC8Gwt3LFAD6H9R+HiBeDYc2VOuocnPjsEM7xfCa9MY6tacyMFPC6XQTLJ2bivRm9YMPzFaXiP+x8nBP5Dhj8lBdc2dgaz8dg8EC8OG825swahRD1Uew5x8drG+ZEgVbGdR3jMef/BsCVazfktlDUbMbXDSYgIyjmuMPUjPVfthaqvm0IQzcTyBq3mY59XUMtWwNZsL5q5GSKWv9OkE/2gvWICqj28PZlfW2GC0zlUv8YagvLNwPh6GWE26wPZ/3rqjReb0Gf9Q+FuQWMh99GbQ9LWL0aAEvj2+ik1xmdbLOhOqTdr6T8lgrI+99mazMrWC5SQu/qDajZ+eruydlG6OOGU1gf6WMJPb1OMDSrhepiAWq0+wtDM3Yrk6+grMmJm5Whlw2s3c3Q2dGMzXVZyPsbO490VEAzn7C5XTGE3UdPVg5h7LC18okEFB4Qc9fcqIB+uBIW/o4w6s/2gy1gPt8HjrOdWb9jc05dIDV2TX9zWHpawlhZhMLtOjz46e8EuxfYnFF+HTkzGt2fFkavL0BYVwUqzu/AsW/qLqjFRMxf7Cu8Ot+Y/UbkasYCQTzCtIPixx72PZ9GVxcnWHOlD08yMIGFA983QWlqkuAPauY+AIKru6EClsKx+s2oIgU5N+9BwAAdIcXPH4H9kHl3gaWLG5Rd3ODi4QJzw3LknNmBA0sjcVOrWt2mLURXtqjOSkqG3CMIni42MKzIQvLOf+LnjzR28mdxwyoMbt5ssWblAqVFJ+T8+jF+umiNrh6dcG3XamTztf246ejTVwl54QWc+u+Pomk9UlDRgys+jKFQ2OPijsOCoqPm19+Rx67n4KqErZLdo3DdNJze+m9cFx4FA4opf0MPF2O2PkpEmW0AvLy4S5cK1w+vwfdvfSPkEVAdR44RW4S5ucBa6QIX9qN9+0Yifv3va0jYoVn550FVbQ0jHzc42LIyeHlAaWuM22zxdXrjmzjx3/ofMLeFH+LJ3h6s3txgIZgQyWHmyvftUB3/BTIayB2Xka3XDc7dXGDBzuviZg/jqiJknNuFAkneqbxQhcrgAChtbGDX1Q22RmpcP/4ZDry6pt4Pe0oExgwJgJlglyuHlbsHbKpikfBjg5VcPX3/gh5eFtDXZ213MBJnfqiPYtQWJv5jKUb68OfFbEqwcIKXtzP0L25rtIBki8o9Z3HTORBBXl3Q1dsdXZXW6FR8CUe/+gybfpfeiKIR/PMu4VwnL4QFOcPMQI3M33Zi+Zxt4oKZU5KEPWlGeMzXlQmJ7vDyYAtFJkAlfP8RFrwTIwnWabhYZApXr65wd2X5fNzRxdYIFezch9f9E69tla7JmTQfq0cGsXvnAidPMII9u0cvtlmWNF7EpmL/VXMM6OOFLi5MCGDXNq4uRlb2JRz8jbt7ZOLo8VJ06e6Frq7suI8TbPQrcOXYV3ht3jYurkqMwuLVg+ErWHHpw7ILu14XfVxqZpFzST8Y48O7QMHur+r8Xryyu5l2vc9Q+3eU9tdF8aO5d1842Tuiq5s1DK7/gvffT4BtT1/YViTWK0VKzmL7JbGOu7jw+nOFk0ItuJt+t/MAzjfwbLpHdfLkdKx4sRcctNvAsrhOuG2MrmOi3LkXBnSzhbw6BzHfvoODjbP9Ugz1EDuYOdnAzNse5sKmhNWzrC87ZjFhTFI4xBehuLgceo+x4x4OsPCwQmc2AxceuYDiTY20psklKDWXobOfDSy6OkDhIEd1aTEqk0pQw4PV3qH4YVwtRbkXE7Y8LGHiXYPin4tRW1KL6l+Z8OllAtOujrDwtYfCjp0r8wpyv7iBGuk3QiM8qi6yUeLtBRs3BfTK85H3VQKKP5fun8PKoOpcAwN3VgYfB1ZmY9TkXUP2iiSUaV6fk1uFCnU5OvlYQuHuCEtfW5gqOqH82mVkrmK/x9qda7IPPJ7tyuqLK2F4QmcYS3WIkkaCbGt1UlKNyrQCVPtZwoyXldWvTF2Mgt1ncGO5lmXyAGcop3nBVPt6VsXI39bUg0VJaPY0hQFvq+8uoULLY7qOhLNQ9fsLujq5sbpLQsovjaRzxj2d65CIWJUzQgPc4aBk53KSI+dgPMrZHGSmrfi5Ho1y1wHo6eUE3z5hCPM0Qvq+E7jp6w6bknrFD66eQEymEbz8uopzIjuPvVENrsUewJYvf8ElYendhjlRoLVxrSEJlo8NRg93VscqNjf/5wBONKi+W1Cb6KHzY9asXR2k8cW2Hq6wGncbJT+z/i/cn259vY7jN6DyN4cpW1eZe9rDxK4TagpvovS7ctyuU/xI/YP1Jbl+OUoTU5D5xhVU1sVbrEFVOrt4H3uY2rP7Y+Om5voFZKzKRm1PR3Quz2qkcNLkZ/NFFzvWRy3YGK5Eec4NVJ29XXdPJm6sD7O1nEnnUhRsO4u8EhOYeOijYkMuqhuJQa0rfoDb/O2a4Q4w4nNdU8pLzXySdx0FnZSwD7KDkUEVm8Z/Q/bfyuof/l0tQ9n1ItT428CctYUFH7dsPVl26hIKvqjAba17u/3TTVSPc4V5F0tA7xrKT0sHmsQQJmuDYGdei8Kvz6LkuJTcmNBlGDQtCIpbyTj2RmQzDxtr0H3YQLCpkC27L2DTtugmHoYQxKNFJ1//kKYe4hNa9O0bguPH+VsXOh52djbIy7vb6HEdicnou2ce/EzTET1lElI61OyshPfnOxDWRYUL6wbjeN1bwwiB0AgMjRwJZeFRbJmk9Saz9uT5lYheEAxF+gEEjVktJRIaZm7cjzlBTEb5ZBim3k0wk44OtX+LPPTtfxf8aXUyygmOb/vDXD8HGUGJDd1COiCGn/aFR28T3Nx9CLlLpURCwgxWxx+HHa4irW9K87FRuBv4OraeMVchZdtSRK9vWuH457EAO38biq6qOLz/5KIGcXkeOlz0IP9nH7gHm6DiRAyuvtIhViAdGvmmfqy+gLyPY1DY2F1xijtcF3rCKD0BF0dzLeo9or897FcGwhL5yFwdB5XW89J6WFt+2huuvc1Qdfo4rs5sZrb0mYa+784WxteF9dNwnL9xthkiv/kJoz15PKopmKgJ8k8QjzAdPrgz8Yigie/D33rV4VTyUnyfBq+KJ7hCTDZxGZ6JGMm+pSP6ow6i9CFawAujl3yCqUE8OvphrCWh/xGD2v9O7lGdjHGB8nh/uHwqvNemnt1FqBKMcnV6KTHRUfGXw+TrQNgYV+PmodSWA+JmbsHxd7cgpVgB7zGz4RYgpRN/CKPN/eBxPKDudeQCGbWoypTcRQ1IpGkZPRi87Q9lsBFq0y+hSOe3ed0DjuUid3USSmADx1muaCrWv96bvnDmSp+EWGQ0p/RBANwWTq9Tqrak9AGmQwj1WRCLbaT0IQgBmiWJjkGQI/gbVlXXzkjuFR2IcdLr5DNTxDd3EYyFGPjTDrwwezCc1Yn4MXISUu73Q02ibQQswM7TnyDyL15QFCRh879Xo2PaMRJ/CtT+d3Iv62RnMSohh0nvILhsd4fZOw4wWesNx596wkYB3ErNIsX4A4reskB4b+kPFx85KuLicGOplstbc5xYg+g5S/HNuxFIb9pzkGgjVVll0Dd2gNN7wbBZy8bXO06w3BIM96H8faclKPmlo9vTtSOB9nA8OxCeY5xgmH8VV9/PFd1C7yffZCJr0TFcmX9VjCfZiNp3k5C29BiuTtUKDn8HiUiP/Be+WT6tdUu64V5wMgV7rUkAAChxSURBVGZL99PfQvuFtQTxKEOuXjpArl5/PrKJs2FRmAbV1YOoaBAAtQMwdBqcjbJQcOV3VMS39HThUWIaAj7wgerUdqRvayrQQTvTZzzm+BcgLTUD+49dkhIfdYYick0YkByNbWsP4KKU+lBC7d8Ej1D768w9rpMJDrB5qSssrE1gIL0Vq7aqBKrTl5D7bmH92346MHrTzJhgWIXqK1WobRS7+pFllD3MB9Wg8lAhqnbfd3H5LvBCv+Eu8OtijXOffPsQKXgNIV/rB7vetjCS64lPrmuqUVWQg7xNKSjb+iC0TXshh8laBzbXNXrrVmNCTSD3v4XqS9WoPUb1SRAPG6T40QFS/BAEQRAEQRAEQRAE8SBCrl4EQRAEQRAEQRAEQRAPKaT4IQiCIAiCIAiCIAiCeEghxQ9BEARBEARBEARBEMRDCil+CIIgCIIgCIIgCIIgHlJI8UMQBEEQBEEQBEEQBPGQQoofgiAIgiAIgiAIgiCIh5T2e527vjNs/YfAw8kYemXJiI/+EeXSIYFOljB3fRpuXR1hIhOTakqykXHhR2TdLBET7hP0OneCIAiCIAiCIAiCIB5E2sHiR47OTmMQFD4GXkrjZm+gs+sodPOyQu2NZKSeO430ayWoVTjCLWQCnE2kTARBEARBEARBEARBEESz3H/Fj0FvdH3MGYY3k3H+6AkUSMmNqUz/Asd/Wo/ExB+Rl30CWUmf4fyVcqCTMUxMpUwEQRAEQRAEQRAEQRBEs9x/xc+tGCQf/QKnz/yI4ioprUlqAO6E1skY+nI7GCp6wMHOGFBnI5c8mwiCIAiCIAiCIAiCIFqlXYI711TdlL7pgGkYuj81Eb2f6AfrW8k4f+xbFNVIxwiCIAiCIAiCIAiCIIhmaRfFT5uoTkfGudO4dDEdahMfdHtqGpQU44cgCIIgCIIgCIIgCKJVOr7ipzIZN7JP4Eb69ziXeB01+mZwcQ+UDhIEQRAEQRAEQRAEQRDN0fEVP9qUl4GHBdI3kIv7BEEQBEEQBEEQBEEQRLN0XMWPvBvMFQ0VPPqWdjBmn9WVJWICQRAEQRAEQRAEQRAE0SztoPgxhrFtKGwd+eYIGU/St4SFsO8DQyGPG5x7DUS3vi8hKOgZ2Dn2g3PANPToZim81etKarKQiyAIgiAIgiAIgiAIgmiedlD8WMHKtze8uvPNDQqe1NkObsJ+IMyEPOm4fnInLmWUsOw+8OzeA10cTKDOPY/zv+5EwS0hE0EQBEEQBEEQBEEQBNECnXz9Q25L34lm6Ns3BMePx0p7HQs7Oxvk5eVLewRBEARBEARBEARBEPU8WMGdCYIgCIIgCIIgCIIgCJ0hxQ9BEARBEARBEARBEMRDCil+CIIgCIIgCIIgCIIgHlJI8UMQBEEQBEEQBEEQBPGQQoofgiAIgiAIgiAIgiCIhxRS/BAEQRAEQRAEQRAEQTykkOKHIAiCIAiCIAiCIAjiIYUUPwRBEA8TPtPQd+tW+IUrpYRHFSUUi7di5AfToC+lEARBEARBEMSjCCl+CIL4g4Rg5vKlWP3qKDhJKUQ74TQZfd+dDT8Ha9h4uUqJHQSXUXj93aWImhkiJfzZuMLc2Rp2QbMx9oPJUhpBEARBEARBPHo8EIofQ8seUHSWS3sEIaHvjEEGRtIO0W68Oh0vDQ/DwBefx+K/SGlN4oV+g4JJOfSnEQrvqNnwM1cj68BSRK8/IaX/2TggZFAIfKW95hj46vOYOigMw2a9jMVSWtPcq35yAtfnsHq4poYiaB5GLg2V0gmCIAiCIAji0aL9FD9MaLcNeAl9hsxH37BnYCwl34knnAL7IaDfcFh0kpIIwnEhLoxYiH919ZcSiHZj5w84HH8NF389jG3fSWl3sAA7f/sEa9+ajIFSCnFvMVq6EGFdZKhI2oID790vpc94bPjlS2x492VMlFKa4/D3hxGTdA0JP+zGZintTu51PzmBlIgtSKkA7Ab8H3oOlZIJgiAIgiAI4hGiHRQ/cnR2GoOg8DHwUhq3fgO2gbA3AiozElB0W0ojCKLjkLEbETNmYOK89YiRkoj7zTT0epzH9MlC4qb1YlJH49h6zJ0yA1OX7EamlHRfyFyPU0fTUQNr+I+aJyUSBEEQBEEQxKNDJ1//kPurTjHoB/+BPWBSkIyUxEI4PBUK67JkxEf/iHIpSz3GsO35ErxsS5B+9DNkVUrJ95m+fUNw/HistNexsLOzQV5evrTXMXmn978xVogzW4KTP63AIYs5eC3IGQoDlpT1M/xO7+YHBfzMJ2JlUC94WLCDrGeq8i5g+9n1eK9aysAtfUKcpZ2GXD71GkbkSDumsxE70A8K7fO3lMa/Z7D0xBJs6jkYfbi2ERU4eXgxppcC071X4A2/chz7OQYyf3bcTnQxU6UfxMKE/Tgm7OlO5M6fMNqNfytF7Hsv43C3KMwd0gUKHoU2/QCCxqzmBxlemLlqMaY+wY5xb8eaUmTGHcCKWdpKFm4lMRRdU49gXa4/pvZxEM5TVXQJuyJfwQrtm/N/HqvfGY9+LqaQ82tVleLKT5swr4Ew7oBhCxZgzrPBcBIqhsHz/bob//1wE/ZnSGnPr0T0gmCx7gRYWVaPxqyvpF0B6d6kvQaksnJO0JSTw667OAILhvjDWjqpKisO3723CO/XlUHrfEVxWPFiDLqvno5hnqbC0SvfP40xkcGI2r0Sw1zUSPh0GKZ+IhxiOLB6/5LVO0v/hKV/KiXriN5CdziM6gpThZ6gsK6tKkHRrxeQ/0EJaqU6EfIMd4GxmRwGvH5rqlGWdhHZf8/BLU29zfKG+99cIc9KQsqwTNRKyZjiDteFnpBnJCJ1ZI6Urgf5+4/B7glbmMj1UFtTgdLfEpEzs7j+/zhzPsO0cT7Qv7YH/3sxSkpsApdwLF72MoYFWIl9rYn2n7phF17vpUbMh4chGz8UIUqxblVJu7F4yhqp33FLn9kIqW/8eni7hC/C19IuIjci/tku0g7nGnb1mIFIaU9Et34yc+N+zAmSIfPQIgx/M05I44j3bIrMH1h6RH16HU4LMfDzsXBDMg4/PQ3pUnIdLqw8G1l5rNWsD0WyPtQx53uCIAiCIAiCuBvuv8XPrRgkH/0Cp8/8iOIqKa05OodCacs+byQjp52UPsQfJ+5yDPZeKWHfjGHuOhtv9HRAVcYlXOZtWl0h5OE4m83G50/2gYdxOS78HoNDqQWQ2flh+hPTMV3Kg5tnsfeM5nxMbs0+J+6fOYgdd6P/qjyHPWfOifdi4oytfUahj0kJTl7j5y+HWqNwErBG//6j0K0mHYfOXUI+O6ZwD8drdtLhNhB/5Aj2Jxayb6YwG7wUrw93gDo5CVe49pMJ4yIOTKBdiTnhXSArvYSYfdFIyJXBqdd4rPh4vJRHC89wzOkFpB1h+bLUkFt44bklURgtHRaE9bXTMdDNFOq0WOw/FIdMtSm6Dp+NNZFaAXdnRmDp88FwkhXi4q/sPlm+K8UydH0iDCHuUh7OZXaOfew42xIKpLQ7SMJhIU8ShCzl11g5xP/5mm3ahLB7XTreH9ayHCQcOoKYpELIlMGYGrkSU12kTNL5hOspTDH8vdmCgudi4jXw6USt4nnisOsi1wDK4B6sXU+j4MvPU56K6DYqfbiyxnWKJ8xkpSiMSUTGoVQUFcth8YQbjLTqpLakFreLb6LoBMuzNwX5ubdg5BkAt1VWUg7GhhwU83ZW2sFEK+yMXogtuDqx9HxenVLH8NPecA23h1yViey9Sex8ejDtHQKXT0ykHCIWbkrhzVVFmWfEhCYJQeSHC/FcELuXrDhWj7G4omn/JcFSHg1W6Dd3PPzUl3D4EGs7VrkK/1GYu0A6jFTE/MDbkZ1D0NgXIkFq1/07WdsKeSR+ixbT6/I2hW795NPTqUI7O3mFa8UACmf9kiuncnDu+yaUPpzMn5F3g33qK6EcJyY1oH8I/Kz5F9bPA8OEJIIgCIIgCIJ4WGiXGD81VTelby1j4uoJE9Qg71osE4Sc4fxEa/GA7g+dO8shl8ukveZpj3z38lz6+nowMjISttZo6Xw7CrdjUT5XpBjAz8sZ10+vRVjCSdy4BajKNRoDe7zq5wdFpxIc+/ltjLm8HfOTlmP5efZ/5t0wUrDAYVT+jEWZmvMxQb8oQdzP3I9N7Hxt5tZJLM9MEO4FVl4I0r+A946swPQcfv4K3GiknFRd3oYxp9dj/tV12JjOlVYGkHGJuxGGhoZCvXXu3FlKaciutVGISBMVPL5Brsj8PhIDp0Qjv4ZdQ8UVQow+M/BcLybQFsRixaBXMHfJMkwdsQYxrMoUvcOxuE4ZIlGTg/1vTsHUN3m+r5DAhWxrfwyTgq84RQ5FiAX7krwbEydEIOLNRRi+JJoJ2kzYfXoKZorZMDrQAdy4SJX4LSbOY/fJ8o0ZMgwT/7oCkdrWQye/xYol7DjbrggKl6Y4gHVCnqso5rs1BYiV/mfF59pC+ni89HQXdt1CxKzgZYjC3Cnz8XWSGrAIxnOvaBQT4vmE6+l7IdAtB7venICJBwugRilKJIuv2O8uCRYsCvdgDBOTgFe6wZ21VVXKKbRV72MQaCnUSVXC78ifm4OyRWnIG3wMKdN/R5l2nWy4iuzRiUKeil9yUPhxEgpZOxgozWEoZeGWb2XJvO/YwHiImMKnYhNPc/aZD9VuSe0T6gDb3mbQy09B+tMXUfxWJgqHnUJuPmAU4gojrfa3sBBNb8qLDgqfTTJzCoa6sTHK23/UIixYEoExU3bjYg1r//7jtRSEIqq49Zg4huV7cz4+TxT7qqzOwicOm1fwdowT+iy39roitWvE2gNCjjq+3ySm1+VtCh37ySdxSOb92sUTz4kpbJyEwZ0rbTKSsOukmHQnZ1HFuhLrEVAIlnaNOBaLC8JUpMaVhGghiSAIgiAIgiAeFtpF8aMT+r3h7MJErYo0ZN+QpIUOcLdckDczU8Dc3AwyWfOKk/bId6+vaWgog0JhImwGBtwvq2l0PZ9A0XlsyuaOFtdx7PcY7Mm5LqajD/wc2Ed5Lq7f9sIIubhVqXJRBQM4m9+PIM63cOHCZmzizo+CZdFZJt42JK/oJLtziWaFWF53BkK9mZmZsvpp5Y10BfHYLLiWSFYUv6aK6UM8BauGqqxsqIeHY5iwVSEzi0mw+o5w7y9mq6M8GxfrlBBf4Uoe/zSFjZeQgNHuvIKBK8lr6t26jiXhMleiGDug+3AxadfJq+BJil6zEb1zJaLmjkI/Vv0Xky6JGf4M+viLbmWqq4j9XkziFhzvp4qaHCf3pl8BXnDmW1EZJVgfHUbMZTEdJ7/HxSz2ad0FA/uISVODuWJJjeQTDXzRdOLWyTxwVY28dx+47nKHyTwj6PEumdTA4Yq1mRUs9/eHd/wgeK9kn+/0hE0TmuqqE3mC5Yq5r42YEGoHhRKozchGmSYu8xA7mLGPqiwVakfIoSdsgDqL3Ym+BTo/KWbjtDbsOFN78/IDmZmprK2l/hSYisxclmjtgCAhVz03sr69v7F4dGITTl3m/d8VQa+IKU5DXIVxknn+AHRx0NJr6nck41vMGvQ0gnoMIzcvgiAIgiAI4qGjwyp+DF26wdqAyYEZSVDL7WAod4QRl1o66bPvltCjN3w9kKiyE7BD+JaLTbnbsbyES50MYytwewcYe2HykDlYqdlCvQRhVWHedFyfe0sOknIl1zPBsuhn6V7/XFRpcdglfBOtKDQWDqOtxdgq8oBRiFoeUbc9F8Cl/HqFTqtIFkm2ipa0AzLIuDUQ56tFmPneEVzMK4XCLRjDZszD2i/3Y9+G2egnZbnneJgKSo5mkYt10ZBSXD4pWZcI1kdrsLnO4iMOX5/nSiMH+P6FWwuNRz8fdo67cfPifJmGq+8mIj+vCnI3T7j8tR+8t/SH06fmWpOoGaze7gl7pRzVqSnI2Cu6ewluXY3ZkIkiFZuAPe0E9y6u5OEl1HbzMrAWrdzkgT3h/Q5XIombayBPN4FMq/0LCps1uarDyUKsQ6fwBVr9aQEGCvG3rKB8Xjjc4Vl3krt7yeDThzuAOmBmII8f1IKbVwNUKL4mfSUIgiAIgiCIR4QOq/gxsxDFQIX3s+j91ES2hcKWG50Ye6LbU2OhbCd/r8rKSpSUMOGhuARqteA70CTtke9eX7O6Wg2VqkzYbt1q3o9K1/O1SHmh6OJRmYtjQsyehtuW5GZ9ODok1dW3hHorKSll9dPIX0xHdhWI7jVV6fWxdOq33dj1g3C4dSTLpJIWb0MNdZH0lXFxWxQmDhmNoB6vIHJjLDKrxNhC9TFe7jFF1ewOWqAu7pHuxB67JsSLEeLBDA+Gh4Kd5i7cvOrYmoP8wTFICTqM1P+lsPqUQ9E7GDYLpeNTrKHg81J+CjLGXUXZWzlsy0dlk5ZhZSi9WAbo28Dkb4CRrxWbjLXcvBi3CkQlZHW6RomkvcWhUKv9VVyLxLB0nCx8NkVmkViHBYmN+5LYn/a33RCqffjkPNJYncrd/DFVE7epRTcvzmTYCGGWVFBJBnUEQRAEQRAE8ajQYRU/Jemncemc9pYuuJ+gMg/p535DYTsGe+aCfJUYMKJF2iPfvTxXTU0tKioqhK01dL1u8yThCg/O3NkMMtU+KW6PuH2Yta/eMuiPcB97e3V1tVBvXCl215y+Kigu5NaGuLhBip8ibBuxboO2dUsTuMyGrxB0Ogdph4QUfJ0smjp09ZlXHxi3v7+gEEF5Ds7tE5P4m5+G1bmRXcKutRH4Worx4uQxSvi85+yLE13OFK4IeVZM4tYcr3uK7mmZaXfhfrPvJzFui4snZvbvAuuW3Lz6zMbmX35C/G/7sW9VE4GzXeTQq6uTWtxacxU3Evi4MISRR6MYWOpb9W/c6q9AZ0FJfWcgqOpfslEBrjxyh8LTELXpWVBp3Lw4p28Kc54ha3/1eq5E0trW56NaK6/6xFVwvZ1Rl17QGG41ZvP5bMG9zJpl2F/Xl9i2gfWnJZskq7MHgfWI5cob3lcixbhNrbp5De0FR27wVHgVGU3Fv+Zv9Toktv9O7UDnBEEQBEEQBPEQoG9j69Twrbp/OsYwtmXCibkLTBT2MHewgLy2FpVVTEBSmKC6tEAQmmorr6O8VHszg6WnC4yrriP9fAzK7+NL6F1cnJCR0fGiXXBMTIxRVtbsq3I6BGOtxmGGQxd4W8p5GB14QAnnikuIbxAepRCJxa74i5sjPLo8gaGwRbDpE3jFbxxeD3gMjleP44h2/lsemOihhKW5OwbetsYTtsMQ0UWJyzlJuMqP17pjglcXmDGp2+dGLixNhuP9PoGi1ZgqHeuyknkuwKAPljg+Bm8HB1ixY+pSa/QxvI1DFQ1fERZs/TS7hiFuZv6ALZLxSVNpujJ6bgSmdusCLx60Wl2Lro/5w6kiFufqAggxLrF77DkYoe6uCB0xAD38umHAhMl4deFMTH/SFhe/PgFRldMXz832gqXcET3GhSLI+wlMnTMAvub6qEo+gNc+PCsoEFSXZejBBGAnZ188O9AXXr2G4PWpj8NersaVAx/hzaO8j4cj6ouFeHnc8xg/KAjdA3vj2b/Ow+ju5jBAKc59vQx7EoWLAn3GY/Hs0RgWHgZXD3fYGwNVt13RvW8YQrqUIuac5t36HAuEjeuLLhbW8A7rBt/Hh2DOwknofm03DgsNloSbbgMw0McBXUMHo6+3LwZOm47B/qYwKIrDf/9vM84J8byHYs7yCQjQvl6QA1QxSU3Eo0lj9TcCA93t4O7I7r86GdvnHsBv0tEGvDQHSwO5s6E+zGz0Uf7ZIZwTjzDkMPkqFF3Hd4HRYD0gsDM6v+QPxyBTlrsEhV+nozKBZbupB/lYJYwsLdC5/23UPOUIh2keMNHrhE6dZajVy0T5aa2JK6Eaes+7wNzVCnJ22uJfElB2VDrGSSlBZU9bWLg7wHKkKWr9O0E2wRnWb3SH/YByFG0rQ93ZLufDYNAwONnbw9j0INJOixZADTh1A87PhMHX1RMDhX7SHcNemI4Ff5uO5x6vwME9SUI/6T5yIkKVMtxM3oyvpftpKk2kEF7PjEB3Gys4DQvAY92ewpQF0zHU/Dj2nJEGxbPTETVlGAaGu6JLVydYGtZA7eyF3qzf+CqicVoaiiKt9RORE26heDnQGfYu5pAb3kDM+x/jsPbYaYASyr/PQ4CtPvJOvIuEY9lSuhYjp+ONgY6spfXZOFLjP2xsEQRBEARBEMTDQjtY/FjByrc3vLrzzQ3CS2I628FN2A9sOc4H8UAS7NEPI7qKLSt37I4RvcLQv4mXXV0vWY8XD8fgssoQHn59MCLID34K/mr3n/FVg9eqMyq/wP+d4lZgZvB7rB8GeTtAbmAEf41hxa3t+E/cdaj07DFowBws6emG/PgYXGh8ns7dMbJXd3gI92OGoF7sXj28hUN/JkHh4RgWIL7iW+4WgmHDB6Kfh7CrRQ42z1qEFfuuQSXrgpBB4RjYywtmFZdw+JvvESPlqkN1DeduOqLf8BD4WsugSj2C999YX68Q4QFsI79FTHopFJ7smoOC4cRfw/3tKsyrC2h7BOs+2Y2YDDVM3YMxcHg4+vlbQZ13CfvfW4RZ2gYzHvy+xSDBgZpXYT8hBQ1+wlPIUs8BzF2+GxeL+IvGpGvLWNl96oN2x0RG4P19l1BQ44BAVlYek0edHo11cxdhc4aUCf7CPTW43hBWXuHYnew/lCq8tUzOlUQtuXn9cAoJgq5EjczTsdgsJGqoQtm6BGRnVEHm7gnliAA4+itQm5eBjHdP4+aXUraMQuR9chEl5fow8feGU6gNahLOIHUNTzOCvn0DTSdDcvdi6CEXpf8VvjageuZppO3NRIXMFvaDAqDs7QR5RSayv75Rb1UkcBaJX51AESur2/BIKOvfda5FLCJfXYXNZ3KgtvBi/YTVcYADZNmx+G5n9F0Gcs5hfWwTYrJYn3Lh/SUEgQoZOttoBWPvESb1kxB0FayfrBAo7LP+3EPIoUXr/URgdTwucncvY3awNTeviRGsD7N8hScQvfyslNgI/lYvSVdWVaStsCQIgiAIgiCIB59Ovv4h99F25sGkb98QHD/eMd/0Ymdng7y8htYpxKPGAuz8bSi6quLw/pOLGiktiJkb92NOEJDwyTBMvesAPw8GRm9sxbihbkDmUex5czGKOqah4j0hJOpLbBjigMwfFmF4RDOBncOXYeibg6FEOqIjJyGlWUOeUdhwZB5CLAoREzkBc+veLEcQBEEQBEEQDz4dNsYPQRDEH8MLo5d8gqlBMiD9MNY+5EofTsV7C7DnaBbgNAAD54yUUh82HBDyShRWPOUAqOLwdXNKH4xEzzlc6ZOF2I8XtKD0YfQJghMPjpQcjRWk9CEIgiAIgiAeMkjxQxDEw0fAAuw8/Qki/+IFRUESNv97dcvBfx8aslC0bCy2vxeFXRF7pLSHieex4ZcvsWFmCKyRg8NrV7dg4bYHZyOi8E3kWCTuzpLSmuEJBzhBjYQja+7S5Y0gCIIgCIIgOi7k6qUD5OpFdGyGYuZcGTKTr+HcoTgSXAWGInJNmGDBsW3tAVyUUokHHQfMeXcBuhbE4uut3yK2LvYTQRAEQRAEQRDNQYofHSDFD0EQBEEQBEEQBEEQDyLk6kUQBEEQBEEQBEEQBPGQQoqfBxyy9iEIgiAIgiAIgiAIojlI8fOw0Mke/Q2MpB2CIAiCIAiCIAiCIAhS/Dw8mIzGquErcGHEChzyfgr9pWSCIAiCIAiCIAiCIB5dSPHzsFB5DnvOnMXlSiM4+w3Ha3ZSOkEQBEEQBEEQBEEQjyyk+HlYuHUSyzO/wIjz19mOAWzN/cR0giAIgiAIgiAIgiAeWdrvde76zrD1HwIPJ2PolSUjPvpHlEuHRJzhHDYGXUykXS1UF7Yh8WqetPfn05Ff534HjgtxIcQZl2Nfw4hsKY0gCIIgCIIgCIIgiEeSdrD4kaOz0xgEhY+Bl9K49RuozEP6udO4pLWl594/pc+DxnSFNft7C6oqcZ8gCIIgCIIgCIIgiEeX+6/4MeiNro85w/BmMs4fPYECKblZam6iKPsEbmhtqkrpGHEHZjJD9rcalWpxnyAIgiAIgiAIgiCIR5f7r/i5FYPko1/g9JkfUdwGqxQ9A0vodZJ2iGaxNTJgf6uhviXuEwRBEARBEARBEATx6NIuwZ1rqm5K33RA7oZug+ajz9MvoM8z8xEU0Bud21kB1LmzHHK5TNprnvbItzcnl/01w+PdX8CrJl4YZGAkHiAIgiAIgiAIgiAI4pGjXRQ/uqFGae513MjNQObvPLZPAm6UA8ZOofDt6izluf907twZZmYKmJubQSZrXgnTXvlOZvwbb51Mh9qhJ15+eg7+1dVfOkIQBEEQBEEQBEEQxKNGB1b85KEoZScuJe5HlhDb5yguxZ5HGTti7OCDzmImohF9HOZgSR83KEqv49iZGOzJ4a93JwiCIAiCIAiCIAjiUaQDK36aoLIEQlxnPYN2u/HKykqUlKhQXFwCtbr5CMrtlW+EizPkKMGxX1dhduZ2LC/hrl8EQRAEQRAEQRAEQTyKdGDFjz4MO1tK3yVsXWDBP8slBVA7UVlZhaqq1l+b1R75LpdWsL+GkPEYzwRBEARBEARBEARBPNK0g+LHGMa2obB15JsjhGg1+pawEPZ9wF9Gzuns9gJ6D2Db42Pg7BwKpc8L6NHDGfq3y3EtJRa1Uj6iITeqytlfQ5gbi/sEQRAEQRAEQRAEQTy6tIPixwpWvr3h1Z1vblDwpM52cBP2A2Em5AEq07fit8TrUBs7ostjveHmZgZ91XVciv4C11U1Ui6iMXsruMWPARSG9DYvgiAIgiAIgiAIgnjU6eTrH3Jb+k40Q9++ITh+PFba66B0sscgmTue9B+FsV2McD1uBQZdo/g+BEEQBEEQBEEQBPEo82AFdyaax2Q0/jVkoqD0QdE5bMkgpQ9BEARBEARBEARBPOqQxY8OPBAWPwZ98KpJAS6X52JvdYmUSBAEQRAEQRAEQRDEowxZ/Dws3DqJD4svkdKHIAiCIAiCIAiCIIg6SPFDEARBEARBEARBEATxkEKKH4IgCIIgCIIgCIIgiIcUivGjA9OmjpG+tcxPPydI3wiCIAiCIAiCIAiCINofUvzoAFf87Dt2Cp69A4HTCUiV0rUZ3v9xUvwQBEEQBEEQBEEQBNGhIMWPDmgUP6988DnGuLKE4qvYt/4NvLkzW8zAeGniRHy2eae0RxAEQRAEQRAEQRAE0f5QjJ82EH/0J/x0rhBV5q4Y/tLfMVxKJwiCIAiCIAiCIAiC6IiQ4qcN7Pzkn3ht9lbEq9iOuSOCxGSCIAiCIAiCIAiCIIgOSfspfix7YsqSFdj4339j4wez0UdKbozHkOl4Z/UqMR/b1r0zGyN9pIPtSXk+MqWvBEEQBEEQBEEQBEEQHZF2UPyYoc/zC7Hu3RcQ7mokpTWNctxCvDGuO5R6BbgQG4Mjv17AjYIcJCVLGdoFN9gq2EdpKS6ICQRBEARBEARBEARBEB2S+6/46ToMf3nKGQb5F/Ddyhhck5LvpB+ef9IZhqoL2BSxAmu/P4Nju9Yj8oPduCzlaBdCTCHnn+pSnBISCIIgCIIgCIIgCIIgOib3X/FzZRs2rFyH1yLWY09ytZTYBCN6wdMIuJFejP5R3MXrNUSu/DfWR72AsJYNhf5cPEzBDX5QVSXsEgRBEARBEARBEARBdFTaJcbP5eRLqJC+N0fPLlYwZJ+2AX2gLDyLI4djcPJqBQztemLK3wej3XQ/W+OQVs4+vQfj28VTMXxIH/iJRwiCIAiCIAiCIAiCIDoU7RfcuRUM9bnaB6hI3IaFy7/Al1u3Y8Pyg7hQxY51DcSzwtH2YDOeX/RfHMuWwW/US3g3cg4mSUcIgiAIgiAIgiAIgiA6Eh1W8aPhRs5JLeugk8jO55/WUIYKCe3Ac/hf1Evo7whknvsF+374BfHSEYIgCIIgCIIgCIIgiI5Eh1X8FFdxfyrA1kH7Re/OMBYiK5ejqPmo0H8uk/rAz5x9puzFM7OX4M3I/2KneIQgCIIgCIIgCIIgCKJD0WEVP/+/vft3rbMM4zh8S4mhg2A1oWAyGQKmKBZSaqBGMIpLoUPJkEDRBAWRZnEulg5RsKtTQETjIIKIi2JBUloRzSaKZBNb42AwFJKpJaXm/LBOSrLkvHy5Lnh53ufh+Qs+vOc+az9vtL/0OTw8Vk91jqoeH6+Rgd11e6PW/ugcHbhvb9V2a+1vFygAAACAxupB+Dlak2en69xs6xmu1scz9eAjNd7eP/9v5Pn+Sl3/fafqyNO18M75mp9/vRbfnKjB2qmb331RP3SvHbj1zdq6u7s+9Gid7pwAAAAANFIPws9wnZh8tqZeaD2jnfDTf7TG2/vxOta+0/JbfXr541q5sVU1MFqTp8bqsdqsta+W6t3P/uze6YW/aqv1K7S+vhrsHAAAAAA00gNPHDt5r/vOf5h7+Wx9eX21Hh4ZqeNPvlRz5yZq6PYvtTT1Rr3XvfPazEx9uGzaDwAAANAcjf9XryaZXbhYF16ZqKFDd+rXlY/uRx8AAACAJhJ+9uHHK8v19qW36tXpF+vMYs+mDAEAAADsifCzD59/8H598vW1Wl3vHgAAAAA0mBk/e/DPjJ//c/q5Z+qbqz91dwAAAAC9J/zsQSv87IXwAwAAADSJ8AMAAAAQyowfAAAAgFDCDwAAAEAo4QcAAAAglPADAAAAEEr4AQAAAAgl/AAAAACEEn4AAAAAQgk/AAAAAKGEHwAAAIBQwg8AAABAKOEHAAAAIJTwAwAAABBK+AEAAAAIJfwAAAAAhBJ+AAAAAEIJPwAAAAChhB8AAACAUMIPAAAAQCjhBwAAACCU8AMAAAAQSvgBAAAACCX8AAAAAIQSfgAAAABCCT8AAAAAoYQfAAAAgFDCDwAAAEAo4QcAAAAglPADAAAAEEr4AQAAAAgl/AAAAACEEn4AAAAAQgk/AAAAAKGEHwAAAIBQwg8AAABAKOEHAAAAIJTwAwAAABBK+AEAAAAIJfwAAAAAhBJ+AAAAAEIJPwAAAAChhB8AAACAUMIPAAAAQCjhBwAAACCU8AMAAAAQSvgBAAAACCX8AAAAAIQSfgAAAABCCT8AAAAAoYQfAAAAgFDCDwAAAEAo4QcAAAAglPADAAAAEEr4AQAAAAgl/AAAAACEEn4AAAAAQgk/AAAAAKGEHwAAAIBQwg8AAABAKOEHAAAAIJTwAwAAABBK+AEAAAAIJfwAAAAAhBJ+AAAAAEIJPwAAAAChhB8AAACAUMIPAAAAQCjhBwAAACCU8AMAAAAQSvgBAAAACCX8AAAAAIQSfgAAAABCCT8AAAAAoYQfAAAAgFDCDwAAAEAo4QcAAAAglPADAAAAEEr4AQAAAAgl/AAAAACEEn4AAAAAQgk/AAAAAKGEHwAAAIBQwg8AAABAKOEHAAAAIJTwAwAAABBK+AEAAAAIJfwAAAAAhBJ+AAAAAEIJPwAAAAChhB8AAACAUMIPAAAAQCjhBwAAACCU8AMAAAAQSvgBAAAACCX8AAAAAIQSfgAAAABCCT8AAAAAoYQfAAAAgFDCDwAAAEAo4QcAAAAglPADAAAAEEr4AQAAAAgl/AAAAACEEn4AAAAAQgk/AAAAAKGEHwAAAIBQwg8AAABAKOEHAAAAIJTwAwAAABBK+AEAAAAIJfwAAAAAhBJ+AAAAAEIJPwAAAAChhB8AAACAUMIPAAAAQCjhBwAAACCU8AMAAAAQSvgBAAAACCX8AAAAAIQSfgAAAABCCT8AAAAAoYQfAAAAgFDCDwAAAECkqr8Bv7WCHxhRXQgAAAAASUVORK5CYII=;dashed=1;strokeWidth=0;" parent="aHOeP1wYHEaDq_rcjLdr-53" vertex="1">
          <mxGeometry x="2.274336283185841" y="22.63135041250543" width="509.2053842813722" height="224.9386495874946" as="geometry" />
        </mxCell>
        <mxCell id="aHOeP1wYHEaDq_rcjLdr-52" value="&lt;font style=&quot;font-size: 50px;&quot;&gt;Rascunho do service&lt;/font&gt;" style="text;html=1;strokeColor=none;fillColor=none;align=center;verticalAlign=middle;whiteSpace=wrap;rounded=0;" parent="aHOeP1wYHEaDq_rcjLdr-54" vertex="1">
          <mxGeometry x="17" width="480" height="22.63" as="geometry" />
        </mxCell>
        <mxCell id="e5HDdC47_YZy2gkNVNlq-7" style="edgeStyle=orthogonalEdgeStyle;rounded=0;orthogonalLoop=1;jettySize=auto;html=1;exitX=0.25;exitY=0;exitDx=0;exitDy=0;entryX=0.5;entryY=1;entryDx=0;entryDy=0;" edge="1" parent="1" source="e5HDdC47_YZy2gkNVNlq-13" target="e5HDdC47_YZy2gkNVNlq-5">
          <mxGeometry relative="1" as="geometry">
            <mxPoint x="-90" y="770" as="sourcePoint" />
          </mxGeometry>
        </mxCell>
        <mxCell id="e5HDdC47_YZy2gkNVNlq-8" style="edgeStyle=orthogonalEdgeStyle;rounded=0;orthogonalLoop=1;jettySize=auto;html=1;exitX=0.5;exitY=0;exitDx=0;exitDy=0;entryX=0.5;entryY=1;entryDx=0;entryDy=0;" edge="1" parent="1" source="e5HDdC47_YZy2gkNVNlq-13" target="e5HDdC47_YZy2gkNVNlq-3">
          <mxGeometry relative="1" as="geometry">
            <mxPoint x="-20" y="770" as="sourcePoint" />
          </mxGeometry>
        </mxCell>
        <mxCell id="e5HDdC47_YZy2gkNVNlq-9" style="edgeStyle=orthogonalEdgeStyle;rounded=0;orthogonalLoop=1;jettySize=auto;html=1;exitX=0.75;exitY=0;exitDx=0;exitDy=0;entryX=0.5;entryY=1;entryDx=0;entryDy=0;" edge="1" parent="1" source="e5HDdC47_YZy2gkNVNlq-13" target="e5HDdC47_YZy2gkNVNlq-6">
          <mxGeometry relative="1" as="geometry">
            <mxPoint x="50" y="770" as="sourcePoint" />
          </mxGeometry>
        </mxCell>
        <mxCell id="e5HDdC47_YZy2gkNVNlq-3" value="EletrodomesticoDto" style="swimlane;fontStyle=1;align=center;verticalAlign=top;childLayout=stackLayout;horizontal=1;startSize=30;horizontalStack=0;resizeParent=1;resizeParentMax=0;resizeLast=0;collapsible=1;marginBottom=0;" vertex="1" parent="1">
          <mxGeometry x="-160" y="585" width="280" height="70" as="geometry" />
        </mxCell>
        <mxCell id="e5HDdC47_YZy2gkNVNlq-5" value="PessoaDto" style="swimlane;fontStyle=1;align=center;verticalAlign=top;childLayout=stackLayout;horizontal=1;startSize=30;horizontalStack=0;resizeParent=1;resizeParentMax=0;resizeLast=0;collapsible=1;marginBottom=0;" vertex="1" parent="1">
          <mxGeometry x="-470" y="585" width="280" height="70" as="geometry" />
        </mxCell>
        <mxCell id="e5HDdC47_YZy2gkNVNlq-6" value="EnderecoDto" style="swimlane;fontStyle=1;align=center;verticalAlign=top;childLayout=stackLayout;horizontal=1;startSize=30;horizontalStack=0;resizeParent=1;resizeParentMax=0;resizeLast=0;collapsible=1;marginBottom=0;" vertex="1" parent="1">
          <mxGeometry x="150" y="585" width="280" height="70" as="geometry" />
        </mxCell>
        <mxCell id="e5HDdC47_YZy2gkNVNlq-13" value="&lt;&lt;interface&gt;&gt;&#xa;Dto&#xa;" style="swimlane;fontStyle=1;align=center;verticalAlign=top;childLayout=stackLayout;horizontal=1;startSize=40;horizontalStack=0;resizeParent=1;resizeParentMax=0;resizeLast=0;collapsible=1;marginBottom=0;" vertex="1" parent="1">
          <mxGeometry x="-125" y="760" width="210" height="70" as="geometry" />
        </mxCell>
        <mxCell id="e5HDdC47_YZy2gkNVNlq-14" value="+ toDomain(): Domain&#xa;" style="text;strokeColor=none;fillColor=none;align=left;verticalAlign=top;spacingLeft=4;spacingRight=4;overflow=hidden;rotatable=0;points=[[0,0.5],[1,0.5]];portConstraint=eastwest;" vertex="1" parent="e5HDdC47_YZy2gkNVNlq-13">
          <mxGeometry y="40" width="210" height="30" as="geometry" />
        </mxCell>
        <mxCell id="e5HDdC47_YZy2gkNVNlq-15" style="edgeStyle=orthogonalEdgeStyle;rounded=0;orthogonalLoop=1;jettySize=auto;html=1;exitX=0.25;exitY=0;exitDx=0;exitDy=0;entryX=0.5;entryY=1;entryDx=0;entryDy=0;" edge="1" parent="1" source="e5HDdC47_YZy2gkNVNlq-21" target="e5HDdC47_YZy2gkNVNlq-19">
          <mxGeometry relative="1" as="geometry">
            <mxPoint x="901" y="770" as="sourcePoint" />
          </mxGeometry>
        </mxCell>
        <mxCell id="e5HDdC47_YZy2gkNVNlq-16" style="edgeStyle=orthogonalEdgeStyle;rounded=0;orthogonalLoop=1;jettySize=auto;html=1;exitX=0.5;exitY=0;exitDx=0;exitDy=0;entryX=0.5;entryY=1;entryDx=0;entryDy=0;" edge="1" parent="1" source="e5HDdC47_YZy2gkNVNlq-21" target="e5HDdC47_YZy2gkNVNlq-18">
          <mxGeometry relative="1" as="geometry">
            <mxPoint x="971" y="770" as="sourcePoint" />
          </mxGeometry>
        </mxCell>
        <mxCell id="e5HDdC47_YZy2gkNVNlq-17" style="edgeStyle=orthogonalEdgeStyle;rounded=0;orthogonalLoop=1;jettySize=auto;html=1;exitX=0.75;exitY=0;exitDx=0;exitDy=0;entryX=0.5;entryY=1;entryDx=0;entryDy=0;" edge="1" parent="1" source="e5HDdC47_YZy2gkNVNlq-21" target="e5HDdC47_YZy2gkNVNlq-20">
          <mxGeometry relative="1" as="geometry">
            <mxPoint x="1041" y="770" as="sourcePoint" />
          </mxGeometry>
        </mxCell>
        <mxCell id="e5HDdC47_YZy2gkNVNlq-18" value="Eletrodomestico" style="swimlane;fontStyle=1;align=center;verticalAlign=top;childLayout=stackLayout;horizontal=1;startSize=30;horizontalStack=0;resizeParent=1;resizeParentMax=0;resizeLast=0;collapsible=1;marginBottom=0;" vertex="1" parent="1">
          <mxGeometry x="831" y="585" width="280" height="70" as="geometry" />
        </mxCell>
        <mxCell id="e5HDdC47_YZy2gkNVNlq-19" value="Pessoa" style="swimlane;fontStyle=1;align=center;verticalAlign=top;childLayout=stackLayout;horizontal=1;startSize=30;horizontalStack=0;resizeParent=1;resizeParentMax=0;resizeLast=0;collapsible=1;marginBottom=0;" vertex="1" parent="1">
          <mxGeometry x="521" y="585" width="280" height="70" as="geometry" />
        </mxCell>
        <mxCell id="e5HDdC47_YZy2gkNVNlq-20" value="Endereco" style="swimlane;fontStyle=1;align=center;verticalAlign=top;childLayout=stackLayout;horizontal=1;startSize=30;horizontalStack=0;resizeParent=1;resizeParentMax=0;resizeLast=0;collapsible=1;marginBottom=0;" vertex="1" parent="1">
          <mxGeometry x="1141" y="585" width="280" height="70" as="geometry" />
        </mxCell>
        <mxCell id="e5HDdC47_YZy2gkNVNlq-21" value="&lt;&lt;interface&gt;&gt;&#xa;Domain&#xa;" style="swimlane;fontStyle=1;align=center;verticalAlign=top;childLayout=stackLayout;horizontal=1;startSize=40;horizontalStack=0;resizeParent=1;resizeParentMax=0;resizeLast=0;collapsible=1;marginBottom=0;" vertex="1" parent="1">
          <mxGeometry x="866" y="760" width="210" height="70" as="geometry" />
        </mxCell>
        <mxCell id="e5HDdC47_YZy2gkNVNlq-22" value="+ toDto(): Dto&#xa;" style="text;strokeColor=none;fillColor=none;align=left;verticalAlign=top;spacingLeft=4;spacingRight=4;overflow=hidden;rotatable=0;points=[[0,0.5],[1,0.5]];portConstraint=eastwest;" vertex="1" parent="e5HDdC47_YZy2gkNVNlq-21">
          <mxGeometry y="40" width="210" height="30" as="geometry" />
        </mxCell>
      </root>
    </mxGraphModel>
  </diagram>
</mxfile>
